%TF.GenerationSoftware,KiCad,Pcbnew,10.0.3*%
%TF.CreationDate,2026-07-07T17:46:32+08:00*%
%TF.ProjectId,Combined_PowerSupply_v1.1,436f6d62-696e-4656-945f-506f77657253,rev?*%
%TF.SameCoordinates,Original*%
%TF.FileFunction,Soldermask,Top*%
%TF.FilePolarity,Negative*%
%FSLAX46Y46*%
G04 Gerber Fmt 4.6, Leading zero omitted, Abs format (unit mm)*
G04 Created by KiCad (PCBNEW 10.0.3) date 2026-07-07 17:46:32*
%MOMM*%
%LPD*%
G01*
G04 APERTURE LIST*
G04 Aperture macros list*
%AMRoundRect*
0 Rectangle with rounded corners*
0 $1 Rounding radius*
0 $2 $3 $4 $5 $6 $7 $8 $9 X,Y pos of 4 corners*
0 Add a 4 corners polygon primitive as box body*
4,1,4,$2,$3,$4,$5,$6,$7,$8,$9,$2,$3,0*
0 Add four circle primitives for the rounded corners*
1,1,$1+$1,$2,$3*
1,1,$1+$1,$4,$5*
1,1,$1+$1,$6,$7*
1,1,$1+$1,$8,$9*
0 Add four rect primitives between the rounded corners*
20,1,$1+$1,$2,$3,$4,$5,0*
20,1,$1+$1,$4,$5,$6,$7,0*
20,1,$1+$1,$6,$7,$8,$9,0*
20,1,$1+$1,$8,$9,$2,$3,0*%
G04 Aperture macros list end*
%ADD10R,3.000000X3.000000*%
%ADD11C,3.000000*%
%ADD12C,5.600000*%
%ADD13RoundRect,0.225000X0.250000X-0.225000X0.250000X0.225000X-0.250000X0.225000X-0.250000X-0.225000X0*%
%ADD14C,1.448000*%
%ADD15RoundRect,0.250000X0.650000X-0.325000X0.650000X0.325000X-0.650000X0.325000X-0.650000X-0.325000X0*%
%ADD16C,1.600000*%
%ADD17RoundRect,0.225000X-0.250000X0.225000X-0.250000X-0.225000X0.250000X-0.225000X0.250000X0.225000X0*%
%ADD18R,1.064008X2.336017*%
%ADD19R,5.491212X5.826035*%
%ADD20RoundRect,0.250000X-0.650000X0.325000X-0.650000X-0.325000X0.650000X-0.325000X0.650000X0.325000X0*%
%ADD21R,1.400000X4.300000*%
%ADD22R,10.700025X8.600025*%
G04 APERTURE END LIST*
D10*
%TO.C,CN11*%
X47500000Y-137459995D03*
D11*
X47500000Y-142540005D03*
%TD*%
D12*
%TO.C,B1*%
X154500000Y-60000000D03*
%TD*%
D10*
%TO.C,CN3*%
X47500000Y-73459995D03*
D11*
X47500000Y-78540005D03*
%TD*%
D13*
%TO.C,C16*%
X155000000Y-130000000D03*
X155000000Y-128450000D03*
%TD*%
D14*
%TO.C,TH3*%
X185250000Y-145400000D03*
%TD*%
D12*
%TO.C,B4*%
X94500000Y-60000000D03*
%TD*%
D10*
%TO.C,CN5*%
X47500000Y-89459995D03*
D11*
X47500000Y-94540005D03*
%TD*%
D14*
%TO.C,TH1*%
X76200000Y-146150000D03*
%TD*%
D13*
%TO.C,C15*%
X180000000Y-140000000D03*
X180000000Y-138450000D03*
%TD*%
D10*
%TO.C,CN1*%
X47500000Y-57459995D03*
D11*
X47500000Y-62540005D03*
%TD*%
D12*
%TO.C,B3*%
X94500000Y-140000000D03*
%TD*%
D10*
%TO.C,CN9*%
X47379991Y-121459995D03*
D11*
X47379991Y-126540005D03*
%TD*%
D15*
%TO.C,C14*%
X185000000Y-140525000D03*
X185000000Y-137575000D03*
%TD*%
D10*
%TO.C,CN7*%
X47500000Y-105459995D03*
D11*
X47500000Y-110540005D03*
%TD*%
D16*
%TO.C,J1*%
X202190005Y-60629921D03*
X202190005Y-63169926D03*
X202190005Y-65709931D03*
X202190005Y-68249936D03*
X202190005Y-70789942D03*
X202190005Y-73329947D03*
X202190005Y-75869952D03*
X202190005Y-78409957D03*
X202190005Y-80949962D03*
X202190005Y-83489967D03*
X202190005Y-86029972D03*
X202190005Y-88569977D03*
X202190005Y-91109982D03*
X202190005Y-93649987D03*
X202190005Y-96189992D03*
X202190005Y-98729997D03*
X202190005Y-101270003D03*
X202190005Y-103810008D03*
X202190005Y-106350013D03*
X202190005Y-108890018D03*
X202190005Y-111430023D03*
X202190005Y-113970028D03*
X202190005Y-116510033D03*
X202190005Y-119050038D03*
X202190005Y-121590043D03*
X202190005Y-124130048D03*
X202190005Y-126670053D03*
X202190005Y-129210058D03*
X202190005Y-131750064D03*
X202190005Y-134290069D03*
X202190005Y-136830074D03*
X202190005Y-139370079D03*
X197109995Y-60629921D03*
X197109995Y-63169926D03*
X197109995Y-65709931D03*
X197109995Y-68249936D03*
X197109995Y-70789942D03*
X197109995Y-73329947D03*
X197109995Y-75869952D03*
X197109995Y-78409957D03*
X197109995Y-80949962D03*
X197109995Y-83489967D03*
X197109995Y-86029972D03*
X197109995Y-88569977D03*
X197109995Y-91109982D03*
X197109995Y-93649987D03*
X197109995Y-96189992D03*
X197109995Y-98729997D03*
X197109995Y-101270003D03*
X197109995Y-103810008D03*
X197109995Y-106350013D03*
X197109995Y-108890018D03*
X197109995Y-111430023D03*
X197109995Y-113970028D03*
X197109995Y-116510033D03*
X197109995Y-119050038D03*
X197109995Y-121590043D03*
X197109995Y-124130048D03*
X197109995Y-126670053D03*
X197109995Y-129210058D03*
X197109995Y-131750064D03*
X197109995Y-134290069D03*
X197109995Y-136830074D03*
X197109995Y-139370079D03*
%TD*%
D15*
%TO.C,C17*%
X150000000Y-130000000D03*
X150000000Y-127050000D03*
%TD*%
D17*
%TO.C,C12*%
X126700000Y-79525000D03*
X126700000Y-81075000D03*
%TD*%
%TO.C,C11*%
X144350000Y-79300000D03*
X144350000Y-80850000D03*
%TD*%
D18*
%TO.C,U5*%
X172290069Y-131385725D03*
X167709931Y-131385725D03*
D19*
X170000000Y-138356769D03*
%TD*%
D20*
%TO.C,C13*%
X121700000Y-78825000D03*
X121700000Y-81775000D03*
%TD*%
D14*
%TO.C,TH2*%
X120050000Y-54550000D03*
%TD*%
D20*
%TO.C,C20*%
X147550000Y-79299998D03*
X147550000Y-82250000D03*
%TD*%
D21*
%TO.C,U4*%
X139240005Y-79951714D03*
X136700000Y-79951714D03*
X134159995Y-79951714D03*
D22*
X136700000Y-90551918D03*
%TD*%
D12*
%TO.C,B2*%
X154500000Y-140000000D03*
%TD*%
M02*
