%TF.GenerationSoftware,KiCad,Pcbnew,10.0.3*%
%TF.CreationDate,2026-07-07T17:46:32+08:00*%
%TF.ProjectId,Combined_PowerSupply_v1.1,436f6d62-696e-4656-945f-506f77657253,rev?*%
%TF.SameCoordinates,Original*%
%TF.FileFunction,Legend,Bot*%
%TF.FilePolarity,Positive*%
%FSLAX46Y46*%
G04 Gerber Fmt 4.6, Leading zero omitted, Abs format (unit mm)*
G04 Created by KiCad (PCBNEW 10.0.3) date 2026-07-07 17:46:32*
%MOMM*%
%LPD*%
G01*
G04 APERTURE LIST*
%ADD10R,3.000000X3.000000*%
%ADD11C,3.000000*%
%ADD12C,5.600000*%
%ADD13C,1.448000*%
%ADD14C,2.800000*%
%ADD15C,1.600000*%
G04 APERTURE END LIST*
%LPC*%
D10*
%TO.C,CN11*%
X47500000Y-137459995D03*
D11*
X47500000Y-142540005D03*
%TD*%
D12*
%TO.C,B1*%
X154500000Y-60000000D03*
%TD*%
D10*
%TO.C,CN3*%
X47500000Y-73459995D03*
D11*
X47500000Y-78540005D03*
%TD*%
D13*
%TO.C,TH3*%
X185250000Y-145400000D03*
%TD*%
D12*
%TO.C,B4*%
X94500000Y-60000000D03*
%TD*%
D10*
%TO.C,CN5*%
X47500000Y-89459995D03*
D11*
X47500000Y-94540005D03*
%TD*%
D13*
%TO.C,TH1*%
X76200000Y-146150000D03*
%TD*%
D10*
%TO.C,CN1*%
X47500000Y-57459995D03*
D11*
X47500000Y-62540005D03*
%TD*%
D12*
%TO.C,B3*%
X94500000Y-140000000D03*
%TD*%
D10*
%TO.C,CN9*%
X47379991Y-121459995D03*
D11*
X47379991Y-126540005D03*
%TD*%
D10*
%TO.C,CN7*%
X47500000Y-105459995D03*
D11*
X47500000Y-110540005D03*
%TD*%
D14*
%TO.C,J1*%
X204730010Y-144450089D03*
X204730010Y-55549911D03*
D15*
X202190005Y-60629921D03*
X202190005Y-63169926D03*
X202190005Y-65709931D03*
X202190005Y-68249936D03*
X202190005Y-70789942D03*
X202190005Y-73329947D03*
X202190005Y-75869952D03*
X202190005Y-78409957D03*
X202190005Y-80949962D03*
X202190005Y-83489967D03*
X202190005Y-86029972D03*
X202190005Y-88569977D03*
X202190005Y-91109982D03*
X202190005Y-93649987D03*
X202190005Y-96189992D03*
X202190005Y-98729997D03*
X202190005Y-101270003D03*
X202190005Y-103810008D03*
X202190005Y-106350013D03*
X202190005Y-108890018D03*
X202190005Y-111430023D03*
X202190005Y-113970028D03*
X202190005Y-116510033D03*
X202190005Y-119050038D03*
X202190005Y-121590043D03*
X202190005Y-124130048D03*
X202190005Y-126670053D03*
X202190005Y-129210058D03*
X202190005Y-131750064D03*
X202190005Y-134290069D03*
X202190005Y-136830074D03*
X202190005Y-139370079D03*
X197109995Y-60629921D03*
X197109995Y-63169926D03*
X197109995Y-65709931D03*
X197109995Y-68249936D03*
X197109995Y-70789942D03*
X197109995Y-73329947D03*
X197109995Y-75869952D03*
X197109995Y-78409957D03*
X197109995Y-80949962D03*
X197109995Y-83489967D03*
X197109995Y-86029972D03*
X197109995Y-88569977D03*
X197109995Y-91109982D03*
X197109995Y-93649987D03*
X197109995Y-96189992D03*
X197109995Y-98729997D03*
X197109995Y-101270003D03*
X197109995Y-103810008D03*
X197109995Y-106350013D03*
X197109995Y-108890018D03*
X197109995Y-111430023D03*
X197109995Y-113970028D03*
X197109995Y-116510033D03*
X197109995Y-119050038D03*
X197109995Y-121590043D03*
X197109995Y-124130048D03*
X197109995Y-126670053D03*
X197109995Y-129210058D03*
X197109995Y-131750064D03*
X197109995Y-134290069D03*
X197109995Y-136830074D03*
X197109995Y-139370079D03*
%TD*%
D13*
%TO.C,TH2*%
X120050000Y-54550000D03*
%TD*%
D12*
%TO.C,B2*%
X154500000Y-140000000D03*
%TD*%
%LPD*%
M02*
