M48
; DRILL file KiCad 10.0.3 date 2026-07-07T17:46:32
; FORMAT={-:-/ absolute / inch / decimal}
; #@! TF.CreationDate,2026-07-07T17:46:32+08:00
; #@! TF.GenerationSoftware,Kicad,Pcbnew,10.0.3
; #@! TF.FileFunction,Plated,1,4,PTH
FMAT,2
INCH
; #@! TA.AperFunction,Plated,PTH,ViaDrill
T1C0.0118
; #@! TA.AperFunction,Plated,PTH,ViaDrill
T2C0.0157
; #@! TA.AperFunction,Plated,PTH,ViaDrill
T3C0.0315
; #@! TA.AperFunction,Plated,PTH,ComponentDrill
T4C0.0433
; #@! TA.AperFunction,Plated,PTH,ComponentDrill
T5C0.0669
; #@! TA.AperFunction,Plated,PTH,ComponentDrill
T6C0.1260
%
G90
G05
T1
X6.4567Y-5.2756
X6.4567Y-5.3543
X6.4567Y-5.4331
X6.4567Y-5.5118
X6.4567Y-5.5906
X6.4567Y-5.6693
X6.5354Y-5.2756
X6.5354Y-5.3543
X6.5354Y-5.4331
X6.5354Y-5.5118
X6.5354Y-5.5906
X6.5354Y-5.6693
X6.6142Y-5.2756
X6.6142Y-5.3543
X6.6142Y-5.4331
X6.6142Y-5.5118
X6.6142Y-5.5906
X6.6142Y-5.6693
X6.6929Y-5.2756
X6.6929Y-5.3543
X6.6929Y-5.4331
X6.6929Y-5.5118
X6.6929Y-5.5906
X6.6929Y-5.6693
X6.7717Y-5.2756
X6.7717Y-5.3543
X6.7717Y-5.4331
X6.7717Y-5.5118
X6.7717Y-5.5906
X6.7717Y-5.6693
X6.8504Y-5.2756
X6.8504Y-5.3543
X6.8504Y-5.4331
X6.8504Y-5.5118
X6.8504Y-5.5906
X6.8504Y-5.6693
X6.9291Y-5.2756
X6.9291Y-5.3543
X6.9291Y-5.4331
X6.9291Y-5.5118
X6.9291Y-5.5906
X6.9291Y-5.6693
T2
X4.7913Y-3.2795
X4.9882Y-3.2795
X5.1457Y-3.3189
X5.1457Y-3.3976
X5.1457Y-3.4764
X5.1457Y-3.5551
X5.1457Y-3.6339
X5.1457Y-3.7126
X5.1457Y-3.7913
X5.2244Y-3.3189
X5.2244Y-3.3976
X5.2244Y-3.4764
X5.2244Y-3.5551
X5.2244Y-3.6339
X5.2244Y-3.7126
X5.2244Y-3.7913
X5.3031Y-3.3189
X5.3031Y-3.3976
X5.3031Y-3.4764
X5.3031Y-3.5551
X5.3031Y-3.6339
X5.3031Y-3.7126
X5.3031Y-3.7913
X5.3819Y-3.3189
X5.3819Y-3.3976
X5.3819Y-3.4764
X5.3819Y-3.5551
X5.3819Y-3.6339
X5.3819Y-3.7126
X5.3819Y-3.7913
X5.4606Y-3.3189
X5.4606Y-3.3976
X5.4606Y-3.4764
X5.4606Y-3.5551
X5.4606Y-3.6339
X5.4606Y-3.7126
X5.4606Y-3.7913
X5.5394Y-3.3189
X5.5394Y-3.3976
X5.5394Y-3.4764
X5.5394Y-3.5551
X5.5394Y-3.6339
X5.5394Y-3.7126
X5.5394Y-3.7913
X5.6181Y-3.3189
X5.6181Y-3.3976
X5.6181Y-3.4764
X5.6181Y-3.5551
X5.6181Y-3.6339
X5.6181Y-3.7126
X5.6181Y-3.7913
X5.6831Y-3.2707
X5.8071Y-3.2972
X5.9055Y-4.9213
X6.1024Y-4.9862
X6.7835Y-5.0787
X7.0866Y-5.2953
X7.2835Y-5.2953
T3
X7.5315Y-5.5118
T4
X7.7602Y-2.387
X7.7602Y-2.487
X7.7602Y-2.587
X7.7602Y-2.687
X7.7602Y-2.787
X7.7602Y-2.887
X7.7602Y-2.987
X7.7602Y-3.087
X7.7602Y-3.187
X7.7602Y-3.287
X7.7602Y-3.387
X7.7602Y-3.487
X7.7602Y-3.587
X7.7602Y-3.687
X7.7602Y-3.787
X7.7602Y-3.887
X7.7602Y-3.987
X7.7602Y-4.087
X7.7602Y-4.187
X7.7602Y-4.287
X7.7602Y-4.387
X7.7602Y-4.487
X7.7602Y-4.587
X7.7602Y-4.687
X7.7602Y-4.787
X7.7602Y-4.887
X7.7602Y-4.987
X7.7602Y-5.087
X7.7602Y-5.187
X7.7602Y-5.287
X7.7602Y-5.387
X7.7602Y-5.487
X7.9602Y-2.387
X7.9602Y-2.487
X7.9602Y-2.587
X7.9602Y-2.687
X7.9602Y-2.787
X7.9602Y-2.887
X7.9602Y-2.987
X7.9602Y-3.087
X7.9602Y-3.187
X7.9602Y-3.287
X7.9602Y-3.387
X7.9602Y-3.487
X7.9602Y-3.587
X7.9602Y-3.687
X7.9602Y-3.787
X7.9602Y-3.887
X7.9602Y-3.987
X7.9602Y-4.087
X7.9602Y-4.187
X7.9602Y-4.287
X7.9602Y-4.387
X7.9602Y-4.487
X7.9602Y-4.587
X7.9602Y-4.687
X7.9602Y-4.787
X7.9602Y-4.887
X7.9602Y-4.987
X7.9602Y-5.087
X7.9602Y-5.187
X7.9602Y-5.287
X7.9602Y-5.387
X7.9602Y-5.487
T5
X1.8654Y-4.7819
X1.8654Y-4.9819
X1.8701Y-2.2622
X1.8701Y-2.4622
X1.8701Y-2.8921
X1.8701Y-3.0921
X1.8701Y-3.522
X1.8701Y-3.722
X1.8701Y-4.152
X1.8701Y-4.352
X1.8701Y-5.4118
X1.8701Y-5.6118
T6
X3.7205Y-2.3622
X3.7205Y-5.5118
X6.0827Y-2.3622
X6.0827Y-5.5118
M30
