%TF.GenerationSoftware,KiCad,Pcbnew,10.0.3*%
%TF.CreationDate,2026-07-21T10:57:58+08:00*%
%TF.ProjectId,Combined_PowerSupply_v0.1,436f6d62-696e-4656-945f-506f77657253,rev?*%
%TF.SameCoordinates,Original*%
%TF.FileFunction,Copper,L4,Bot*%
%TF.FilePolarity,Positive*%
%FSLAX46Y46*%
G04 Gerber Fmt 4.6, Leading zero omitted, Abs format (unit mm)*
G04 Created by KiCad (PCBNEW 10.0.3) date 2026-07-21 10:57:58*
%MOMM*%
%LPD*%
G01*
G04 APERTURE LIST*
%TA.AperFunction,ComponentPad*%
%ADD10R,3.000000X3.000000*%
%TD*%
%TA.AperFunction,ComponentPad*%
%ADD11C,3.000000*%
%TD*%
%TA.AperFunction,ComponentPad*%
%ADD12C,5.600000*%
%TD*%
%TA.AperFunction,ComponentPad*%
%ADD13R,1.700000X1.700000*%
%TD*%
%TA.AperFunction,ComponentPad*%
%ADD14C,1.700000*%
%TD*%
%TA.AperFunction,ComponentPad*%
%ADD15C,1.600000*%
%TD*%
%TA.AperFunction,ViaPad*%
%ADD16C,0.600000*%
%TD*%
%TA.AperFunction,ViaPad*%
%ADD17C,1.200000*%
%TD*%
%TA.AperFunction,ViaPad*%
%ADD18C,0.800000*%
%TD*%
%TA.AperFunction,ViaPad*%
%ADD19C,0.500000*%
%TD*%
%TA.AperFunction,Conductor*%
%ADD20C,1.500000*%
%TD*%
%TA.AperFunction,Conductor*%
%ADD21C,0.500000*%
%TD*%
G04 APERTURE END LIST*
D10*
%TO.P,CN11,1,1_1*%
%TO.N,/+3V3*%
X47500000Y-137459995D03*
D11*
%TO.P,CN11,2,2_2*%
%TO.N,GNDA*%
X47500000Y-142540005D03*
%TD*%
D12*
%TO.P,B1,1,1_1*%
%TO.N,unconnected-(B1-Pad1)*%
X154500000Y-60000000D03*
%TD*%
D10*
%TO.P,CN3,1,1_1*%
%TO.N,/+12V*%
X47500000Y-73459995D03*
D11*
%TO.P,CN3,2,2_2*%
%TO.N,GNDA*%
X47500000Y-78540005D03*
%TD*%
D13*
%TO.P,U7,1,1_1*%
%TO.N,Net-(CN7-Pad1)*%
X91729997Y-104189992D03*
D14*
%TO.P,U7,2,2_2*%
%TO.N,/+15V*%
X94270003Y-104189992D03*
%TO.P,U7,3,3_3*%
%TO.N,Net-(CN7-Pad1)*%
X91729997Y-106729997D03*
%TO.P,U7,4,4_4*%
%TO.N,/+12V*%
X94270003Y-106729997D03*
%TO.P,U7,5,5_5*%
%TO.N,Net-(CN7-Pad1)*%
X91729997Y-109270003D03*
%TO.P,U7,6,6_6*%
%TO.N,/+5V*%
X94270003Y-109270003D03*
%TO.P,U7,7,7_7*%
%TO.N,Net-(CN7-Pad1)*%
X91729997Y-111810008D03*
%TO.P,U7,8,8_8*%
%TO.N,/+3V3*%
X94270003Y-111810008D03*
%TD*%
D12*
%TO.P,B4,1,1_1*%
%TO.N,unconnected-(B4-Pad1)*%
X94500000Y-60000000D03*
%TD*%
D13*
%TO.P,U6,1,1_1*%
%TO.N,Net-(CN5-Pad1)*%
X91729997Y-88189992D03*
D14*
%TO.P,U6,2,2_2*%
%TO.N,/+15V*%
X94270003Y-88189992D03*
%TO.P,U6,3,3_3*%
%TO.N,Net-(CN5-Pad1)*%
X91729997Y-90729997D03*
%TO.P,U6,4,4_4*%
%TO.N,/+12V*%
X94270003Y-90729997D03*
%TO.P,U6,5,5_5*%
%TO.N,Net-(CN5-Pad1)*%
X91729997Y-93270003D03*
%TO.P,U6,6,6_6*%
%TO.N,/+5V*%
X94270003Y-93270003D03*
%TO.P,U6,7,7_7*%
%TO.N,Net-(CN5-Pad1)*%
X91729997Y-95810008D03*
%TO.P,U6,8,8_8*%
%TO.N,/+3V3*%
X94270003Y-95810008D03*
%TD*%
D10*
%TO.P,CN5,1,1_1*%
%TO.N,Net-(CN5-Pad1)*%
X47500000Y-89459995D03*
D11*
%TO.P,CN5,2,2_2*%
%TO.N,GNDA*%
X47500000Y-94540005D03*
%TD*%
D10*
%TO.P,CN1,1,1_1*%
%TO.N,/+15V*%
X47500000Y-57459995D03*
D11*
%TO.P,CN1,2,2_2*%
%TO.N,GNDA*%
X47500000Y-62540005D03*
%TD*%
D12*
%TO.P,B3,1,1_1*%
%TO.N,unconnected-(B3-Pad1)*%
X94500000Y-140000000D03*
%TD*%
D10*
%TO.P,CN9,1,1_1*%
%TO.N,/+5V*%
X47379991Y-121459995D03*
D11*
%TO.P,CN9,2,2_2*%
%TO.N,GNDA*%
X47379991Y-126540005D03*
%TD*%
D10*
%TO.P,CN7,1,1_1*%
%TO.N,Net-(CN7-Pad1)*%
X47500000Y-105459995D03*
D11*
%TO.P,CN7,2,2_2*%
%TO.N,GNDA*%
X47500000Y-110540005D03*
%TD*%
D15*
%TO.P,J1,A1,A1_A1*%
%TO.N,unconnected-(J1-PadA1)*%
X202190005Y-60629921D03*
%TO.P,J1,A2,A2_A2*%
%TO.N,unconnected-(J1-PadA2)*%
X202190005Y-63169926D03*
%TO.P,J1,A3,A3_A3*%
%TO.N,GNDA*%
X202190005Y-65709931D03*
%TO.P,J1,A4,A4_A4*%
X202190005Y-68249936D03*
%TO.P,J1,A5,A5_A5*%
%TO.N,unconnected-(J1-PadA5)*%
X202190005Y-70789942D03*
%TO.P,J1,A6,A6_A6*%
%TO.N,unconnected-(J1-PadA6)*%
X202190005Y-73329947D03*
%TO.P,J1,A7,A7_A7*%
%TO.N,+24V*%
X202190005Y-75869952D03*
%TO.P,J1,A8,A8_A8*%
X202190005Y-78409957D03*
%TO.P,J1,A9,A9_A9*%
%TO.N,unconnected-(J1-PadA9)*%
X202190005Y-80949962D03*
%TO.P,J1,A10,A10_A10*%
%TO.N,unconnected-(J1-PadA10)*%
X202190005Y-83489967D03*
%TO.P,J1,A11,A11_A11*%
%TO.N,unconnected-(J1-PadA11)*%
X202190005Y-86029972D03*
%TO.P,J1,A12,A12_A12*%
%TO.N,unconnected-(J1-PadA12)*%
X202190005Y-88569977D03*
%TO.P,J1,A13,A13_A13*%
%TO.N,unconnected-(J1-PadA13)*%
X202190005Y-91109982D03*
%TO.P,J1,A14,A14_A14*%
%TO.N,unconnected-(J1-PadA14)*%
X202190005Y-93649987D03*
%TO.P,J1,A15,A15_A15*%
%TO.N,unconnected-(J1-PadA15)*%
X202190005Y-96189992D03*
%TO.P,J1,A16,A16_A16*%
%TO.N,unconnected-(J1-PadA16)*%
X202190005Y-98729997D03*
%TO.P,J1,A17,A17_A17*%
%TO.N,unconnected-(J1-PadA17)*%
X202190005Y-101270003D03*
%TO.P,J1,A18,A18_A18*%
%TO.N,unconnected-(J1-PadA18)*%
X202190005Y-103810008D03*
%TO.P,J1,A19,A19_A19*%
%TO.N,unconnected-(J1-PadA19)*%
X202190005Y-106350013D03*
%TO.P,J1,A20,A20_A20*%
%TO.N,unconnected-(J1-PadA20)*%
X202190005Y-108890018D03*
%TO.P,J1,A21,A21_A21*%
%TO.N,unconnected-(J1-PadA21)*%
X202190005Y-111430023D03*
%TO.P,J1,A22,A22_A22*%
%TO.N,unconnected-(J1-PadA22)*%
X202190005Y-113970028D03*
%TO.P,J1,A23,A23_A23*%
%TO.N,unconnected-(J1-PadA23)*%
X202190005Y-116510033D03*
%TO.P,J1,A24,A24_A24*%
%TO.N,unconnected-(J1-PadA24)*%
X202190005Y-119050038D03*
%TO.P,J1,A25,A25_A25*%
%TO.N,unconnected-(J1-PadA25)*%
X202190005Y-121590043D03*
%TO.P,J1,A26,A26_A26*%
%TO.N,unconnected-(J1-PadA26)*%
X202190005Y-124130048D03*
%TO.P,J1,A27,A27_A27*%
%TO.N,unconnected-(J1-PadA27)*%
X202190005Y-126670053D03*
%TO.P,J1,A28,A28_A28*%
%TO.N,unconnected-(J1-PadA28)*%
X202190005Y-129210058D03*
%TO.P,J1,A29,A29_A29*%
%TO.N,unconnected-(J1-PadA29)*%
X202190005Y-131750064D03*
%TO.P,J1,A30,A30_A30*%
%TO.N,unconnected-(J1-PadA30)*%
X202190005Y-134290069D03*
%TO.P,J1,A31,A31_A31*%
%TO.N,unconnected-(J1-PadA31)*%
X202190005Y-136830074D03*
%TO.P,J1,A32,A32_A32*%
%TO.N,unconnected-(J1-PadA32)*%
X202190005Y-139370079D03*
%TO.P,J1,C1,C1_C1*%
%TO.N,unconnected-(J1-PadC1)*%
X197109995Y-60629921D03*
%TO.P,J1,C2,C2_C2*%
%TO.N,unconnected-(J1-PadC2)*%
X197109995Y-63169926D03*
%TO.P,J1,C3,C3_C3*%
%TO.N,GNDA*%
X197109995Y-65709931D03*
%TO.P,J1,C4,C4_C4*%
X197109995Y-68249936D03*
%TO.P,J1,C5,C5_C5*%
%TO.N,unconnected-(J1-PadC5)*%
X197109995Y-70789942D03*
%TO.P,J1,C6,C6_C6*%
%TO.N,unconnected-(J1-PadC6)*%
X197109995Y-73329947D03*
%TO.P,J1,C7,C7_C7*%
%TO.N,unconnected-(J1-PadC7)*%
X197109995Y-75869952D03*
%TO.P,J1,C8,C8_C8*%
%TO.N,+24V*%
X197109995Y-78409957D03*
%TO.P,J1,C9,C9_C9*%
%TO.N,unconnected-(J1-PadC9)*%
X197109995Y-80949962D03*
%TO.P,J1,C10,C10_C10*%
%TO.N,unconnected-(J1-PadC10)*%
X197109995Y-83489967D03*
%TO.P,J1,C11,C11_C11*%
%TO.N,unconnected-(J1-PadC11)*%
X197109995Y-86029972D03*
%TO.P,J1,C12,C12_C12*%
%TO.N,unconnected-(J1-PadC12)*%
X197109995Y-88569977D03*
%TO.P,J1,C13,C13_C13*%
%TO.N,unconnected-(J1-PadC13)*%
X197109995Y-91109982D03*
%TO.P,J1,C14,C14_C14*%
%TO.N,unconnected-(J1-PadC14)*%
X197109995Y-93649987D03*
%TO.P,J1,C15,C15_C15*%
%TO.N,unconnected-(J1-PadC15)*%
X197109995Y-96189992D03*
%TO.P,J1,C16,C16_C16*%
%TO.N,unconnected-(J1-PadC16)*%
X197109995Y-98729997D03*
%TO.P,J1,C17,C17_C17*%
%TO.N,unconnected-(J1-PadC17)*%
X197109995Y-101270003D03*
%TO.P,J1,C18,C18_C18*%
%TO.N,unconnected-(J1-PadC18)*%
X197109995Y-103810008D03*
%TO.P,J1,C19,C19_C19*%
%TO.N,unconnected-(J1-PadC19)*%
X197109995Y-106350013D03*
%TO.P,J1,C20,C20_C20*%
%TO.N,unconnected-(J1-PadC20)*%
X197109995Y-108890018D03*
%TO.P,J1,C21,C21_C21*%
%TO.N,unconnected-(J1-PadC21)*%
X197109995Y-111430023D03*
%TO.P,J1,C22,C22_C22*%
%TO.N,unconnected-(J1-PadC22)*%
X197109995Y-113970028D03*
%TO.P,J1,C23,C23_C23*%
%TO.N,unconnected-(J1-PadC23)*%
X197109995Y-116510033D03*
%TO.P,J1,C24,C24_C24*%
%TO.N,unconnected-(J1-PadC24)*%
X197109995Y-119050038D03*
%TO.P,J1,C25,C25_C25*%
%TO.N,unconnected-(J1-PadC25)*%
X197109995Y-121590043D03*
%TO.P,J1,C26,C26_C26*%
%TO.N,unconnected-(J1-PadC26)*%
X197109995Y-124130048D03*
%TO.P,J1,C27,C27_C27*%
%TO.N,unconnected-(J1-PadC27)*%
X197109995Y-126670053D03*
%TO.P,J1,C28,C28_C28*%
%TO.N,unconnected-(J1-PadC28)*%
X197109995Y-129210058D03*
%TO.P,J1,C29,C29_C29*%
%TO.N,unconnected-(J1-PadC29)*%
X197109995Y-131750064D03*
%TO.P,J1,C30,C30_C30*%
%TO.N,unconnected-(J1-PadC30)*%
X197109995Y-134290069D03*
%TO.P,J1,C31,C31_C31*%
%TO.N,unconnected-(J1-PadC31)*%
X197109995Y-136830074D03*
%TO.P,J1,C32,C32_C32*%
%TO.N,unconnected-(J1-PadC32)*%
X197109995Y-139370079D03*
%TD*%
D12*
%TO.P,B2,1,1_1*%
%TO.N,unconnected-(B2-Pad1)*%
X154500000Y-140000000D03*
%TD*%
D16*
%TO.N,/+3V3*%
X165000000Y-137000000D03*
X165000000Y-117000000D03*
X163000000Y-123000000D03*
X171000000Y-133000000D03*
X173000000Y-121000000D03*
X163000000Y-131000000D03*
X175000000Y-135000000D03*
X177000000Y-131000000D03*
X165000000Y-121000000D03*
X167000000Y-133000000D03*
X171000000Y-125000000D03*
X169000000Y-117000000D03*
X165000000Y-127000000D03*
X165000000Y-135000000D03*
X165000000Y-125000000D03*
X177000000Y-123000000D03*
X171000000Y-121000000D03*
X173000000Y-135000000D03*
X175000000Y-127000000D03*
X165000000Y-119000000D03*
X163000000Y-127000000D03*
X167000000Y-117000000D03*
X169000000Y-125000000D03*
X175000000Y-129000000D03*
X177000000Y-119000000D03*
X169000000Y-131000000D03*
X165000000Y-133000000D03*
X175000000Y-131000000D03*
X165000000Y-131000000D03*
X167000000Y-131000000D03*
X171000000Y-119000000D03*
X171000000Y-129000000D03*
X171000000Y-131000000D03*
X171000000Y-123000000D03*
X173000000Y-129000000D03*
X163000000Y-117000000D03*
X177000000Y-127000000D03*
X167000000Y-119000000D03*
X169000000Y-135000000D03*
X177000000Y-135000000D03*
X169000000Y-127000000D03*
X169000000Y-121000000D03*
X177000000Y-137000000D03*
X173000000Y-131000000D03*
X163000000Y-121000000D03*
X167000000Y-125000000D03*
X175000000Y-137000000D03*
X171000000Y-127000000D03*
X167000000Y-127000000D03*
X177000000Y-125000000D03*
X173000000Y-119000000D03*
X167000000Y-135000000D03*
X173000000Y-117000000D03*
X177000000Y-121000000D03*
X169000000Y-119000000D03*
X165000000Y-129000000D03*
X163000000Y-125000000D03*
X163000000Y-135000000D03*
X175000000Y-125000000D03*
X167000000Y-129000000D03*
X173000000Y-125000000D03*
X169000000Y-123000000D03*
X177000000Y-129000000D03*
X163000000Y-129000000D03*
X175000000Y-133000000D03*
X167000000Y-123000000D03*
X173000000Y-127000000D03*
D17*
X151000000Y-130000000D03*
D16*
X173000000Y-123000000D03*
X173000000Y-137000000D03*
X177000000Y-117000000D03*
X163000000Y-119000000D03*
X175000000Y-121000000D03*
X177000000Y-133000000D03*
X169000000Y-137000000D03*
X169000000Y-129000000D03*
X171000000Y-117000000D03*
X175000000Y-123000000D03*
X165000000Y-123000000D03*
X171000000Y-135000000D03*
X173000000Y-133000000D03*
X175000000Y-119000000D03*
X169000000Y-133000000D03*
X175000000Y-117000000D03*
X171000000Y-137000000D03*
X167000000Y-121000000D03*
X167000000Y-137000000D03*
X163000000Y-133000000D03*
X163000000Y-137000000D03*
D18*
%TO.N,GNDA*%
X146400000Y-100650000D03*
X136700000Y-92300000D03*
X147500000Y-104800000D03*
D19*
X166050000Y-105400000D03*
D18*
X185950000Y-63750000D03*
X147500000Y-83750000D03*
X160000000Y-133550000D03*
X130700000Y-94300000D03*
D19*
X166850000Y-105400000D03*
D18*
X155000000Y-134399796D03*
D19*
X166050000Y-107800000D03*
D18*
X126700000Y-83300000D03*
X130000000Y-112500000D03*
X130700000Y-92300000D03*
X175000000Y-75000000D03*
D19*
X167650000Y-107000000D03*
X171093177Y-95273968D03*
D18*
X139000000Y-117000000D03*
X182950000Y-62612500D03*
X173000000Y-65000000D03*
X134700000Y-84300000D03*
X151000000Y-125000000D03*
X140700000Y-90300000D03*
D19*
X169600000Y-107600000D03*
D18*
X136700000Y-94300000D03*
X121700000Y-83300000D03*
D19*
X167650000Y-109400000D03*
D18*
X140700000Y-88300000D03*
X134700000Y-86300000D03*
X132700000Y-94300000D03*
D19*
X166850000Y-103800000D03*
D18*
X161400000Y-63075000D03*
X141000000Y-115000000D03*
X136700000Y-90300000D03*
X134700000Y-94300000D03*
X143000000Y-119000000D03*
X140700000Y-96300000D03*
X179000000Y-67000000D03*
X177000000Y-73000000D03*
X147000000Y-115000000D03*
X181000000Y-67000000D03*
X138700000Y-84300000D03*
X171000000Y-67000000D03*
D19*
X166050000Y-107000000D03*
D18*
X142700000Y-86300000D03*
X141000000Y-123000000D03*
D19*
X167093177Y-95273968D03*
D18*
X138700000Y-86300000D03*
X173000000Y-71000000D03*
X145000000Y-123000000D03*
X132700000Y-86300000D03*
X132700000Y-96300000D03*
X141000000Y-121000000D03*
D19*
X170800000Y-109000000D03*
X156300000Y-108450000D03*
D18*
X151000000Y-117000000D03*
D19*
X172000000Y-108000000D03*
D18*
X151000000Y-119000000D03*
X145000000Y-117000000D03*
D19*
X170400000Y-107600000D03*
D18*
X138700000Y-88300000D03*
X139000000Y-115000000D03*
X169000000Y-63000000D03*
X149000000Y-125000000D03*
X132700000Y-88300000D03*
D19*
X167650000Y-106200000D03*
D18*
X177000000Y-75000000D03*
X151000000Y-113000000D03*
D19*
X166050000Y-103800000D03*
X166850000Y-106200000D03*
X166850000Y-109400000D03*
D18*
X179000000Y-65000000D03*
X177000000Y-71000000D03*
D19*
X166850000Y-108600000D03*
D18*
X175000000Y-71000000D03*
X142700000Y-88300000D03*
D19*
X167809960Y-95312538D03*
D18*
X175000000Y-65000000D03*
X147000000Y-119000000D03*
X147000000Y-125000000D03*
X143000000Y-121000000D03*
X169000000Y-69000000D03*
X134700000Y-90300000D03*
D19*
X166050000Y-109400000D03*
D18*
X130700000Y-84300000D03*
D19*
X157000000Y-108450000D03*
D18*
X177000000Y-65000000D03*
X138700000Y-90300000D03*
X142700000Y-94300000D03*
X179000000Y-73000000D03*
X130700000Y-86300000D03*
X138700000Y-92300000D03*
D19*
X167650000Y-107800000D03*
D18*
X175000000Y-67000000D03*
D19*
X166850000Y-107000000D03*
X170750000Y-99600000D03*
D18*
X142700000Y-84300000D03*
X181000000Y-73000000D03*
X177000000Y-63000000D03*
X139000000Y-113000000D03*
X181000000Y-69000000D03*
X151000000Y-121000000D03*
D19*
X170000000Y-108200000D03*
D18*
X149000000Y-113000000D03*
X149000000Y-123000000D03*
X169000000Y-73000000D03*
X185000000Y-134500000D03*
X171000000Y-73000000D03*
X134700000Y-88300000D03*
X147000000Y-113000000D03*
X134700000Y-92300000D03*
X145000000Y-125000000D03*
D19*
X167650000Y-103800000D03*
X171600000Y-99600000D03*
X171400000Y-108000000D03*
X170293177Y-95223968D03*
D18*
X173000000Y-73000000D03*
X145000000Y-119000000D03*
X171000000Y-71000000D03*
X142700000Y-90300000D03*
D19*
X166050000Y-108600000D03*
D18*
X132700000Y-92300000D03*
X143000000Y-123000000D03*
D19*
X167650000Y-104600000D03*
D18*
X143000000Y-117000000D03*
X141000000Y-125000000D03*
X171000000Y-65000000D03*
D19*
X166050000Y-104600000D03*
D18*
X145000000Y-115000000D03*
D19*
X169393177Y-95323968D03*
D18*
X171000000Y-75000000D03*
X136700000Y-84300000D03*
D19*
X168650000Y-95300000D03*
D18*
X181000000Y-75000000D03*
X169000000Y-65000000D03*
X165000000Y-62500000D03*
X171000000Y-63000000D03*
X142700000Y-92300000D03*
X141000000Y-119000000D03*
X140700000Y-94300000D03*
X143000000Y-115000000D03*
D19*
X166000000Y-103000000D03*
X167600000Y-103000000D03*
D18*
X138700000Y-96300000D03*
X169000000Y-67000000D03*
X132700000Y-90300000D03*
X173000000Y-69000000D03*
D19*
X170800000Y-108400000D03*
D18*
X147000000Y-117000000D03*
X135000000Y-112500000D03*
X169000000Y-75000000D03*
D19*
X166050000Y-106200000D03*
D18*
X179000000Y-71000000D03*
X130700000Y-90300000D03*
X139000000Y-119000000D03*
X130700000Y-88300000D03*
D19*
X166850000Y-104600000D03*
X161300000Y-109000000D03*
D18*
X149000000Y-121000000D03*
X177000000Y-67000000D03*
X139000000Y-121000000D03*
X179000000Y-63000000D03*
X173000000Y-67000000D03*
X139000000Y-125000000D03*
X147000000Y-123000000D03*
X149000000Y-117000000D03*
X149000000Y-119000000D03*
X179000000Y-75000000D03*
X173000000Y-75000000D03*
X134700000Y-96300000D03*
X179000000Y-69000000D03*
X138700000Y-94300000D03*
X177000000Y-69000000D03*
X139000000Y-123000000D03*
X145000000Y-121000000D03*
X141000000Y-117000000D03*
X130700000Y-96300000D03*
D19*
X167650000Y-105400000D03*
D18*
X145000000Y-113000000D03*
X169000000Y-71000000D03*
X175000000Y-63000000D03*
X136700000Y-88300000D03*
X149000000Y-115000000D03*
X142700000Y-96300000D03*
X143000000Y-125000000D03*
D19*
X173565465Y-99646209D03*
X167650000Y-108600000D03*
D18*
X140700000Y-92300000D03*
X175000000Y-69000000D03*
X173000000Y-63000000D03*
X140700000Y-86300000D03*
X144350000Y-83075000D03*
X136700000Y-86300000D03*
X175000000Y-73000000D03*
X143000000Y-113000000D03*
X171000000Y-69000000D03*
D19*
X166800000Y-103000000D03*
D18*
X147000000Y-121000000D03*
D17*
X162500000Y-140000000D03*
D19*
X172550000Y-99550000D03*
X166850000Y-107800000D03*
D18*
X181000000Y-65000000D03*
D19*
X157750000Y-108450000D03*
D18*
X151000000Y-123000000D03*
X140700000Y-84300000D03*
X181000000Y-71000000D03*
X136700000Y-96300000D03*
X180000000Y-134500000D03*
X141000000Y-113000000D03*
X151000000Y-115000000D03*
X132700000Y-84300000D03*
D19*
X172600000Y-108000000D03*
D18*
X181000000Y-63000000D03*
D17*
%TO.N,/+15V*%
X153550000Y-68250000D03*
%TO.N,/+5V*%
X126000000Y-109000000D03*
D19*
%TO.N,/+9V*%
X166150000Y-90924999D03*
X163600000Y-109850000D03*
%TD*%
%TO.N,/+3V3*%
D20*
X112459995Y-130000000D02*
X128459995Y-130000000D01*
X128459995Y-130000000D02*
X151000000Y-130000000D01*
X94270003Y-111810008D02*
X112459995Y-130000000D01*
X94270003Y-95810008D02*
X128459995Y-130000000D01*
%TO.N,/+15V*%
X87000000Y-94804163D02*
X87000000Y-87000000D01*
X94270003Y-102074166D02*
X87000000Y-94804163D01*
X151450000Y-68350000D02*
X114109996Y-68350000D01*
X94270003Y-88189992D02*
X97629998Y-84829998D01*
X153500000Y-68300000D02*
X151500000Y-68300000D01*
X153550000Y-68250000D02*
X153500000Y-68300000D01*
X89170002Y-84829998D02*
X97629998Y-84829998D01*
X87000000Y-87000000D02*
X89170002Y-84829998D01*
X94270003Y-104189992D02*
X94270003Y-102074166D01*
X114109996Y-68350000D02*
X97629998Y-84829998D01*
X151500000Y-68300000D02*
X151450000Y-68350000D01*
%TO.N,/+5V*%
X110270003Y-93270003D02*
X126000000Y-109000000D01*
X94270003Y-93270003D02*
X110270003Y-93270003D01*
%TO.N,/+9V*%
D21*
X171974999Y-90924999D02*
X174600000Y-93550000D01*
X174600000Y-108750000D02*
X172350000Y-111000000D01*
X172350000Y-111000000D02*
X164750000Y-111000000D01*
X164750000Y-111000000D02*
X163600000Y-109850000D01*
X174600000Y-93550000D02*
X174600000Y-108750000D01*
X166150000Y-90924999D02*
X171974999Y-90924999D01*
%TD*%
%TA.AperFunction,Conductor*%
%TO.N,/+3V3*%
G36*
X177943039Y-116019685D02*
G01*
X177988794Y-116072489D01*
X178000000Y-116124000D01*
X178000000Y-137876000D01*
X177980315Y-137943039D01*
X177927511Y-137988794D01*
X177876000Y-138000000D01*
X162124000Y-138000000D01*
X162056961Y-137980315D01*
X162011206Y-137927511D01*
X162000000Y-137876000D01*
X162000000Y-116124000D01*
X162019685Y-116056961D01*
X162072489Y-116011206D01*
X162124000Y-116000000D01*
X177876000Y-116000000D01*
X177943039Y-116019685D01*
G37*
%TD.AperFunction*%
%TD*%
M02*
