%TF.GenerationSoftware,KiCad,Pcbnew,10.0.3*%
%TF.CreationDate,2026-07-21T10:57:58+08:00*%
%TF.ProjectId,Combined_PowerSupply_v0.1,436f6d62-696e-4656-945f-506f77657253,rev?*%
%TF.SameCoordinates,Original*%
%TF.FileFunction,Soldermask,Top*%
%TF.FilePolarity,Negative*%
%FSLAX46Y46*%
G04 Gerber Fmt 4.6, Leading zero omitted, Abs format (unit mm)*
G04 Created by KiCad (PCBNEW 10.0.3) date 2026-07-21 10:57:58*
%MOMM*%
%LPD*%
G01*
G04 APERTURE LIST*
G04 Aperture macros list*
%AMRoundRect*
0 Rectangle with rounded corners*
0 $1 Rounding radius*
0 $2 $3 $4 $5 $6 $7 $8 $9 X,Y pos of 4 corners*
0 Add a 4 corners polygon primitive as box body*
4,1,4,$2,$3,$4,$5,$6,$7,$8,$9,$2,$3,0*
0 Add four circle primitives for the rounded corners*
1,1,$1+$1,$2,$3*
1,1,$1+$1,$4,$5*
1,1,$1+$1,$6,$7*
1,1,$1+$1,$8,$9*
0 Add four rect primitives between the rounded corners*
20,1,$1+$1,$2,$3,$4,$5,0*
20,1,$1+$1,$4,$5,$6,$7,0*
20,1,$1+$1,$6,$7,$8,$9,0*
20,1,$1+$1,$8,$9,$2,$3,0*%
G04 Aperture macros list end*
%ADD10R,3.000000X3.000000*%
%ADD11C,3.000000*%
%ADD12C,5.600000*%
%ADD13RoundRect,0.225000X-0.250000X0.225000X-0.250000X-0.225000X0.250000X-0.225000X0.250000X0.225000X0*%
%ADD14R,1.700000X1.700000*%
%ADD15C,1.700000*%
%ADD16C,1.448000*%
%ADD17O,1.864999X0.629997*%
%ADD18R,2.300000X3.100000*%
%ADD19RoundRect,0.250000X0.650000X-0.325000X0.650000X0.325000X-0.650000X0.325000X-0.650000X-0.325000X0*%
%ADD20RoundRect,0.250000X-0.650000X0.325000X-0.650000X-0.325000X0.650000X-0.325000X0.650000X0.325000X0*%
%ADD21RoundRect,0.135000X0.135000X0.185000X-0.135000X0.185000X-0.135000X-0.185000X0.135000X-0.185000X0*%
%ADD22RoundRect,0.225000X0.250000X-0.225000X0.250000X0.225000X-0.250000X0.225000X-0.250000X-0.225000X0*%
%ADD23RoundRect,0.250000X0.475000X-0.250000X0.475000X0.250000X-0.475000X0.250000X-0.475000X-0.250000X0*%
%ADD24R,3.500000X3.800000*%
%ADD25R,1.358903X1.500000*%
%ADD26RoundRect,0.200000X-0.200000X-0.275000X0.200000X-0.275000X0.200000X0.275000X-0.200000X0.275000X0*%
%ADD27RoundRect,0.250000X-0.325000X-0.650000X0.325000X-0.650000X0.325000X0.650000X-0.325000X0.650000X0*%
%ADD28RoundRect,0.135000X-0.135000X-0.185000X0.135000X-0.185000X0.135000X0.185000X-0.135000X0.185000X0*%
%ADD29R,1.510998X3.300000*%
%ADD30R,10.122022X10.020015*%
%ADD31RoundRect,0.250000X0.250000X0.475000X-0.250000X0.475000X-0.250000X-0.475000X0.250000X-0.475000X0*%
%ADD32R,2.000000X2.000000*%
%ADD33C,1.600000*%
%ADD34RoundRect,0.135000X-0.185000X0.135000X-0.185000X-0.135000X0.185000X-0.135000X0.185000X0.135000X0*%
%ADD35RoundRect,0.225000X0.225000X0.250000X-0.225000X0.250000X-0.225000X-0.250000X0.225000X-0.250000X0*%
%ADD36R,1.510998X4.500000*%
%ADD37R,10.800025X10.020015*%
%ADD38RoundRect,0.140000X-0.140000X-0.170000X0.140000X-0.170000X0.140000X0.170000X-0.140000X0.170000X0*%
G04 APERTURE END LIST*
D10*
%TO.C,CN11*%
X47500000Y-137459995D03*
D11*
X47500000Y-142540005D03*
%TD*%
D12*
%TO.C,B1*%
X154500000Y-60000000D03*
%TD*%
D10*
%TO.C,CN3*%
X47500000Y-73459995D03*
D11*
X47500000Y-78540005D03*
%TD*%
D13*
%TO.C,C16*%
X160000000Y-130000000D03*
X160000000Y-131550000D03*
%TD*%
D14*
%TO.C,U7*%
X91729997Y-104189992D03*
D15*
X94270003Y-104189992D03*
X91729997Y-106729997D03*
X94270003Y-106729997D03*
X91729997Y-109270003D03*
X94270003Y-109270003D03*
X91729997Y-111810008D03*
X94270003Y-111810008D03*
%TD*%
D16*
%TO.C,TH3*%
X185250000Y-145400000D03*
%TD*%
D12*
%TO.C,B4*%
X94500000Y-60000000D03*
%TD*%
D17*
%TO.C,U2*%
X164153493Y-102977293D03*
X164153493Y-104247295D03*
X164153493Y-105517298D03*
X164153493Y-106787300D03*
X169518492Y-106787300D03*
X169518492Y-105517298D03*
X169518492Y-104247295D03*
X169518492Y-102977293D03*
D18*
X166835992Y-104882296D03*
%TD*%
D14*
%TO.C,U6*%
X91729997Y-88189992D03*
D15*
X94270003Y-88189992D03*
X91729997Y-90729997D03*
X94270003Y-90729997D03*
X91729997Y-93270003D03*
X94270003Y-93270003D03*
X91729997Y-95810008D03*
X94270003Y-95810008D03*
%TD*%
D10*
%TO.C,CN5*%
X47500000Y-89459995D03*
D11*
X47500000Y-94540005D03*
%TD*%
D13*
%TO.C,C8*%
X182950000Y-59337500D03*
X182950000Y-60887500D03*
%TD*%
D19*
%TO.C,C6*%
X167800000Y-93975001D03*
X167800000Y-91024999D03*
%TD*%
D16*
%TO.C,TH1*%
X76200000Y-146150000D03*
%TD*%
D20*
%TO.C,C3*%
X130000000Y-108525000D03*
X130000000Y-111475000D03*
%TD*%
D21*
%TO.C,R2*%
X162400000Y-107950000D03*
X161380002Y-107950000D03*
%TD*%
D22*
%TO.C,C15*%
X180000000Y-140000000D03*
X180000000Y-138450000D03*
%TD*%
D13*
%TO.C,C2*%
X135000000Y-109225000D03*
X135000000Y-110775000D03*
%TD*%
D10*
%TO.C,CN1*%
X47500000Y-57459995D03*
D11*
X47500000Y-62540005D03*
%TD*%
D12*
%TO.C,B3*%
X94500000Y-140000000D03*
%TD*%
D23*
%TO.C,C4*%
X172150000Y-103999999D03*
X172150000Y-102100001D03*
%TD*%
D24*
%TO.C,L1*%
X160350000Y-98959004D03*
X160350000Y-89441096D03*
%TD*%
D10*
%TO.C,CN9*%
X47379991Y-121459995D03*
D11*
X47379991Y-126540005D03*
%TD*%
D25*
%TO.C,C17*%
X155000000Y-130000000D03*
X155000000Y-132399796D03*
%TD*%
D26*
%TO.C,R3*%
X159965001Y-106600000D03*
X161615001Y-106600000D03*
%TD*%
D19*
%TO.C,C14*%
X185000000Y-140525000D03*
X185000000Y-137575000D03*
%TD*%
D27*
%TO.C,C18*%
X148000000Y-100650000D03*
X150950000Y-100650000D03*
%TD*%
D28*
%TO.C,R1*%
X162550000Y-109050000D03*
X163569998Y-109050000D03*
%TD*%
D29*
%TO.C,U3*%
X177540005Y-60000000D03*
X175000000Y-60000000D03*
X172459995Y-60000000D03*
D30*
X175000000Y-69903734D03*
%TD*%
D31*
%TO.C,C19*%
X150799999Y-104750000D03*
X148900001Y-104750000D03*
%TD*%
D10*
%TO.C,CN7*%
X47500000Y-105459995D03*
D11*
X47500000Y-110540005D03*
%TD*%
D13*
%TO.C,C9*%
X165000000Y-59225000D03*
X165000000Y-60775000D03*
%TD*%
D20*
%TO.C,C21*%
X185900000Y-59274999D03*
X185900000Y-62225001D03*
%TD*%
D32*
%TO.C,D1*%
X167850102Y-97800000D03*
X172249898Y-97800000D03*
%TD*%
D33*
%TO.C,J1*%
X202190005Y-60629921D03*
X202190005Y-63169926D03*
X202190005Y-65709931D03*
X202190005Y-68249936D03*
X202190005Y-70789942D03*
X202190005Y-73329947D03*
X202190005Y-75869952D03*
X202190005Y-78409957D03*
X202190005Y-80949962D03*
X202190005Y-83489967D03*
X202190005Y-86029972D03*
X202190005Y-88569977D03*
X202190005Y-91109982D03*
X202190005Y-93649987D03*
X202190005Y-96189992D03*
X202190005Y-98729997D03*
X202190005Y-101270003D03*
X202190005Y-103810008D03*
X202190005Y-106350013D03*
X202190005Y-108890018D03*
X202190005Y-111430023D03*
X202190005Y-113970028D03*
X202190005Y-116510033D03*
X202190005Y-119050038D03*
X202190005Y-121590043D03*
X202190005Y-124130048D03*
X202190005Y-126670053D03*
X202190005Y-129210058D03*
X202190005Y-131750064D03*
X202190005Y-134290069D03*
X202190005Y-136830074D03*
X202190005Y-139370079D03*
X197109995Y-60629921D03*
X197109995Y-63169926D03*
X197109995Y-65709931D03*
X197109995Y-68249936D03*
X197109995Y-70789942D03*
X197109995Y-73329947D03*
X197109995Y-75869952D03*
X197109995Y-78409957D03*
X197109995Y-80949962D03*
X197109995Y-83489967D03*
X197109995Y-86029972D03*
X197109995Y-88569977D03*
X197109995Y-91109982D03*
X197109995Y-93649987D03*
X197109995Y-96189992D03*
X197109995Y-98729997D03*
X197109995Y-101270003D03*
X197109995Y-103810008D03*
X197109995Y-106350013D03*
X197109995Y-108890018D03*
X197109995Y-111430023D03*
X197109995Y-113970028D03*
X197109995Y-116510033D03*
X197109995Y-119050038D03*
X197109995Y-121590043D03*
X197109995Y-124130048D03*
X197109995Y-126670053D03*
X197109995Y-129210058D03*
X197109995Y-131750064D03*
X197109995Y-134290069D03*
X197109995Y-136830074D03*
X197109995Y-139370079D03*
%TD*%
D34*
%TO.C,R4*%
X171500000Y-105990001D03*
X171500000Y-107009999D03*
%TD*%
D13*
%TO.C,C12*%
X126700000Y-79525000D03*
X126700000Y-81075000D03*
%TD*%
D35*
%TO.C,C5*%
X168675000Y-101050000D03*
X167125000Y-101050000D03*
%TD*%
D13*
%TO.C,C11*%
X144350000Y-79300000D03*
X144350000Y-80850000D03*
%TD*%
D36*
%TO.C,U5*%
X167459995Y-140000000D03*
X170000000Y-140000000D03*
X172540005Y-140000000D03*
D37*
X170000000Y-129742443D03*
%TD*%
D19*
%TO.C,C22*%
X170800000Y-93975001D03*
X170800000Y-91024999D03*
%TD*%
D29*
%TO.C,U1*%
X147540005Y-109300000D03*
X145000000Y-109300000D03*
X142459995Y-109300000D03*
D30*
X145000000Y-119203734D03*
%TD*%
D22*
%TO.C,C1*%
X156800000Y-111025000D03*
X156800000Y-109475000D03*
%TD*%
D20*
%TO.C,C13*%
X121700000Y-78825000D03*
X121700000Y-81775000D03*
%TD*%
D16*
%TO.C,TH2*%
X120050000Y-54550000D03*
%TD*%
D38*
%TO.C,C7*%
X160300000Y-105050000D03*
X161260000Y-105050000D03*
%TD*%
D20*
%TO.C,C20*%
X147550000Y-79299998D03*
X147550000Y-82250000D03*
%TD*%
D29*
%TO.C,U4*%
X139240005Y-80300000D03*
X136700000Y-80300000D03*
X134159995Y-80300000D03*
D30*
X136700000Y-90203734D03*
%TD*%
D20*
%TO.C,C10*%
X161400000Y-59050000D03*
X161400000Y-62000000D03*
%TD*%
D12*
%TO.C,B2*%
X154500000Y-140000000D03*
%TD*%
M02*
