%TF.GenerationSoftware,KiCad,Pcbnew,10.0.3*%
%TF.CreationDate,2026-07-21T10:57:57+08:00*%
%TF.ProjectId,Combined_PowerSupply_v0.1,436f6d62-696e-4656-945f-506f77657253,rev?*%
%TF.SameCoordinates,Original*%
%TF.FileFunction,Copper,L1,Top*%
%TF.FilePolarity,Positive*%
%FSLAX46Y46*%
G04 Gerber Fmt 4.6, Leading zero omitted, Abs format (unit mm)*
G04 Created by KiCad (PCBNEW 10.0.3) date 2026-07-21 10:57:57*
%MOMM*%
%LPD*%
G01*
G04 APERTURE LIST*
G04 Aperture macros list*
%AMRoundRect*
0 Rectangle with rounded corners*
0 $1 Rounding radius*
0 $2 $3 $4 $5 $6 $7 $8 $9 X,Y pos of 4 corners*
0 Add a 4 corners polygon primitive as box body*
4,1,4,$2,$3,$4,$5,$6,$7,$8,$9,$2,$3,0*
0 Add four circle primitives for the rounded corners*
1,1,$1+$1,$2,$3*
1,1,$1+$1,$4,$5*
1,1,$1+$1,$6,$7*
1,1,$1+$1,$8,$9*
0 Add four rect primitives between the rounded corners*
20,1,$1+$1,$2,$3,$4,$5,0*
20,1,$1+$1,$4,$5,$6,$7,0*
20,1,$1+$1,$6,$7,$8,$9,0*
20,1,$1+$1,$8,$9,$2,$3,0*%
G04 Aperture macros list end*
%TA.AperFunction,ComponentPad*%
%ADD10R,3.000000X3.000000*%
%TD*%
%TA.AperFunction,ComponentPad*%
%ADD11C,3.000000*%
%TD*%
%TA.AperFunction,ComponentPad*%
%ADD12C,5.600000*%
%TD*%
%TA.AperFunction,SMDPad,CuDef*%
%ADD13RoundRect,0.225000X-0.250000X0.225000X-0.250000X-0.225000X0.250000X-0.225000X0.250000X0.225000X0*%
%TD*%
%TA.AperFunction,ComponentPad*%
%ADD14R,1.700000X1.700000*%
%TD*%
%TA.AperFunction,ComponentPad*%
%ADD15C,1.700000*%
%TD*%
%TA.AperFunction,SMDPad,CuDef*%
%ADD16O,1.864999X0.629997*%
%TD*%
%TA.AperFunction,SMDPad,CuDef*%
%ADD17R,2.300000X3.100000*%
%TD*%
%TA.AperFunction,SMDPad,CuDef*%
%ADD18RoundRect,0.250000X0.650000X-0.325000X0.650000X0.325000X-0.650000X0.325000X-0.650000X-0.325000X0*%
%TD*%
%TA.AperFunction,SMDPad,CuDef*%
%ADD19RoundRect,0.250000X-0.650000X0.325000X-0.650000X-0.325000X0.650000X-0.325000X0.650000X0.325000X0*%
%TD*%
%TA.AperFunction,SMDPad,CuDef*%
%ADD20RoundRect,0.135000X0.135000X0.185000X-0.135000X0.185000X-0.135000X-0.185000X0.135000X-0.185000X0*%
%TD*%
%TA.AperFunction,SMDPad,CuDef*%
%ADD21RoundRect,0.225000X0.250000X-0.225000X0.250000X0.225000X-0.250000X0.225000X-0.250000X-0.225000X0*%
%TD*%
%TA.AperFunction,SMDPad,CuDef*%
%ADD22RoundRect,0.250000X0.475000X-0.250000X0.475000X0.250000X-0.475000X0.250000X-0.475000X-0.250000X0*%
%TD*%
%TA.AperFunction,SMDPad,CuDef*%
%ADD23R,3.500000X3.800000*%
%TD*%
%TA.AperFunction,SMDPad,CuDef*%
%ADD24R,1.358903X1.500000*%
%TD*%
%TA.AperFunction,SMDPad,CuDef*%
%ADD25RoundRect,0.200000X-0.200000X-0.275000X0.200000X-0.275000X0.200000X0.275000X-0.200000X0.275000X0*%
%TD*%
%TA.AperFunction,SMDPad,CuDef*%
%ADD26RoundRect,0.250000X-0.325000X-0.650000X0.325000X-0.650000X0.325000X0.650000X-0.325000X0.650000X0*%
%TD*%
%TA.AperFunction,SMDPad,CuDef*%
%ADD27RoundRect,0.135000X-0.135000X-0.185000X0.135000X-0.185000X0.135000X0.185000X-0.135000X0.185000X0*%
%TD*%
%TA.AperFunction,SMDPad,CuDef*%
%ADD28R,1.510998X3.300000*%
%TD*%
%TA.AperFunction,SMDPad,CuDef*%
%ADD29R,10.122022X10.020015*%
%TD*%
%TA.AperFunction,SMDPad,CuDef*%
%ADD30RoundRect,0.250000X0.250000X0.475000X-0.250000X0.475000X-0.250000X-0.475000X0.250000X-0.475000X0*%
%TD*%
%TA.AperFunction,SMDPad,CuDef*%
%ADD31R,2.000000X2.000000*%
%TD*%
%TA.AperFunction,ComponentPad*%
%ADD32C,1.600000*%
%TD*%
%TA.AperFunction,SMDPad,CuDef*%
%ADD33RoundRect,0.135000X-0.185000X0.135000X-0.185000X-0.135000X0.185000X-0.135000X0.185000X0.135000X0*%
%TD*%
%TA.AperFunction,SMDPad,CuDef*%
%ADD34RoundRect,0.225000X0.225000X0.250000X-0.225000X0.250000X-0.225000X-0.250000X0.225000X-0.250000X0*%
%TD*%
%TA.AperFunction,SMDPad,CuDef*%
%ADD35R,1.510998X4.500000*%
%TD*%
%TA.AperFunction,SMDPad,CuDef*%
%ADD36R,10.800025X10.020015*%
%TD*%
%TA.AperFunction,SMDPad,CuDef*%
%ADD37RoundRect,0.140000X-0.140000X-0.170000X0.140000X-0.170000X0.140000X0.170000X-0.140000X0.170000X0*%
%TD*%
%TA.AperFunction,ViaPad*%
%ADD38C,0.600000*%
%TD*%
%TA.AperFunction,ViaPad*%
%ADD39C,1.200000*%
%TD*%
%TA.AperFunction,ViaPad*%
%ADD40C,0.800000*%
%TD*%
%TA.AperFunction,ViaPad*%
%ADD41C,0.500000*%
%TD*%
%TA.AperFunction,Conductor*%
%ADD42C,1.500000*%
%TD*%
%TA.AperFunction,Conductor*%
%ADD43C,0.500000*%
%TD*%
%TA.AperFunction,Conductor*%
%ADD44C,0.350000*%
%TD*%
%TA.AperFunction,Conductor*%
%ADD45C,1.000000*%
%TD*%
%TA.AperFunction,Conductor*%
%ADD46C,0.750000*%
%TD*%
%TA.AperFunction,Conductor*%
%ADD47C,2.000000*%
%TD*%
G04 APERTURE END LIST*
D10*
%TO.P,CN11,1,1_1*%
%TO.N,/+3V3*%
X47500000Y-137459995D03*
D11*
%TO.P,CN11,2,2_2*%
%TO.N,GNDA*%
X47500000Y-142540005D03*
%TD*%
D12*
%TO.P,B1,1,1_1*%
%TO.N,unconnected-(B1-Pad1)*%
X154500000Y-60000000D03*
%TD*%
D10*
%TO.P,CN3,1,1_1*%
%TO.N,/+12V*%
X47500000Y-73459995D03*
D11*
%TO.P,CN3,2,2_2*%
%TO.N,GNDA*%
X47500000Y-78540005D03*
%TD*%
D13*
%TO.P,C16,1*%
%TO.N,/+3V3*%
X160000000Y-130000000D03*
%TO.P,C16,2*%
%TO.N,GNDA*%
X160000000Y-131550000D03*
%TD*%
D14*
%TO.P,U7,1,1_1*%
%TO.N,Net-(CN7-Pad1)*%
X91729997Y-104189992D03*
D15*
%TO.P,U7,2,2_2*%
%TO.N,/+15V*%
X94270003Y-104189992D03*
%TO.P,U7,3,3_3*%
%TO.N,Net-(CN7-Pad1)*%
X91729997Y-106729997D03*
%TO.P,U7,4,4_4*%
%TO.N,/+12V*%
X94270003Y-106729997D03*
%TO.P,U7,5,5_5*%
%TO.N,Net-(CN7-Pad1)*%
X91729997Y-109270003D03*
%TO.P,U7,6,6_6*%
%TO.N,/+5V*%
X94270003Y-109270003D03*
%TO.P,U7,7,7_7*%
%TO.N,Net-(CN7-Pad1)*%
X91729997Y-111810008D03*
%TO.P,U7,8,8_8*%
%TO.N,/+3V3*%
X94270003Y-111810008D03*
%TD*%
D12*
%TO.P,B4,1,1_1*%
%TO.N,unconnected-(B4-Pad1)*%
X94500000Y-60000000D03*
%TD*%
D16*
%TO.P,U2,1,SW_1*%
%TO.N,Net-(D1-K)*%
X164153493Y-102977293D03*
%TO.P,U2,2,EN_2*%
%TO.N,unconnected-(U2-EN-Pad2)*%
X164153493Y-104247295D03*
%TO.P,U2,3,COMP_3*%
%TO.N,Net-(U2-COMP)*%
X164153493Y-105517298D03*
%TO.P,U2,4,FB_4*%
%TO.N,Net-(U2-FB)*%
X164153493Y-106787300D03*
%TO.P,U2,5,GND_5*%
%TO.N,GNDA*%
X169518492Y-106787300D03*
%TO.P,U2,6,FREQ_6*%
%TO.N,Net-(U2-FREQ)*%
X169518492Y-105517298D03*
%TO.P,U2,7,VIN_7*%
%TO.N,+24V*%
X169518492Y-104247295D03*
%TO.P,U2,8,BST_8*%
%TO.N,Net-(U2-BST)*%
X169518492Y-102977293D03*
D17*
%TO.P,U2,9,9_9*%
%TO.N,GNDA*%
X166835992Y-104882296D03*
%TD*%
D14*
%TO.P,U6,1,1_1*%
%TO.N,Net-(CN5-Pad1)*%
X91729997Y-88189992D03*
D15*
%TO.P,U6,2,2_2*%
%TO.N,/+15V*%
X94270003Y-88189992D03*
%TO.P,U6,3,3_3*%
%TO.N,Net-(CN5-Pad1)*%
X91729997Y-90729997D03*
%TO.P,U6,4,4_4*%
%TO.N,/+12V*%
X94270003Y-90729997D03*
%TO.P,U6,5,5_5*%
%TO.N,Net-(CN5-Pad1)*%
X91729997Y-93270003D03*
%TO.P,U6,6,6_6*%
%TO.N,/+5V*%
X94270003Y-93270003D03*
%TO.P,U6,7,7_7*%
%TO.N,Net-(CN5-Pad1)*%
X91729997Y-95810008D03*
%TO.P,U6,8,8_8*%
%TO.N,/+3V3*%
X94270003Y-95810008D03*
%TD*%
D10*
%TO.P,CN5,1,1_1*%
%TO.N,Net-(CN5-Pad1)*%
X47500000Y-89459995D03*
D11*
%TO.P,CN5,2,2_2*%
%TO.N,GNDA*%
X47500000Y-94540005D03*
%TD*%
D13*
%TO.P,C8,1*%
%TO.N,+24V*%
X182950000Y-59337500D03*
%TO.P,C8,2*%
%TO.N,GNDA*%
X182950000Y-60887500D03*
%TD*%
D18*
%TO.P,C6,1*%
%TO.N,GNDA*%
X167800000Y-93975001D03*
%TO.P,C6,2*%
%TO.N,/+9V*%
X167800000Y-91024999D03*
%TD*%
D19*
%TO.P,C3,1*%
%TO.N,/+5V*%
X130000000Y-108525000D03*
%TO.P,C3,2*%
%TO.N,GNDA*%
X130000000Y-111475000D03*
%TD*%
D20*
%TO.P,R2,1*%
%TO.N,Net-(U2-FB)*%
X162400000Y-107950000D03*
%TO.P,R2,2*%
%TO.N,GNDA*%
X161380002Y-107950000D03*
%TD*%
D21*
%TO.P,C15,1*%
%TO.N,/+9V*%
X180000000Y-140000000D03*
%TO.P,C15,2*%
%TO.N,GNDA*%
X180000000Y-138450000D03*
%TD*%
D13*
%TO.P,C2,1*%
%TO.N,/+5V*%
X135000000Y-109225000D03*
%TO.P,C2,2*%
%TO.N,GNDA*%
X135000000Y-110775000D03*
%TD*%
D10*
%TO.P,CN1,1,1_1*%
%TO.N,/+15V*%
X47500000Y-57459995D03*
D11*
%TO.P,CN1,2,2_2*%
%TO.N,GNDA*%
X47500000Y-62540005D03*
%TD*%
D12*
%TO.P,B3,1,1_1*%
%TO.N,unconnected-(B3-Pad1)*%
X94500000Y-140000000D03*
%TD*%
D22*
%TO.P,C4,1*%
%TO.N,+24V*%
X172150000Y-103999999D03*
%TO.P,C4,2*%
%TO.N,GNDA*%
X172150000Y-102100001D03*
%TD*%
D23*
%TO.P,L1,1,1_1*%
%TO.N,Net-(D1-K)*%
X160350000Y-98959004D03*
%TO.P,L1,2,2_2*%
%TO.N,/+9V*%
X160350000Y-89441096D03*
%TD*%
D10*
%TO.P,CN9,1,1_1*%
%TO.N,/+5V*%
X47379991Y-121459995D03*
D11*
%TO.P,CN9,2,2_2*%
%TO.N,GNDA*%
X47379991Y-126540005D03*
%TD*%
D24*
%TO.P,C17,1*%
%TO.N,/+3V3*%
X155000000Y-130000000D03*
%TO.P,C17,2*%
%TO.N,GNDA*%
X155000000Y-132399796D03*
%TD*%
D25*
%TO.P,R3,1*%
%TO.N,Net-(C7-Pad1)*%
X159965001Y-106600000D03*
%TO.P,R3,2*%
%TO.N,GNDA*%
X161615001Y-106600000D03*
%TD*%
D18*
%TO.P,C14,1*%
%TO.N,/+9V*%
X185000000Y-140525000D03*
%TO.P,C14,2*%
%TO.N,GNDA*%
X185000000Y-137575000D03*
%TD*%
D26*
%TO.P,C18,1*%
%TO.N,GNDA*%
X148000000Y-100650000D03*
%TO.P,C18,2*%
%TO.N,/+9V*%
X150950000Y-100650000D03*
%TD*%
D27*
%TO.P,R1,1*%
%TO.N,Net-(U2-FB)*%
X162550000Y-109050000D03*
%TO.P,R1,2*%
%TO.N,/+9V*%
X163569998Y-109050000D03*
%TD*%
D28*
%TO.P,U3,1,VCC_1*%
%TO.N,+24V*%
X177540005Y-60000000D03*
%TO.P,U3,2,GND_2*%
%TO.N,GNDA*%
X175000000Y-60000000D03*
%TO.P,U3,3,OUT_3*%
%TO.N,/+15V*%
X172459995Y-60000000D03*
D29*
%TO.P,U3,4,GND_4*%
%TO.N,GNDA*%
X175000000Y-69903734D03*
%TD*%
D30*
%TO.P,C19,1*%
%TO.N,/+9V*%
X150799999Y-104750000D03*
%TO.P,C19,2*%
%TO.N,GNDA*%
X148900001Y-104750000D03*
%TD*%
D10*
%TO.P,CN7,1,1_1*%
%TO.N,Net-(CN7-Pad1)*%
X47500000Y-105459995D03*
D11*
%TO.P,CN7,2,2_2*%
%TO.N,GNDA*%
X47500000Y-110540005D03*
%TD*%
D13*
%TO.P,C9,1*%
%TO.N,/+15V*%
X165000000Y-59225000D03*
%TO.P,C9,2*%
%TO.N,GNDA*%
X165000000Y-60775000D03*
%TD*%
D19*
%TO.P,C21,1*%
%TO.N,+24V*%
X185900000Y-59274999D03*
%TO.P,C21,2*%
%TO.N,GNDA*%
X185900000Y-62225001D03*
%TD*%
D31*
%TO.P,D1,1,K_1*%
%TO.N,Net-(D1-K)*%
X167850102Y-97800000D03*
%TO.P,D1,2,A_2*%
%TO.N,GNDA*%
X172249898Y-97800000D03*
%TD*%
D32*
%TO.P,J1,A1,A1_A1*%
%TO.N,unconnected-(J1-PadA1)*%
X202190005Y-60629921D03*
%TO.P,J1,A2,A2_A2*%
%TO.N,unconnected-(J1-PadA2)*%
X202190005Y-63169926D03*
%TO.P,J1,A3,A3_A3*%
%TO.N,GNDA*%
X202190005Y-65709931D03*
%TO.P,J1,A4,A4_A4*%
X202190005Y-68249936D03*
%TO.P,J1,A5,A5_A5*%
%TO.N,unconnected-(J1-PadA5)*%
X202190005Y-70789942D03*
%TO.P,J1,A6,A6_A6*%
%TO.N,unconnected-(J1-PadA6)*%
X202190005Y-73329947D03*
%TO.P,J1,A7,A7_A7*%
%TO.N,+24V*%
X202190005Y-75869952D03*
%TO.P,J1,A8,A8_A8*%
X202190005Y-78409957D03*
%TO.P,J1,A9,A9_A9*%
%TO.N,unconnected-(J1-PadA9)*%
X202190005Y-80949962D03*
%TO.P,J1,A10,A10_A10*%
%TO.N,unconnected-(J1-PadA10)*%
X202190005Y-83489967D03*
%TO.P,J1,A11,A11_A11*%
%TO.N,unconnected-(J1-PadA11)*%
X202190005Y-86029972D03*
%TO.P,J1,A12,A12_A12*%
%TO.N,unconnected-(J1-PadA12)*%
X202190005Y-88569977D03*
%TO.P,J1,A13,A13_A13*%
%TO.N,unconnected-(J1-PadA13)*%
X202190005Y-91109982D03*
%TO.P,J1,A14,A14_A14*%
%TO.N,unconnected-(J1-PadA14)*%
X202190005Y-93649987D03*
%TO.P,J1,A15,A15_A15*%
%TO.N,unconnected-(J1-PadA15)*%
X202190005Y-96189992D03*
%TO.P,J1,A16,A16_A16*%
%TO.N,unconnected-(J1-PadA16)*%
X202190005Y-98729997D03*
%TO.P,J1,A17,A17_A17*%
%TO.N,unconnected-(J1-PadA17)*%
X202190005Y-101270003D03*
%TO.P,J1,A18,A18_A18*%
%TO.N,unconnected-(J1-PadA18)*%
X202190005Y-103810008D03*
%TO.P,J1,A19,A19_A19*%
%TO.N,unconnected-(J1-PadA19)*%
X202190005Y-106350013D03*
%TO.P,J1,A20,A20_A20*%
%TO.N,unconnected-(J1-PadA20)*%
X202190005Y-108890018D03*
%TO.P,J1,A21,A21_A21*%
%TO.N,unconnected-(J1-PadA21)*%
X202190005Y-111430023D03*
%TO.P,J1,A22,A22_A22*%
%TO.N,unconnected-(J1-PadA22)*%
X202190005Y-113970028D03*
%TO.P,J1,A23,A23_A23*%
%TO.N,unconnected-(J1-PadA23)*%
X202190005Y-116510033D03*
%TO.P,J1,A24,A24_A24*%
%TO.N,unconnected-(J1-PadA24)*%
X202190005Y-119050038D03*
%TO.P,J1,A25,A25_A25*%
%TO.N,unconnected-(J1-PadA25)*%
X202190005Y-121590043D03*
%TO.P,J1,A26,A26_A26*%
%TO.N,unconnected-(J1-PadA26)*%
X202190005Y-124130048D03*
%TO.P,J1,A27,A27_A27*%
%TO.N,unconnected-(J1-PadA27)*%
X202190005Y-126670053D03*
%TO.P,J1,A28,A28_A28*%
%TO.N,unconnected-(J1-PadA28)*%
X202190005Y-129210058D03*
%TO.P,J1,A29,A29_A29*%
%TO.N,unconnected-(J1-PadA29)*%
X202190005Y-131750064D03*
%TO.P,J1,A30,A30_A30*%
%TO.N,unconnected-(J1-PadA30)*%
X202190005Y-134290069D03*
%TO.P,J1,A31,A31_A31*%
%TO.N,unconnected-(J1-PadA31)*%
X202190005Y-136830074D03*
%TO.P,J1,A32,A32_A32*%
%TO.N,unconnected-(J1-PadA32)*%
X202190005Y-139370079D03*
%TO.P,J1,C1,C1_C1*%
%TO.N,unconnected-(J1-PadC1)*%
X197109995Y-60629921D03*
%TO.P,J1,C2,C2_C2*%
%TO.N,unconnected-(J1-PadC2)*%
X197109995Y-63169926D03*
%TO.P,J1,C3,C3_C3*%
%TO.N,GNDA*%
X197109995Y-65709931D03*
%TO.P,J1,C4,C4_C4*%
X197109995Y-68249936D03*
%TO.P,J1,C5,C5_C5*%
%TO.N,unconnected-(J1-PadC5)*%
X197109995Y-70789942D03*
%TO.P,J1,C6,C6_C6*%
%TO.N,unconnected-(J1-PadC6)*%
X197109995Y-73329947D03*
%TO.P,J1,C7,C7_C7*%
%TO.N,unconnected-(J1-PadC7)*%
X197109995Y-75869952D03*
%TO.P,J1,C8,C8_C8*%
%TO.N,+24V*%
X197109995Y-78409957D03*
%TO.P,J1,C9,C9_C9*%
%TO.N,unconnected-(J1-PadC9)*%
X197109995Y-80949962D03*
%TO.P,J1,C10,C10_C10*%
%TO.N,unconnected-(J1-PadC10)*%
X197109995Y-83489967D03*
%TO.P,J1,C11,C11_C11*%
%TO.N,unconnected-(J1-PadC11)*%
X197109995Y-86029972D03*
%TO.P,J1,C12,C12_C12*%
%TO.N,unconnected-(J1-PadC12)*%
X197109995Y-88569977D03*
%TO.P,J1,C13,C13_C13*%
%TO.N,unconnected-(J1-PadC13)*%
X197109995Y-91109982D03*
%TO.P,J1,C14,C14_C14*%
%TO.N,unconnected-(J1-PadC14)*%
X197109995Y-93649987D03*
%TO.P,J1,C15,C15_C15*%
%TO.N,unconnected-(J1-PadC15)*%
X197109995Y-96189992D03*
%TO.P,J1,C16,C16_C16*%
%TO.N,unconnected-(J1-PadC16)*%
X197109995Y-98729997D03*
%TO.P,J1,C17,C17_C17*%
%TO.N,unconnected-(J1-PadC17)*%
X197109995Y-101270003D03*
%TO.P,J1,C18,C18_C18*%
%TO.N,unconnected-(J1-PadC18)*%
X197109995Y-103810008D03*
%TO.P,J1,C19,C19_C19*%
%TO.N,unconnected-(J1-PadC19)*%
X197109995Y-106350013D03*
%TO.P,J1,C20,C20_C20*%
%TO.N,unconnected-(J1-PadC20)*%
X197109995Y-108890018D03*
%TO.P,J1,C21,C21_C21*%
%TO.N,unconnected-(J1-PadC21)*%
X197109995Y-111430023D03*
%TO.P,J1,C22,C22_C22*%
%TO.N,unconnected-(J1-PadC22)*%
X197109995Y-113970028D03*
%TO.P,J1,C23,C23_C23*%
%TO.N,unconnected-(J1-PadC23)*%
X197109995Y-116510033D03*
%TO.P,J1,C24,C24_C24*%
%TO.N,unconnected-(J1-PadC24)*%
X197109995Y-119050038D03*
%TO.P,J1,C25,C25_C25*%
%TO.N,unconnected-(J1-PadC25)*%
X197109995Y-121590043D03*
%TO.P,J1,C26,C26_C26*%
%TO.N,unconnected-(J1-PadC26)*%
X197109995Y-124130048D03*
%TO.P,J1,C27,C27_C27*%
%TO.N,unconnected-(J1-PadC27)*%
X197109995Y-126670053D03*
%TO.P,J1,C28,C28_C28*%
%TO.N,unconnected-(J1-PadC28)*%
X197109995Y-129210058D03*
%TO.P,J1,C29,C29_C29*%
%TO.N,unconnected-(J1-PadC29)*%
X197109995Y-131750064D03*
%TO.P,J1,C30,C30_C30*%
%TO.N,unconnected-(J1-PadC30)*%
X197109995Y-134290069D03*
%TO.P,J1,C31,C31_C31*%
%TO.N,unconnected-(J1-PadC31)*%
X197109995Y-136830074D03*
%TO.P,J1,C32,C32_C32*%
%TO.N,unconnected-(J1-PadC32)*%
X197109995Y-139370079D03*
%TD*%
D33*
%TO.P,R4,1*%
%TO.N,Net-(U2-FREQ)*%
X171500000Y-105990001D03*
%TO.P,R4,2*%
%TO.N,GNDA*%
X171500000Y-107009999D03*
%TD*%
D13*
%TO.P,C12,1*%
%TO.N,/+12V*%
X126700000Y-79525000D03*
%TO.P,C12,2*%
%TO.N,GNDA*%
X126700000Y-81075000D03*
%TD*%
D34*
%TO.P,C5,1*%
%TO.N,Net-(U2-BST)*%
X168675000Y-101050000D03*
%TO.P,C5,2*%
%TO.N,Net-(D1-K)*%
X167125000Y-101050000D03*
%TD*%
D13*
%TO.P,C11,1*%
%TO.N,+24V*%
X144350000Y-79300000D03*
%TO.P,C11,2*%
%TO.N,GNDA*%
X144350000Y-80850000D03*
%TD*%
D35*
%TO.P,U5,1,ADJ/GND_1*%
%TO.N,GNDA*%
X167459995Y-140000000D03*
%TO.P,U5,2,VOUT_2*%
%TO.N,/+3V3*%
X170000000Y-140000000D03*
%TO.P,U5,3,VIN_3*%
%TO.N,/+9V*%
X172540005Y-140000000D03*
D36*
%TO.P,U5,4,TAB_4*%
%TO.N,/+3V3*%
X170000000Y-129742443D03*
%TD*%
D18*
%TO.P,C22,1*%
%TO.N,GNDA*%
X170800000Y-93975001D03*
%TO.P,C22,2*%
%TO.N,/+9V*%
X170800000Y-91024999D03*
%TD*%
D28*
%TO.P,U1,1,VCC_1*%
%TO.N,/+9V*%
X147540005Y-109300000D03*
%TO.P,U1,2,GND_2*%
%TO.N,GNDA*%
X145000000Y-109300000D03*
%TO.P,U1,3,OUT_3*%
%TO.N,/+5V*%
X142459995Y-109300000D03*
D29*
%TO.P,U1,4,GND_4*%
%TO.N,GNDA*%
X145000000Y-119203734D03*
%TD*%
D21*
%TO.P,C1,1*%
%TO.N,/+9V*%
X156800000Y-111025000D03*
%TO.P,C1,2*%
%TO.N,GNDA*%
X156800000Y-109475000D03*
%TD*%
D19*
%TO.P,C13,1*%
%TO.N,/+12V*%
X121700000Y-78825000D03*
%TO.P,C13,2*%
%TO.N,GNDA*%
X121700000Y-81775000D03*
%TD*%
D37*
%TO.P,C7,1*%
%TO.N,Net-(C7-Pad1)*%
X160300000Y-105050000D03*
%TO.P,C7,2*%
%TO.N,Net-(U2-COMP)*%
X161260000Y-105050000D03*
%TD*%
D19*
%TO.P,C20,1*%
%TO.N,+24V*%
X147550000Y-79299998D03*
%TO.P,C20,2*%
%TO.N,GNDA*%
X147550000Y-82250000D03*
%TD*%
D28*
%TO.P,U4,1,VCC_1*%
%TO.N,+24V*%
X139240005Y-80300000D03*
%TO.P,U4,2,GND_2*%
%TO.N,GNDA*%
X136700000Y-80300000D03*
%TO.P,U4,3,OUT_3*%
%TO.N,/+12V*%
X134159995Y-80300000D03*
D29*
%TO.P,U4,4,GND_4*%
%TO.N,GNDA*%
X136700000Y-90203734D03*
%TD*%
D19*
%TO.P,C10,1*%
%TO.N,/+15V*%
X161400000Y-59050000D03*
%TO.P,C10,2*%
%TO.N,GNDA*%
X161400000Y-62000000D03*
%TD*%
D12*
%TO.P,B2,1,1_1*%
%TO.N,unconnected-(B2-Pad1)*%
X154500000Y-140000000D03*
%TD*%
D38*
%TO.N,/+3V3*%
X165000000Y-137000000D03*
X165000000Y-117000000D03*
X163000000Y-123000000D03*
X171000000Y-133000000D03*
X173000000Y-121000000D03*
X163000000Y-131000000D03*
X175000000Y-135000000D03*
X177000000Y-131000000D03*
X165000000Y-121000000D03*
X167000000Y-133000000D03*
X171000000Y-125000000D03*
X169000000Y-117000000D03*
X165000000Y-127000000D03*
X165000000Y-135000000D03*
X165000000Y-125000000D03*
X177000000Y-123000000D03*
X171000000Y-121000000D03*
X173000000Y-135000000D03*
X175000000Y-127000000D03*
X165000000Y-119000000D03*
X163000000Y-127000000D03*
X167000000Y-117000000D03*
X169000000Y-125000000D03*
X175000000Y-129000000D03*
X177000000Y-119000000D03*
X169000000Y-131000000D03*
X165000000Y-133000000D03*
X175000000Y-131000000D03*
X165000000Y-131000000D03*
X167000000Y-131000000D03*
X171000000Y-119000000D03*
X171000000Y-129000000D03*
X171000000Y-131000000D03*
X171000000Y-123000000D03*
X173000000Y-129000000D03*
X163000000Y-117000000D03*
X177000000Y-127000000D03*
X167000000Y-119000000D03*
X169000000Y-135000000D03*
X177000000Y-135000000D03*
X169000000Y-127000000D03*
X169000000Y-121000000D03*
X177000000Y-137000000D03*
X173000000Y-131000000D03*
X163000000Y-121000000D03*
X167000000Y-125000000D03*
X175000000Y-137000000D03*
X171000000Y-127000000D03*
X167000000Y-127000000D03*
X177000000Y-125000000D03*
X173000000Y-119000000D03*
X167000000Y-135000000D03*
X173000000Y-117000000D03*
X177000000Y-121000000D03*
X169000000Y-119000000D03*
X165000000Y-129000000D03*
X163000000Y-125000000D03*
X163000000Y-135000000D03*
X175000000Y-125000000D03*
X167000000Y-129000000D03*
X173000000Y-125000000D03*
X169000000Y-123000000D03*
X177000000Y-129000000D03*
X163000000Y-129000000D03*
X175000000Y-133000000D03*
X167000000Y-123000000D03*
X173000000Y-127000000D03*
D39*
X151000000Y-130000000D03*
D38*
X173000000Y-123000000D03*
X173000000Y-137000000D03*
X177000000Y-117000000D03*
X163000000Y-119000000D03*
X175000000Y-121000000D03*
X177000000Y-133000000D03*
X169000000Y-137000000D03*
X169000000Y-129000000D03*
X171000000Y-117000000D03*
X175000000Y-123000000D03*
X165000000Y-123000000D03*
X171000000Y-135000000D03*
X173000000Y-133000000D03*
X175000000Y-119000000D03*
X169000000Y-133000000D03*
X175000000Y-117000000D03*
X171000000Y-137000000D03*
X167000000Y-121000000D03*
X167000000Y-137000000D03*
X163000000Y-133000000D03*
X163000000Y-137000000D03*
D40*
%TO.N,GNDA*%
X146400000Y-100650000D03*
X136700000Y-92300000D03*
X147500000Y-104800000D03*
D41*
X166050000Y-105400000D03*
D40*
X185950000Y-63750000D03*
X147500000Y-83750000D03*
X160000000Y-133550000D03*
X130700000Y-94300000D03*
D41*
X166850000Y-105400000D03*
D40*
X155000000Y-134399796D03*
D41*
X166050000Y-107800000D03*
D40*
X126700000Y-83300000D03*
X130000000Y-112500000D03*
X130700000Y-92300000D03*
X175000000Y-75000000D03*
D41*
X167650000Y-107000000D03*
X171093177Y-95273968D03*
D40*
X139000000Y-117000000D03*
X182950000Y-62612500D03*
X173000000Y-65000000D03*
X134700000Y-84300000D03*
X151000000Y-125000000D03*
X140700000Y-90300000D03*
D41*
X169600000Y-107600000D03*
D40*
X136700000Y-94300000D03*
X121700000Y-83300000D03*
D41*
X167650000Y-109400000D03*
D40*
X140700000Y-88300000D03*
X134700000Y-86300000D03*
X132700000Y-94300000D03*
D41*
X166850000Y-103800000D03*
D40*
X161400000Y-63075000D03*
X141000000Y-115000000D03*
X136700000Y-90300000D03*
X134700000Y-94300000D03*
X143000000Y-119000000D03*
X140700000Y-96300000D03*
X179000000Y-67000000D03*
X177000000Y-73000000D03*
X147000000Y-115000000D03*
X181000000Y-67000000D03*
X138700000Y-84300000D03*
X171000000Y-67000000D03*
D41*
X166050000Y-107000000D03*
D40*
X142700000Y-86300000D03*
X141000000Y-123000000D03*
D41*
X167093177Y-95273968D03*
D40*
X138700000Y-86300000D03*
X173000000Y-71000000D03*
X145000000Y-123000000D03*
X132700000Y-86300000D03*
X132700000Y-96300000D03*
X141000000Y-121000000D03*
D41*
X170800000Y-109000000D03*
X156300000Y-108450000D03*
D40*
X151000000Y-117000000D03*
D41*
X172000000Y-108000000D03*
D40*
X151000000Y-119000000D03*
X145000000Y-117000000D03*
D41*
X170400000Y-107600000D03*
D40*
X138700000Y-88300000D03*
X139000000Y-115000000D03*
X169000000Y-63000000D03*
X149000000Y-125000000D03*
X132700000Y-88300000D03*
D41*
X167650000Y-106200000D03*
D40*
X177000000Y-75000000D03*
X151000000Y-113000000D03*
D41*
X166050000Y-103800000D03*
X166850000Y-106200000D03*
X166850000Y-109400000D03*
D40*
X179000000Y-65000000D03*
X177000000Y-71000000D03*
D41*
X166850000Y-108600000D03*
D40*
X175000000Y-71000000D03*
X142700000Y-88300000D03*
D41*
X167809960Y-95312538D03*
D40*
X175000000Y-65000000D03*
X147000000Y-119000000D03*
X147000000Y-125000000D03*
X143000000Y-121000000D03*
X169000000Y-69000000D03*
X134700000Y-90300000D03*
D41*
X166050000Y-109400000D03*
D40*
X130700000Y-84300000D03*
D41*
X157000000Y-108450000D03*
D40*
X177000000Y-65000000D03*
X138700000Y-90300000D03*
X142700000Y-94300000D03*
X179000000Y-73000000D03*
X130700000Y-86300000D03*
X138700000Y-92300000D03*
D41*
X167650000Y-107800000D03*
D40*
X175000000Y-67000000D03*
D41*
X166850000Y-107000000D03*
X170750000Y-99600000D03*
D40*
X142700000Y-84300000D03*
X181000000Y-73000000D03*
X177000000Y-63000000D03*
X139000000Y-113000000D03*
X181000000Y-69000000D03*
X151000000Y-121000000D03*
D41*
X170000000Y-108200000D03*
D40*
X149000000Y-113000000D03*
X149000000Y-123000000D03*
X169000000Y-73000000D03*
X185000000Y-134500000D03*
X171000000Y-73000000D03*
X134700000Y-88300000D03*
X147000000Y-113000000D03*
X134700000Y-92300000D03*
X145000000Y-125000000D03*
D41*
X167650000Y-103800000D03*
X171600000Y-99600000D03*
X171400000Y-108000000D03*
X170293177Y-95223968D03*
D40*
X173000000Y-73000000D03*
X145000000Y-119000000D03*
X171000000Y-71000000D03*
X142700000Y-90300000D03*
D41*
X166050000Y-108600000D03*
D40*
X132700000Y-92300000D03*
X143000000Y-123000000D03*
D41*
X167650000Y-104600000D03*
D40*
X143000000Y-117000000D03*
X141000000Y-125000000D03*
X171000000Y-65000000D03*
D41*
X166050000Y-104600000D03*
D40*
X145000000Y-115000000D03*
D41*
X169393177Y-95323968D03*
D40*
X171000000Y-75000000D03*
X136700000Y-84300000D03*
D41*
X168650000Y-95300000D03*
D40*
X181000000Y-75000000D03*
X169000000Y-65000000D03*
X165000000Y-62500000D03*
X171000000Y-63000000D03*
X142700000Y-92300000D03*
X141000000Y-119000000D03*
X140700000Y-94300000D03*
X143000000Y-115000000D03*
D41*
X166000000Y-103000000D03*
X167600000Y-103000000D03*
D40*
X138700000Y-96300000D03*
X169000000Y-67000000D03*
X132700000Y-90300000D03*
X173000000Y-69000000D03*
D41*
X170800000Y-108400000D03*
D40*
X147000000Y-117000000D03*
X135000000Y-112500000D03*
X169000000Y-75000000D03*
D41*
X166050000Y-106200000D03*
D40*
X179000000Y-71000000D03*
X130700000Y-90300000D03*
X139000000Y-119000000D03*
X130700000Y-88300000D03*
D41*
X166850000Y-104600000D03*
X161300000Y-109000000D03*
D40*
X149000000Y-121000000D03*
X177000000Y-67000000D03*
X139000000Y-121000000D03*
X179000000Y-63000000D03*
X173000000Y-67000000D03*
X139000000Y-125000000D03*
X147000000Y-123000000D03*
X149000000Y-117000000D03*
X149000000Y-119000000D03*
X179000000Y-75000000D03*
X173000000Y-75000000D03*
X134700000Y-96300000D03*
X179000000Y-69000000D03*
X138700000Y-94300000D03*
X177000000Y-69000000D03*
X139000000Y-123000000D03*
X145000000Y-121000000D03*
X141000000Y-117000000D03*
X130700000Y-96300000D03*
D41*
X167650000Y-105400000D03*
D40*
X145000000Y-113000000D03*
X169000000Y-71000000D03*
X175000000Y-63000000D03*
X136700000Y-88300000D03*
X149000000Y-115000000D03*
X142700000Y-96300000D03*
X143000000Y-125000000D03*
D41*
X173565465Y-99646209D03*
X167650000Y-108600000D03*
D40*
X140700000Y-92300000D03*
X175000000Y-69000000D03*
X173000000Y-63000000D03*
X140700000Y-86300000D03*
X144350000Y-83075000D03*
X136700000Y-86300000D03*
X175000000Y-73000000D03*
X143000000Y-113000000D03*
X171000000Y-69000000D03*
D41*
X166800000Y-103000000D03*
D40*
X147000000Y-121000000D03*
D39*
X162500000Y-140000000D03*
D41*
X172550000Y-99550000D03*
X166850000Y-107800000D03*
D40*
X181000000Y-65000000D03*
D41*
X157750000Y-108450000D03*
D40*
X151000000Y-123000000D03*
X140700000Y-84300000D03*
X181000000Y-71000000D03*
X136700000Y-96300000D03*
X180000000Y-134500000D03*
X141000000Y-113000000D03*
X151000000Y-115000000D03*
X132700000Y-84300000D03*
D41*
X172600000Y-108000000D03*
D40*
X181000000Y-63000000D03*
D39*
%TO.N,/+15V*%
X153550000Y-68250000D03*
%TO.N,/+5V*%
X126000000Y-109000000D03*
D41*
%TO.N,/+9V*%
X166150000Y-90924999D03*
X163600000Y-109850000D03*
%TD*%
%TO.N,/+3V3*%
D42*
X170000000Y-129742443D02*
X170000000Y-140000000D01*
X169742443Y-130000000D02*
X170000000Y-129742443D01*
X51259995Y-133700000D02*
X147300000Y-133700000D01*
X155000000Y-130000000D02*
X160000000Y-130000000D01*
X160000000Y-130000000D02*
X169742443Y-130000000D01*
X151000000Y-130000000D02*
X155000000Y-130000000D01*
X47500000Y-137459995D02*
X51259995Y-133700000D01*
X147300000Y-133700000D02*
X151000000Y-130000000D01*
%TO.N,GNDA*%
D43*
X172150000Y-102100001D02*
X172150000Y-97899898D01*
X135000000Y-110775000D02*
X135000000Y-112500000D01*
X126700000Y-81075000D02*
X126700000Y-83300000D01*
X161400000Y-61475000D02*
X161400000Y-63075000D01*
X180000000Y-138450000D02*
X180000000Y-134500000D01*
D42*
X145000000Y-109300000D02*
X145000000Y-113000000D01*
D43*
X185000000Y-138100000D02*
X185000000Y-134500000D01*
X161615001Y-106600000D02*
X161300000Y-106915001D01*
X185950000Y-62275001D02*
X185900000Y-62225001D01*
X130000000Y-110950000D02*
X130000000Y-112500000D01*
D42*
X175000000Y-60000000D02*
X175000000Y-63000000D01*
D44*
X147500000Y-83750000D02*
X147500000Y-82300000D01*
D43*
X148900001Y-104750000D02*
X147550000Y-104750000D01*
X148000000Y-100650000D02*
X146400000Y-100650000D01*
X161300000Y-107869998D02*
X161380002Y-107950000D01*
X185950000Y-63750000D02*
X185950000Y-62275001D01*
D42*
X167459995Y-140000000D02*
X162500000Y-140000000D01*
D43*
X161380002Y-108919998D02*
X161300000Y-109000000D01*
X121700000Y-81250000D02*
X121700000Y-83300000D01*
X144350000Y-80850000D02*
X144350000Y-83075000D01*
X161380002Y-107950000D02*
X161380002Y-108919998D01*
D44*
X147500000Y-82300000D02*
X147550000Y-82250000D01*
D43*
X172150000Y-97899898D02*
X172249898Y-97800000D01*
X155000000Y-132399796D02*
X155000000Y-134399796D01*
D42*
X136700000Y-80300000D02*
X136700000Y-84300000D01*
D43*
X160000000Y-131550000D02*
X160000000Y-133550000D01*
X165000000Y-60775000D02*
X165000000Y-62500000D01*
X182950000Y-60887500D02*
X182950000Y-62612500D01*
X147550000Y-104750000D02*
X147500000Y-104800000D01*
X161300000Y-106915001D02*
X161300000Y-107869998D01*
%TO.N,/+12V*%
D42*
X108609995Y-73459995D02*
X114534995Y-79384995D01*
X121700000Y-79350000D02*
X126525000Y-79350000D01*
X94275583Y-90729997D02*
X94270003Y-90729997D01*
X94270003Y-106729997D02*
X95472084Y-106729997D01*
X126525000Y-79350000D02*
X126700000Y-79525000D01*
X133384995Y-79525000D02*
X134159995Y-80300000D01*
X47500000Y-73459995D02*
X108609995Y-73459995D01*
X95472084Y-106729997D02*
X104719990Y-97482091D01*
X104719990Y-97482091D02*
X104719990Y-89200000D01*
X121665005Y-79384995D02*
X114534995Y-79384995D01*
X104719990Y-89200000D02*
X95805580Y-89200000D01*
X126700000Y-79525000D02*
X133384995Y-79525000D01*
X114534995Y-79384995D02*
X104719990Y-89200000D01*
X121700000Y-79350000D02*
X121665005Y-79384995D01*
X95805580Y-89200000D02*
X94275583Y-90729997D01*
%TO.N,Net-(CN7-Pad1)*%
X91729997Y-104189992D02*
X48770003Y-104189992D01*
X91729997Y-106729997D02*
X91729997Y-109270003D01*
X91729997Y-104189992D02*
X91729997Y-106729997D01*
X91729997Y-109270003D02*
X91729997Y-111810008D01*
X48770003Y-104189992D02*
X47500000Y-105459995D01*
%TO.N,/+15V*%
X160400000Y-59000000D02*
X164775000Y-59000000D01*
X82200000Y-68250000D02*
X71409995Y-57459995D01*
X159100000Y-60300000D02*
X160400000Y-59000000D01*
X171684995Y-59225000D02*
X172459995Y-60000000D01*
X164775000Y-59000000D02*
X165000000Y-59225000D01*
X159100000Y-62700000D02*
X159100000Y-60300000D01*
X153550000Y-68250000D02*
X159100000Y-62700000D01*
X165000000Y-59225000D02*
X171684995Y-59225000D01*
X153550000Y-68250000D02*
X82200000Y-68250000D01*
X71409995Y-57459995D02*
X47500000Y-57459995D01*
%TO.N,/+5V*%
X134825000Y-109050000D02*
X135000000Y-109225000D01*
X101350013Y-109270003D02*
X113540005Y-121459995D01*
X94270003Y-109270003D02*
X101350013Y-109270003D01*
X113540005Y-121459995D02*
X126000000Y-109000000D01*
D45*
X142384995Y-109225000D02*
X142459995Y-109300000D01*
D42*
X135075000Y-109300000D02*
X135000000Y-109225000D01*
X130000000Y-109050000D02*
X134825000Y-109050000D01*
X47379991Y-121459995D02*
X113540005Y-121459995D01*
X126050000Y-109050000D02*
X126000000Y-109000000D01*
D45*
X142209995Y-109050000D02*
X142459995Y-109300000D01*
D42*
X142459995Y-109300000D02*
X135075000Y-109300000D01*
X130000000Y-109050000D02*
X126050000Y-109050000D01*
%TO.N,Net-(D1-K)*%
D43*
X164200000Y-100700000D02*
X164500000Y-100700000D01*
X164850000Y-101050000D02*
X167125000Y-101050000D01*
X162090996Y-100700000D02*
X164200000Y-100700000D01*
X160350000Y-98959004D02*
X162090996Y-100700000D01*
X164153493Y-100996507D02*
X164153493Y-102977293D01*
X164200000Y-100700000D02*
X164200000Y-100950000D01*
X164200000Y-100950000D02*
X164153493Y-100996507D01*
X167125000Y-101050000D02*
X167125000Y-98525102D01*
X164500000Y-100700000D02*
X164850000Y-101050000D01*
X167125000Y-98525102D02*
X167850102Y-97800000D01*
%TO.N,Net-(U2-COMP)*%
X161260000Y-105050000D02*
X161710000Y-105500000D01*
X164136195Y-105500000D02*
X164153493Y-105517298D01*
X161710000Y-105500000D02*
X164136195Y-105500000D01*
%TO.N,Net-(U2-FB)*%
X163562700Y-106787300D02*
X162400000Y-107950000D01*
X164153493Y-106787300D02*
X163562700Y-106787300D01*
X162400000Y-108900000D02*
X162550000Y-109050000D01*
X162400000Y-107950000D02*
X162400000Y-108900000D01*
%TO.N,Net-(U2-FREQ)*%
X169518492Y-105517298D02*
X169951194Y-105950000D01*
X169951194Y-105950000D02*
X171459999Y-105950000D01*
X171459999Y-105950000D02*
X171500000Y-105990001D01*
%TO.N,+24V*%
D42*
X140015005Y-79525000D02*
X140315005Y-79225000D01*
X190975000Y-79225000D02*
X191000000Y-79200000D01*
D46*
X172150000Y-103999999D02*
X171594591Y-103999999D01*
D42*
X178315005Y-59225000D02*
X185000000Y-59225000D01*
D46*
X171594591Y-103999999D02*
X171347295Y-104247295D01*
D42*
X139240005Y-80300000D02*
X140015005Y-79525000D01*
D43*
X191000000Y-59700000D02*
X191000000Y-79200000D01*
D42*
X172449999Y-103999999D02*
X173750000Y-105300000D01*
X185000000Y-59225000D02*
X190525000Y-59225000D01*
X177540005Y-60000000D02*
X178315005Y-59225000D01*
X172150000Y-103999999D02*
X172449999Y-103999999D01*
D43*
X191790043Y-78409957D02*
X197109995Y-78409957D01*
X190975000Y-79225000D02*
X191790043Y-78409957D01*
X191200000Y-105300000D02*
X191200000Y-79450000D01*
D46*
X171347295Y-104247295D02*
X169518492Y-104247295D01*
D42*
X155000000Y-79225000D02*
X190975000Y-79225000D01*
X140315005Y-79225000D02*
X155000000Y-79225000D01*
D43*
X191200000Y-79450000D02*
X190975000Y-79225000D01*
D42*
X190525000Y-59225000D02*
X191000000Y-59700000D01*
X173750000Y-105300000D02*
X191200000Y-105300000D01*
%TO.N,Net-(U2-BST)*%
D43*
X169550000Y-101700000D02*
X168900000Y-101050000D01*
X168900000Y-101050000D02*
X168675000Y-101050000D01*
X169518492Y-102943492D02*
X169550000Y-102911984D01*
X169518492Y-102977293D02*
X169518492Y-102943492D01*
X169550000Y-102911984D02*
X169550000Y-101700000D01*
%TO.N,Net-(CN5-Pad1)*%
D42*
X91729997Y-90729997D02*
X91729997Y-93270003D01*
X48770003Y-88189992D02*
X47500000Y-89459995D01*
X91729997Y-95810008D02*
X91729997Y-93270003D01*
X91729997Y-88189992D02*
X48770003Y-88189992D01*
X91729997Y-90729997D02*
X91729997Y-88189992D01*
%TO.N,/+9V*%
X152150000Y-109300000D02*
X151050000Y-109300000D01*
X180000000Y-140000000D02*
X172540005Y-140000000D01*
D43*
X163600000Y-109850000D02*
X163600000Y-109080002D01*
D42*
X189550000Y-116250000D02*
X184750000Y-111450000D01*
D47*
X153658904Y-89441096D02*
X160350000Y-89441096D01*
D42*
X151050000Y-109300000D02*
X147540005Y-109300000D01*
X188300000Y-140000000D02*
X189550000Y-138750000D01*
D43*
X163600000Y-109080002D02*
X163569998Y-109050000D01*
X166150000Y-90924999D02*
X161833903Y-90924999D01*
D42*
X154300000Y-111450000D02*
X152150000Y-109300000D01*
X185000000Y-140000000D02*
X188300000Y-140000000D01*
X184750000Y-111450000D02*
X154300000Y-111450000D01*
D43*
X161833903Y-90924999D02*
X160350000Y-89441096D01*
D42*
X180000000Y-140000000D02*
X185000000Y-140000000D01*
D47*
X151050000Y-109300000D02*
X151050000Y-92050000D01*
X151050000Y-92050000D02*
X153658904Y-89441096D01*
D42*
X189550000Y-138750000D02*
X189550000Y-116250000D01*
%TO.N,Net-(C7-Pad1)*%
D43*
X160300000Y-105050000D02*
X160300000Y-106265001D01*
X160270000Y-105600000D02*
X160270000Y-105080000D01*
X159965001Y-106600000D02*
X160130002Y-106600000D01*
X160270000Y-105080000D02*
X160300000Y-105050000D01*
X160300000Y-106265001D02*
X159965001Y-106600000D01*
%TD*%
%TA.AperFunction,Conductor*%
%TO.N,GNDA*%
G36*
X162777578Y-102719685D02*
G01*
X162823333Y-102772489D01*
X162833277Y-102841647D01*
X162832156Y-102848191D01*
X162820494Y-102906818D01*
X162820494Y-103047767D01*
X162847988Y-103185988D01*
X162847990Y-103185996D01*
X162901925Y-103316206D01*
X162980229Y-103433398D01*
X163071444Y-103524613D01*
X163104929Y-103585936D01*
X163099945Y-103655628D01*
X163071444Y-103699975D01*
X162980230Y-103791188D01*
X162980229Y-103791189D01*
X162901925Y-103908381D01*
X162847990Y-104038591D01*
X162847988Y-104038599D01*
X162820494Y-104176820D01*
X162820494Y-104317769D01*
X162847988Y-104455990D01*
X162847990Y-104455998D01*
X162901925Y-104586209D01*
X162948965Y-104656609D01*
X162969843Y-104723287D01*
X162951358Y-104790667D01*
X162899379Y-104837357D01*
X162845863Y-104849500D01*
X162051568Y-104849500D01*
X161984529Y-104829815D01*
X161938774Y-104777011D01*
X161931348Y-104755884D01*
X161930068Y-104750820D01*
X161875563Y-104612607D01*
X161875562Y-104612605D01*
X161828466Y-104550499D01*
X161785785Y-104494215D01*
X161672876Y-104408594D01*
X161667394Y-104404437D01*
X161667392Y-104404436D01*
X161529175Y-104349930D01*
X161516766Y-104348440D01*
X161442320Y-104339500D01*
X161077680Y-104339500D01*
X161012539Y-104347322D01*
X160990824Y-104349930D01*
X160852608Y-104404436D01*
X160845214Y-104408594D01*
X160844183Y-104406761D01*
X160789610Y-104427502D01*
X160721247Y-104413072D01*
X160710731Y-104406314D01*
X160707391Y-104404436D01*
X160569175Y-104349930D01*
X160556766Y-104348440D01*
X160482320Y-104339500D01*
X160117680Y-104339500D01*
X160052539Y-104347322D01*
X160030824Y-104349930D01*
X159892607Y-104404436D01*
X159892605Y-104404437D01*
X159774215Y-104494215D01*
X159684437Y-104612605D01*
X159684436Y-104612607D01*
X159629930Y-104750824D01*
X159627322Y-104772539D01*
X159619500Y-104837680D01*
X159619500Y-104837686D01*
X159619500Y-105652437D01*
X159599815Y-105719476D01*
X159547011Y-105765231D01*
X159542953Y-105766998D01*
X159462161Y-105800463D01*
X159336719Y-105896718D01*
X159240464Y-106022160D01*
X159179957Y-106168237D01*
X159179956Y-106168239D01*
X159164501Y-106285638D01*
X159164501Y-106914363D01*
X159179954Y-107031753D01*
X159179957Y-107031762D01*
X159240465Y-107177841D01*
X159336719Y-107303282D01*
X159462160Y-107399536D01*
X159608239Y-107460044D01*
X159725640Y-107475500D01*
X160204361Y-107475499D01*
X160204364Y-107475499D01*
X160321754Y-107460046D01*
X160321758Y-107460044D01*
X160321763Y-107460044D01*
X160467842Y-107399536D01*
X160593283Y-107303282D01*
X160689537Y-107177841D01*
X160750045Y-107031762D01*
X160765501Y-106914361D01*
X160765500Y-106770808D01*
X160785184Y-106703769D01*
X160801820Y-106683125D01*
X160805276Y-106679670D01*
X160876465Y-106573128D01*
X160925501Y-106454745D01*
X160926766Y-106448385D01*
X160945753Y-106352933D01*
X160950500Y-106329071D01*
X160950500Y-105959808D01*
X160970185Y-105892769D01*
X161022989Y-105847014D01*
X161092147Y-105837070D01*
X161155703Y-105866095D01*
X161162167Y-105872113D01*
X161295331Y-106005277D01*
X161361518Y-106049501D01*
X161401873Y-106076465D01*
X161520256Y-106125501D01*
X161520260Y-106125501D01*
X161520261Y-106125502D01*
X161645928Y-106150500D01*
X161645931Y-106150500D01*
X162868978Y-106150500D01*
X162936017Y-106170185D01*
X162981772Y-106222989D01*
X162991716Y-106292147D01*
X162972081Y-106343390D01*
X162901924Y-106448386D01*
X162854978Y-106561726D01*
X162828098Y-106601954D01*
X162227801Y-107202251D01*
X162166478Y-107235736D01*
X162154907Y-107237685D01*
X162137025Y-107239832D01*
X162000075Y-107293838D01*
X161882783Y-107382783D01*
X161793838Y-107500075D01*
X161739833Y-107637022D01*
X161729500Y-107723072D01*
X161729500Y-108176919D01*
X161739833Y-108262977D01*
X161739834Y-108262979D01*
X161740854Y-108265566D01*
X161749500Y-108311056D01*
X161749500Y-108964069D01*
X161749500Y-108964071D01*
X161749499Y-108964071D01*
X161774497Y-109089738D01*
X161774499Y-109089744D01*
X161823535Y-109208128D01*
X161865213Y-109270505D01*
X161885225Y-109324608D01*
X161889832Y-109362972D01*
X161889833Y-109362975D01*
X161889833Y-109362976D01*
X161889834Y-109362979D01*
X161900705Y-109390546D01*
X161943838Y-109499924D01*
X161998975Y-109572633D01*
X162023798Y-109637944D01*
X162009370Y-109706308D01*
X161960272Y-109756019D01*
X161900628Y-109771557D01*
X155237069Y-109796116D01*
X155169957Y-109776679D01*
X155124008Y-109724044D01*
X155112614Y-109672578D01*
X155091850Y-104038599D01*
X155087375Y-102824457D01*
X155106812Y-102757345D01*
X155159447Y-102711396D01*
X155211374Y-102700000D01*
X162710539Y-102700000D01*
X162777578Y-102719685D01*
G37*
%TD.AperFunction*%
%TA.AperFunction,Conductor*%
G36*
X168043039Y-102719685D02*
G01*
X168088794Y-102772489D01*
X168100000Y-102824000D01*
X168100000Y-106300000D01*
X169329886Y-106300000D01*
X169396925Y-106319685D01*
X169417562Y-106336314D01*
X169536525Y-106455277D01*
X169596392Y-106495278D01*
X169643067Y-106526465D01*
X169761450Y-106575501D01*
X169761454Y-106575501D01*
X169761455Y-106575502D01*
X169887122Y-106600500D01*
X169887125Y-106600500D01*
X171037506Y-106600500D01*
X171082995Y-106609145D01*
X171187021Y-106650167D01*
X171273073Y-106660501D01*
X171726926Y-106660500D01*
X171812979Y-106650167D01*
X171949922Y-106596164D01*
X172067216Y-106507217D01*
X172156163Y-106389923D01*
X172160663Y-106378510D01*
X172203569Y-106323366D01*
X172269476Y-106300173D01*
X172276018Y-106300000D01*
X172776000Y-106300000D01*
X172843039Y-106319685D01*
X172888794Y-106372489D01*
X172900000Y-106424000D01*
X172900000Y-108198344D01*
X172880315Y-108265383D01*
X172827511Y-108311138D01*
X172800318Y-108319936D01*
X171900000Y-108499999D01*
X171899999Y-108500000D01*
X171854762Y-109630956D01*
X171832414Y-109697155D01*
X171777823Y-109740763D01*
X171730861Y-109750000D01*
X170550803Y-109750000D01*
X170549271Y-109749991D01*
X169906639Y-109742052D01*
X164374957Y-109762439D01*
X164307845Y-109743002D01*
X164261896Y-109690367D01*
X164250500Y-109638440D01*
X164250500Y-109015932D01*
X164242880Y-108977627D01*
X164240497Y-108953434D01*
X164240497Y-108823080D01*
X164240497Y-108823074D01*
X164230164Y-108737021D01*
X164176161Y-108600078D01*
X164138564Y-108550499D01*
X164087214Y-108482783D01*
X163969922Y-108393838D01*
X163969920Y-108393837D01*
X163832977Y-108339834D01*
X163832976Y-108339833D01*
X163746925Y-108329500D01*
X163393078Y-108329500D01*
X163332878Y-108336728D01*
X163307019Y-108339834D01*
X163248700Y-108362831D01*
X163239814Y-108366336D01*
X163170227Y-108372617D01*
X163108291Y-108340279D01*
X163073670Y-108279590D01*
X163077357Y-108209818D01*
X163106642Y-108163302D01*
X163730829Y-107539117D01*
X163792152Y-107505632D01*
X163818510Y-107502798D01*
X164841465Y-107502798D01*
X164841466Y-107502797D01*
X164979697Y-107475302D01*
X165109909Y-107421366D01*
X165227097Y-107343064D01*
X165326758Y-107243403D01*
X165405060Y-107126215D01*
X165458996Y-106996003D01*
X165486492Y-106857770D01*
X165486492Y-106716830D01*
X165458996Y-106578597D01*
X165405060Y-106448385D01*
X165326758Y-106331197D01*
X165326756Y-106331194D01*
X165235542Y-106239980D01*
X165202057Y-106178657D01*
X165207041Y-106108965D01*
X165235542Y-106064618D01*
X165326755Y-105973404D01*
X165326756Y-105973403D01*
X165326758Y-105973401D01*
X165405060Y-105856213D01*
X165458996Y-105726001D01*
X165486492Y-105587768D01*
X165486492Y-105446828D01*
X165458996Y-105308595D01*
X165405060Y-105178383D01*
X165326758Y-105061195D01*
X165326756Y-105061192D01*
X165235541Y-104969977D01*
X165202056Y-104908654D01*
X165207040Y-104838962D01*
X165235539Y-104794616D01*
X165326758Y-104703398D01*
X165405060Y-104586210D01*
X165458996Y-104455998D01*
X165486492Y-104317765D01*
X165486492Y-104176825D01*
X165458996Y-104038592D01*
X165405060Y-103908380D01*
X165326758Y-103791192D01*
X165326756Y-103791189D01*
X165235542Y-103699975D01*
X165202057Y-103638652D01*
X165207041Y-103568960D01*
X165235542Y-103524613D01*
X165326755Y-103433399D01*
X165326756Y-103433398D01*
X165326758Y-103433396D01*
X165405060Y-103316208D01*
X165458996Y-103185996D01*
X165486492Y-103047763D01*
X165486492Y-102906823D01*
X165475090Y-102849499D01*
X165474830Y-102848191D01*
X165481057Y-102778599D01*
X165523920Y-102723422D01*
X165589810Y-102700178D01*
X165596447Y-102700000D01*
X167976000Y-102700000D01*
X168043039Y-102719685D01*
G37*
%TD.AperFunction*%
%TD*%
%TA.AperFunction,Conductor*%
%TO.N,Net-(D1-K)*%
G36*
X169644228Y-96253158D02*
G01*
X169711259Y-96272870D01*
X169756992Y-96325692D01*
X169768174Y-96376336D01*
X169770703Y-96757891D01*
X169770703Y-96757892D01*
X169773263Y-97144500D01*
X169783528Y-98694499D01*
X169784541Y-98847470D01*
X169788397Y-99429896D01*
X169769157Y-99497064D01*
X169716657Y-99543168D01*
X169667578Y-99554676D01*
X167900000Y-99599998D01*
X167900000Y-100450641D01*
X167895605Y-100483363D01*
X167887127Y-100514352D01*
X167874255Y-100544749D01*
X167871385Y-100549600D01*
X167871381Y-100549609D01*
X167871378Y-100549616D01*
X167827293Y-100701360D01*
X167827292Y-100701366D01*
X167827290Y-100701379D01*
X167824500Y-100736829D01*
X167824500Y-101363150D01*
X167824501Y-101363175D01*
X167824502Y-101363187D01*
X167827289Y-101398619D01*
X167827328Y-101398809D01*
X167827496Y-101399334D01*
X167871382Y-101550390D01*
X167881343Y-101567234D01*
X167885597Y-101580498D01*
X167885637Y-101582128D01*
X167887126Y-101585644D01*
X167895605Y-101616636D01*
X167900000Y-101649358D01*
X167900000Y-102110726D01*
X167894975Y-102145670D01*
X167890570Y-102160668D01*
X167880938Y-102175659D01*
X167875931Y-102192731D01*
X167852827Y-102219411D01*
X167850939Y-102221048D01*
X167797330Y-102248245D01*
X167790945Y-102249704D01*
X167765905Y-102252793D01*
X165765293Y-102294473D01*
X165762710Y-102294500D01*
X165596447Y-102294500D01*
X165594836Y-102294521D01*
X165585530Y-102294646D01*
X165578948Y-102294822D01*
X165578930Y-102294824D01*
X165567338Y-102296968D01*
X165567339Y-102296969D01*
X165557427Y-102298803D01*
X165500000Y-102300000D01*
X165499524Y-102309518D01*
X165454915Y-102317773D01*
X165389020Y-102341018D01*
X165389014Y-102341021D01*
X165296235Y-102387877D01*
X165296234Y-102387878D01*
X165203690Y-102474658D01*
X165160824Y-102529840D01*
X165160822Y-102529842D01*
X165108106Y-102619419D01*
X165108104Y-102619423D01*
X165077172Y-102742453D01*
X165070944Y-102812056D01*
X165077120Y-102927290D01*
X165077121Y-102927297D01*
X165078609Y-102934775D01*
X165080992Y-102958967D01*
X165080992Y-102995610D01*
X165078609Y-103019803D01*
X165071460Y-103055740D01*
X165064404Y-103079000D01*
X165050385Y-103112845D01*
X165038925Y-103134284D01*
X165018565Y-103164754D01*
X165003148Y-103183540D01*
X164948813Y-103237878D01*
X164948807Y-103237885D01*
X164894415Y-103305380D01*
X164894407Y-103305392D01*
X164865912Y-103349730D01*
X164831309Y-103416458D01*
X164831307Y-103416464D01*
X164826793Y-103435880D01*
X164792437Y-103496720D01*
X164730643Y-103529327D01*
X164706015Y-103531797D01*
X163598263Y-103531797D01*
X163531224Y-103512112D01*
X163485469Y-103459308D01*
X163481481Y-103449485D01*
X163460828Y-103391600D01*
X163437965Y-103349730D01*
X163427346Y-103330282D01*
X163427341Y-103330274D01*
X163358182Y-103237888D01*
X163358166Y-103237870D01*
X163303839Y-103183544D01*
X163288417Y-103164753D01*
X163268061Y-103134288D01*
X163256601Y-103112848D01*
X163242577Y-103078990D01*
X163235524Y-103055740D01*
X163228375Y-103019799D01*
X163225994Y-102995617D01*
X163225994Y-102958970D01*
X163228377Y-102934776D01*
X163229864Y-102927303D01*
X163231834Y-102916657D01*
X163232955Y-102910113D01*
X163234649Y-102783935D01*
X163224705Y-102714777D01*
X163196849Y-102614640D01*
X163129789Y-102506943D01*
X163129788Y-102506942D01*
X163129787Y-102506940D01*
X163084040Y-102454145D01*
X163084036Y-102454141D01*
X163084034Y-102454139D01*
X163006462Y-102384958D01*
X163006460Y-102384957D01*
X163006459Y-102384956D01*
X162891826Y-102330611D01*
X162824786Y-102310926D01*
X162824780Y-102310924D01*
X162714110Y-102295013D01*
X162650554Y-102265988D01*
X162612780Y-102207210D01*
X162607774Y-102174307D01*
X162600000Y-101700002D01*
X162600000Y-101700000D01*
X162599999Y-101699999D01*
X153943238Y-101749184D01*
X153943238Y-101749185D01*
X153943237Y-101749184D01*
X153943236Y-101749185D01*
X153908275Y-101744361D01*
X153893253Y-101740043D01*
X153834261Y-101702606D01*
X153834238Y-101702579D01*
X153833291Y-101701498D01*
X153805396Y-101646146D01*
X153803615Y-101637959D01*
X153800783Y-101610902D01*
X153801124Y-101550386D01*
X153807223Y-100467296D01*
X153830193Y-96387922D01*
X153835411Y-96353026D01*
X153839902Y-96338044D01*
X153847940Y-96325692D01*
X153878001Y-96279489D01*
X153879509Y-96278197D01*
X153934192Y-96251117D01*
X153941471Y-96249557D01*
X153967501Y-96246804D01*
X169644228Y-96253158D01*
G37*
%TD.AperFunction*%
%TD*%
%TA.AperFunction,Conductor*%
%TO.N,+24V*%
G36*
X204543808Y-58170038D02*
G01*
X204589894Y-58222553D01*
X204601417Y-58273347D01*
X204848558Y-79774575D01*
X204829645Y-79841836D01*
X204777370Y-79888195D01*
X204724566Y-79900000D01*
X202593919Y-79900000D01*
X202526880Y-79880315D01*
X202481125Y-79827511D01*
X202471181Y-79758353D01*
X202500206Y-79694797D01*
X202555600Y-79658069D01*
X202689036Y-79614712D01*
X202871354Y-79521816D01*
X202915926Y-79489431D01*
X202360249Y-78933754D01*
X202402302Y-78922487D01*
X202527721Y-78850077D01*
X202630125Y-78747673D01*
X202702535Y-78622254D01*
X202713802Y-78580201D01*
X203269479Y-79135878D01*
X203301864Y-79091306D01*
X203394760Y-78908988D01*
X203457995Y-78714374D01*
X203490005Y-78512274D01*
X203490005Y-78307639D01*
X203457995Y-78105539D01*
X203394760Y-77910925D01*
X203301864Y-77728607D01*
X203269479Y-77684034D01*
X203269479Y-77684033D01*
X202713802Y-78239710D01*
X202702535Y-78197660D01*
X202630125Y-78072241D01*
X202527721Y-77969837D01*
X202402302Y-77897427D01*
X202360249Y-77886158D01*
X202915927Y-77330481D01*
X202915926Y-77330480D01*
X202871364Y-77298104D01*
X202871355Y-77298098D01*
X202777819Y-77250439D01*
X202727023Y-77202464D01*
X202710228Y-77134643D01*
X202732765Y-77068508D01*
X202777820Y-77029469D01*
X202871351Y-76981813D01*
X202871352Y-76981813D01*
X202915926Y-76949426D01*
X202360249Y-76393749D01*
X202402302Y-76382482D01*
X202527721Y-76310072D01*
X202630125Y-76207668D01*
X202702535Y-76082249D01*
X202713802Y-76040196D01*
X203269479Y-76595873D01*
X203301864Y-76551301D01*
X203394760Y-76368983D01*
X203457995Y-76174369D01*
X203490005Y-75972269D01*
X203490005Y-75767634D01*
X203457995Y-75565534D01*
X203394760Y-75370920D01*
X203301864Y-75188602D01*
X203269479Y-75144029D01*
X203269479Y-75144028D01*
X202713802Y-75699705D01*
X202702535Y-75657655D01*
X202630125Y-75532236D01*
X202527721Y-75429832D01*
X202402302Y-75357422D01*
X202360249Y-75346153D01*
X202915927Y-74790476D01*
X202915926Y-74790475D01*
X202871364Y-74758099D01*
X202871355Y-74758093D01*
X202689036Y-74665196D01*
X202528383Y-74612996D01*
X202470708Y-74573558D01*
X202443510Y-74509199D01*
X202455425Y-74440353D01*
X202502670Y-74388877D01*
X202528377Y-74377137D01*
X202612450Y-74349820D01*
X202766793Y-74271179D01*
X202906933Y-74169361D01*
X203029419Y-74046875D01*
X203131237Y-73906735D01*
X203209878Y-73752392D01*
X203263407Y-73587648D01*
X203290505Y-73416558D01*
X203290505Y-73243336D01*
X203263407Y-73072246D01*
X203209878Y-72907502D01*
X203131237Y-72753159D01*
X203029419Y-72613019D01*
X202906933Y-72490533D01*
X202766793Y-72388715D01*
X202612450Y-72310074D01*
X202447706Y-72256545D01*
X202447704Y-72256544D01*
X202447703Y-72256544D01*
X202316276Y-72235728D01*
X202276616Y-72229447D01*
X202103394Y-72229447D01*
X202063733Y-72235728D01*
X201932307Y-72256544D01*
X201767557Y-72310075D01*
X201613216Y-72388715D01*
X201533261Y-72446806D01*
X201473077Y-72490533D01*
X201473075Y-72490535D01*
X201473074Y-72490535D01*
X201350593Y-72613016D01*
X201350593Y-72613017D01*
X201350591Y-72613019D01*
X201306864Y-72673203D01*
X201248773Y-72753158D01*
X201170133Y-72907499D01*
X201116602Y-73072249D01*
X201089505Y-73243336D01*
X201089505Y-73416558D01*
X201116603Y-73587648D01*
X201170132Y-73752392D01*
X201248773Y-73906735D01*
X201350591Y-74046875D01*
X201473077Y-74169361D01*
X201613217Y-74271179D01*
X201767560Y-74349820D01*
X201851626Y-74377135D01*
X201909301Y-74416571D01*
X201936499Y-74480930D01*
X201924584Y-74549776D01*
X201877340Y-74601252D01*
X201851626Y-74612996D01*
X201690973Y-74665196D01*
X201508649Y-74758095D01*
X201464082Y-74790475D01*
X201464082Y-74790476D01*
X202019760Y-75346153D01*
X201977708Y-75357422D01*
X201852289Y-75429832D01*
X201749885Y-75532236D01*
X201677475Y-75657655D01*
X201666207Y-75699707D01*
X201110529Y-75144029D01*
X201110528Y-75144029D01*
X201078148Y-75188596D01*
X200985249Y-75370920D01*
X200922014Y-75565534D01*
X200890005Y-75767634D01*
X200890005Y-75972269D01*
X200922014Y-76174369D01*
X200985249Y-76368983D01*
X201078146Y-76551302D01*
X201078152Y-76551311D01*
X201110528Y-76595873D01*
X201110529Y-76595874D01*
X201666206Y-76040196D01*
X201677475Y-76082249D01*
X201749885Y-76207668D01*
X201852289Y-76310072D01*
X201977708Y-76382482D01*
X202019759Y-76393749D01*
X201464081Y-76949426D01*
X201508657Y-76981813D01*
X201602189Y-77029469D01*
X201652985Y-77077443D01*
X201669781Y-77145264D01*
X201647244Y-77211399D01*
X201602190Y-77250438D01*
X201508658Y-77298095D01*
X201508650Y-77298100D01*
X201464082Y-77330480D01*
X201464082Y-77330481D01*
X202019760Y-77886158D01*
X201977708Y-77897427D01*
X201852289Y-77969837D01*
X201749885Y-78072241D01*
X201677475Y-78197660D01*
X201666207Y-78239712D01*
X201110529Y-77684034D01*
X201110528Y-77684034D01*
X201078148Y-77728601D01*
X200985249Y-77910925D01*
X200922014Y-78105539D01*
X200890005Y-78307639D01*
X200890005Y-78512274D01*
X200922014Y-78714374D01*
X200985249Y-78908988D01*
X201078146Y-79091307D01*
X201078152Y-79091316D01*
X201110528Y-79135878D01*
X201110529Y-79135879D01*
X201666206Y-78580201D01*
X201677475Y-78622254D01*
X201749885Y-78747673D01*
X201852289Y-78850077D01*
X201977708Y-78922487D01*
X202019759Y-78933754D01*
X201464081Y-79489431D01*
X201508655Y-79521816D01*
X201690973Y-79614712D01*
X201824410Y-79658069D01*
X201882085Y-79697507D01*
X201909283Y-79761866D01*
X201897368Y-79830712D01*
X201850124Y-79882188D01*
X201786091Y-79900000D01*
X197513909Y-79900000D01*
X197446870Y-79880315D01*
X197401115Y-79827511D01*
X197391171Y-79758353D01*
X197420196Y-79694797D01*
X197475590Y-79658069D01*
X197609026Y-79614712D01*
X197791344Y-79521816D01*
X197835916Y-79489431D01*
X197280239Y-78933754D01*
X197322292Y-78922487D01*
X197447711Y-78850077D01*
X197550115Y-78747673D01*
X197622525Y-78622254D01*
X197633792Y-78580201D01*
X198189469Y-79135878D01*
X198221854Y-79091306D01*
X198314750Y-78908988D01*
X198377985Y-78714374D01*
X198409995Y-78512274D01*
X198409995Y-78307639D01*
X198377985Y-78105539D01*
X198314750Y-77910925D01*
X198221854Y-77728607D01*
X198189469Y-77684034D01*
X198189469Y-77684033D01*
X197633792Y-78239710D01*
X197622525Y-78197660D01*
X197550115Y-78072241D01*
X197447711Y-77969837D01*
X197322292Y-77897427D01*
X197280239Y-77886158D01*
X197835917Y-77330481D01*
X197835916Y-77330480D01*
X197791354Y-77298104D01*
X197791345Y-77298098D01*
X197609026Y-77205201D01*
X197448373Y-77153001D01*
X197390698Y-77113563D01*
X197363500Y-77049204D01*
X197375415Y-76980358D01*
X197422660Y-76928882D01*
X197448367Y-76917142D01*
X197532440Y-76889825D01*
X197686783Y-76811184D01*
X197826923Y-76709366D01*
X197949409Y-76586880D01*
X198051227Y-76446740D01*
X198129868Y-76292397D01*
X198183397Y-76127653D01*
X198210495Y-75956563D01*
X198210495Y-75783341D01*
X198183397Y-75612251D01*
X198129868Y-75447507D01*
X198051227Y-75293164D01*
X197949409Y-75153024D01*
X197826923Y-75030538D01*
X197686783Y-74928720D01*
X197532440Y-74850079D01*
X197367696Y-74796550D01*
X197367694Y-74796549D01*
X197367693Y-74796549D01*
X197236266Y-74775733D01*
X197196606Y-74769452D01*
X197023384Y-74769452D01*
X196983723Y-74775733D01*
X196852297Y-74796549D01*
X196687547Y-74850080D01*
X196533206Y-74928720D01*
X196453251Y-74986811D01*
X196393067Y-75030538D01*
X196393065Y-75030540D01*
X196393064Y-75030540D01*
X196270583Y-75153021D01*
X196270583Y-75153022D01*
X196270581Y-75153024D01*
X196244732Y-75188602D01*
X196168763Y-75293163D01*
X196090123Y-75447504D01*
X196036592Y-75612254D01*
X196009495Y-75783341D01*
X196009495Y-75956562D01*
X196029401Y-76082249D01*
X196036593Y-76127653D01*
X196090122Y-76292397D01*
X196168763Y-76446740D01*
X196270581Y-76586880D01*
X196393067Y-76709366D01*
X196533207Y-76811184D01*
X196687550Y-76889825D01*
X196771616Y-76917140D01*
X196829291Y-76956576D01*
X196856489Y-77020935D01*
X196844574Y-77089781D01*
X196797330Y-77141257D01*
X196771616Y-77153001D01*
X196610963Y-77205201D01*
X196428639Y-77298100D01*
X196384072Y-77330480D01*
X196384072Y-77330481D01*
X196939750Y-77886158D01*
X196897698Y-77897427D01*
X196772279Y-77969837D01*
X196669875Y-78072241D01*
X196597465Y-78197660D01*
X196586197Y-78239712D01*
X196030519Y-77684034D01*
X196030518Y-77684034D01*
X195998138Y-77728601D01*
X195905239Y-77910925D01*
X195842004Y-78105539D01*
X195809995Y-78307639D01*
X195809995Y-78512274D01*
X195842004Y-78714374D01*
X195905239Y-78908988D01*
X195998136Y-79091307D01*
X195998142Y-79091316D01*
X196030518Y-79135878D01*
X196030519Y-79135879D01*
X196586196Y-78580201D01*
X196597465Y-78622254D01*
X196669875Y-78747673D01*
X196772279Y-78850077D01*
X196897698Y-78922487D01*
X196939749Y-78933754D01*
X196384071Y-79489431D01*
X196428645Y-79521816D01*
X196610963Y-79614712D01*
X196744400Y-79658069D01*
X196802075Y-79697507D01*
X196829273Y-79761866D01*
X196817358Y-79830712D01*
X196770114Y-79882188D01*
X196706081Y-79900000D01*
X196050000Y-79900000D01*
X196012131Y-80841295D01*
X196011839Y-80848550D01*
X196009495Y-80863351D01*
X196009495Y-80906834D01*
X196009395Y-80909321D01*
X196009395Y-80909323D01*
X195004788Y-105880984D01*
X194982424Y-105947178D01*
X194927824Y-105990774D01*
X194880888Y-106000000D01*
X190623224Y-106000000D01*
X190556185Y-105980315D01*
X190510430Y-105927511D01*
X190499226Y-105876779D01*
X190294266Y-73243336D01*
X196009495Y-73243336D01*
X196009495Y-73416558D01*
X196036593Y-73587648D01*
X196090122Y-73752392D01*
X196168763Y-73906735D01*
X196270581Y-74046875D01*
X196393067Y-74169361D01*
X196533207Y-74271179D01*
X196687550Y-74349820D01*
X196852294Y-74403349D01*
X197023384Y-74430447D01*
X197023385Y-74430447D01*
X197196605Y-74430447D01*
X197196606Y-74430447D01*
X197367696Y-74403349D01*
X197532440Y-74349820D01*
X197686783Y-74271179D01*
X197826923Y-74169361D01*
X197949409Y-74046875D01*
X198051227Y-73906735D01*
X198129868Y-73752392D01*
X198183397Y-73587648D01*
X198210495Y-73416558D01*
X198210495Y-73243336D01*
X198183397Y-73072246D01*
X198129868Y-72907502D01*
X198051227Y-72753159D01*
X197949409Y-72613019D01*
X197826923Y-72490533D01*
X197686783Y-72388715D01*
X197532440Y-72310074D01*
X197367696Y-72256545D01*
X197367694Y-72256544D01*
X197367693Y-72256544D01*
X197236266Y-72235728D01*
X197196606Y-72229447D01*
X197023384Y-72229447D01*
X196983723Y-72235728D01*
X196852297Y-72256544D01*
X196687547Y-72310075D01*
X196533206Y-72388715D01*
X196453251Y-72446806D01*
X196393067Y-72490533D01*
X196393065Y-72490535D01*
X196393064Y-72490535D01*
X196270583Y-72613016D01*
X196270583Y-72613017D01*
X196270581Y-72613019D01*
X196226854Y-72673203D01*
X196168763Y-72753158D01*
X196090123Y-72907499D01*
X196036592Y-73072249D01*
X196009495Y-73243336D01*
X190294266Y-73243336D01*
X190278313Y-70703331D01*
X196009495Y-70703331D01*
X196009495Y-70876553D01*
X196036593Y-71047643D01*
X196090122Y-71212387D01*
X196168763Y-71366730D01*
X196270581Y-71506870D01*
X196393067Y-71629356D01*
X196533207Y-71731174D01*
X196687550Y-71809815D01*
X196852294Y-71863344D01*
X197023384Y-71890442D01*
X197023385Y-71890442D01*
X197196605Y-71890442D01*
X197196606Y-71890442D01*
X197367696Y-71863344D01*
X197532440Y-71809815D01*
X197686783Y-71731174D01*
X197826923Y-71629356D01*
X197949409Y-71506870D01*
X198051227Y-71366730D01*
X198129868Y-71212387D01*
X198183397Y-71047643D01*
X198210495Y-70876553D01*
X198210495Y-70703331D01*
X201089505Y-70703331D01*
X201089505Y-70876553D01*
X201116603Y-71047643D01*
X201170132Y-71212387D01*
X201248773Y-71366730D01*
X201350591Y-71506870D01*
X201473077Y-71629356D01*
X201613217Y-71731174D01*
X201767560Y-71809815D01*
X201932304Y-71863344D01*
X202103394Y-71890442D01*
X202103395Y-71890442D01*
X202276615Y-71890442D01*
X202276616Y-71890442D01*
X202447706Y-71863344D01*
X202612450Y-71809815D01*
X202766793Y-71731174D01*
X202906933Y-71629356D01*
X203029419Y-71506870D01*
X203131237Y-71366730D01*
X203209878Y-71212387D01*
X203263407Y-71047643D01*
X203290505Y-70876553D01*
X203290505Y-70703331D01*
X203263407Y-70532241D01*
X203209878Y-70367497D01*
X203131237Y-70213154D01*
X203029419Y-70073014D01*
X202906933Y-69950528D01*
X202766793Y-69848710D01*
X202612450Y-69770069D01*
X202447706Y-69716540D01*
X202447704Y-69716539D01*
X202447703Y-69716539D01*
X202316276Y-69695723D01*
X202276616Y-69689442D01*
X202103394Y-69689442D01*
X202063733Y-69695723D01*
X201932307Y-69716539D01*
X201767557Y-69770070D01*
X201613216Y-69848710D01*
X201533261Y-69906801D01*
X201473077Y-69950528D01*
X201473075Y-69950530D01*
X201473074Y-69950530D01*
X201350593Y-70073011D01*
X201350593Y-70073012D01*
X201350591Y-70073014D01*
X201306864Y-70133198D01*
X201248773Y-70213153D01*
X201170133Y-70367494D01*
X201116602Y-70532244D01*
X201089505Y-70703331D01*
X198210495Y-70703331D01*
X198183397Y-70532241D01*
X198129868Y-70367497D01*
X198051227Y-70213154D01*
X197949409Y-70073014D01*
X197826923Y-69950528D01*
X197686783Y-69848710D01*
X197532440Y-69770069D01*
X197367696Y-69716540D01*
X197367694Y-69716539D01*
X197367693Y-69716539D01*
X197236266Y-69695723D01*
X197196606Y-69689442D01*
X197023384Y-69689442D01*
X196983723Y-69695723D01*
X196852297Y-69716539D01*
X196687547Y-69770070D01*
X196533206Y-69848710D01*
X196453251Y-69906801D01*
X196393067Y-69950528D01*
X196393065Y-69950530D01*
X196393064Y-69950530D01*
X196270583Y-70073011D01*
X196270583Y-70073012D01*
X196270581Y-70073014D01*
X196226854Y-70133198D01*
X196168763Y-70213153D01*
X196090123Y-70367494D01*
X196036592Y-70532244D01*
X196009495Y-70703331D01*
X190278313Y-70703331D01*
X190262360Y-68163325D01*
X196009495Y-68163325D01*
X196009495Y-68336547D01*
X196036593Y-68507637D01*
X196090122Y-68672381D01*
X196168763Y-68826724D01*
X196270581Y-68966864D01*
X196393067Y-69089350D01*
X196533207Y-69191168D01*
X196687550Y-69269809D01*
X196852294Y-69323338D01*
X197023384Y-69350436D01*
X197023385Y-69350436D01*
X197196605Y-69350436D01*
X197196606Y-69350436D01*
X197367696Y-69323338D01*
X197532440Y-69269809D01*
X197686783Y-69191168D01*
X197826923Y-69089350D01*
X197949409Y-68966864D01*
X198051227Y-68826724D01*
X198129868Y-68672381D01*
X198183397Y-68507637D01*
X198210495Y-68336547D01*
X198210495Y-68163325D01*
X201089505Y-68163325D01*
X201089505Y-68336547D01*
X201116603Y-68507637D01*
X201170132Y-68672381D01*
X201248773Y-68826724D01*
X201350591Y-68966864D01*
X201473077Y-69089350D01*
X201613217Y-69191168D01*
X201767560Y-69269809D01*
X201932304Y-69323338D01*
X202103394Y-69350436D01*
X202103395Y-69350436D01*
X202276615Y-69350436D01*
X202276616Y-69350436D01*
X202447706Y-69323338D01*
X202612450Y-69269809D01*
X202766793Y-69191168D01*
X202906933Y-69089350D01*
X203029419Y-68966864D01*
X203131237Y-68826724D01*
X203209878Y-68672381D01*
X203263407Y-68507637D01*
X203290505Y-68336547D01*
X203290505Y-68163325D01*
X203263407Y-67992235D01*
X203209878Y-67827491D01*
X203131237Y-67673148D01*
X203029419Y-67533008D01*
X202906933Y-67410522D01*
X202766793Y-67308704D01*
X202612450Y-67230063D01*
X202447706Y-67176534D01*
X202447704Y-67176533D01*
X202447703Y-67176533D01*
X202316276Y-67155717D01*
X202276616Y-67149436D01*
X202103394Y-67149436D01*
X202063733Y-67155717D01*
X201932307Y-67176533D01*
X201767557Y-67230064D01*
X201613216Y-67308704D01*
X201533261Y-67366795D01*
X201473077Y-67410522D01*
X201473075Y-67410524D01*
X201473074Y-67410524D01*
X201350593Y-67533005D01*
X201350593Y-67533006D01*
X201350591Y-67533008D01*
X201306864Y-67593192D01*
X201248773Y-67673147D01*
X201170133Y-67827488D01*
X201116602Y-67992238D01*
X201089505Y-68163325D01*
X198210495Y-68163325D01*
X198183397Y-67992235D01*
X198129868Y-67827491D01*
X198051227Y-67673148D01*
X197949409Y-67533008D01*
X197826923Y-67410522D01*
X197686783Y-67308704D01*
X197532440Y-67230063D01*
X197367696Y-67176534D01*
X197367694Y-67176533D01*
X197367693Y-67176533D01*
X197236266Y-67155717D01*
X197196606Y-67149436D01*
X197023384Y-67149436D01*
X196983723Y-67155717D01*
X196852297Y-67176533D01*
X196687547Y-67230064D01*
X196533206Y-67308704D01*
X196453251Y-67366795D01*
X196393067Y-67410522D01*
X196393065Y-67410524D01*
X196393064Y-67410524D01*
X196270583Y-67533005D01*
X196270583Y-67533006D01*
X196270581Y-67533008D01*
X196226854Y-67593192D01*
X196168763Y-67673147D01*
X196090123Y-67827488D01*
X196036592Y-67992238D01*
X196009495Y-68163325D01*
X190262360Y-68163325D01*
X190246407Y-65623320D01*
X196009495Y-65623320D01*
X196009495Y-65796542D01*
X196036593Y-65967632D01*
X196090122Y-66132376D01*
X196168763Y-66286719D01*
X196270581Y-66426859D01*
X196393067Y-66549345D01*
X196533207Y-66651163D01*
X196687550Y-66729804D01*
X196852294Y-66783333D01*
X197023384Y-66810431D01*
X197023385Y-66810431D01*
X197196605Y-66810431D01*
X197196606Y-66810431D01*
X197367696Y-66783333D01*
X197532440Y-66729804D01*
X197686783Y-66651163D01*
X197826923Y-66549345D01*
X197949409Y-66426859D01*
X198051227Y-66286719D01*
X198129868Y-66132376D01*
X198183397Y-65967632D01*
X198210495Y-65796542D01*
X198210495Y-65623320D01*
X201089505Y-65623320D01*
X201089505Y-65796542D01*
X201116603Y-65967632D01*
X201170132Y-66132376D01*
X201248773Y-66286719D01*
X201350591Y-66426859D01*
X201473077Y-66549345D01*
X201613217Y-66651163D01*
X201767560Y-66729804D01*
X201932304Y-66783333D01*
X202103394Y-66810431D01*
X202103395Y-66810431D01*
X202276615Y-66810431D01*
X202276616Y-66810431D01*
X202447706Y-66783333D01*
X202612450Y-66729804D01*
X202766793Y-66651163D01*
X202906933Y-66549345D01*
X203029419Y-66426859D01*
X203131237Y-66286719D01*
X203209878Y-66132376D01*
X203263407Y-65967632D01*
X203290505Y-65796542D01*
X203290505Y-65623320D01*
X203263407Y-65452230D01*
X203209878Y-65287486D01*
X203131237Y-65133143D01*
X203029419Y-64993003D01*
X202906933Y-64870517D01*
X202766793Y-64768699D01*
X202612450Y-64690058D01*
X202447706Y-64636529D01*
X202447704Y-64636528D01*
X202447703Y-64636528D01*
X202316276Y-64615712D01*
X202276616Y-64609431D01*
X202103394Y-64609431D01*
X202063733Y-64615712D01*
X201932307Y-64636528D01*
X201767557Y-64690059D01*
X201613216Y-64768699D01*
X201533261Y-64826790D01*
X201473077Y-64870517D01*
X201473075Y-64870519D01*
X201473074Y-64870519D01*
X201350593Y-64993000D01*
X201350593Y-64993001D01*
X201350591Y-64993003D01*
X201306864Y-65053187D01*
X201248773Y-65133142D01*
X201170133Y-65287483D01*
X201116602Y-65452233D01*
X201089505Y-65623320D01*
X198210495Y-65623320D01*
X198183397Y-65452230D01*
X198129868Y-65287486D01*
X198051227Y-65133143D01*
X197949409Y-64993003D01*
X197826923Y-64870517D01*
X197686783Y-64768699D01*
X197532440Y-64690058D01*
X197367696Y-64636529D01*
X197367694Y-64636528D01*
X197367693Y-64636528D01*
X197236266Y-64615712D01*
X197196606Y-64609431D01*
X197023384Y-64609431D01*
X196983723Y-64615712D01*
X196852297Y-64636528D01*
X196687547Y-64690059D01*
X196533206Y-64768699D01*
X196453251Y-64826790D01*
X196393067Y-64870517D01*
X196393065Y-64870519D01*
X196393064Y-64870519D01*
X196270583Y-64993000D01*
X196270583Y-64993001D01*
X196270581Y-64993003D01*
X196226854Y-65053187D01*
X196168763Y-65133142D01*
X196090123Y-65287483D01*
X196036592Y-65452233D01*
X196009495Y-65623320D01*
X190246407Y-65623320D01*
X190230454Y-63083315D01*
X196009495Y-63083315D01*
X196009495Y-63256537D01*
X196036593Y-63427627D01*
X196090122Y-63592371D01*
X196168763Y-63746714D01*
X196270581Y-63886854D01*
X196393067Y-64009340D01*
X196533207Y-64111158D01*
X196687550Y-64189799D01*
X196852294Y-64243328D01*
X197023384Y-64270426D01*
X197023385Y-64270426D01*
X197196605Y-64270426D01*
X197196606Y-64270426D01*
X197367696Y-64243328D01*
X197532440Y-64189799D01*
X197686783Y-64111158D01*
X197826923Y-64009340D01*
X197949409Y-63886854D01*
X198051227Y-63746714D01*
X198129868Y-63592371D01*
X198183397Y-63427627D01*
X198210495Y-63256537D01*
X198210495Y-63083315D01*
X201089505Y-63083315D01*
X201089505Y-63256537D01*
X201116603Y-63427627D01*
X201170132Y-63592371D01*
X201248773Y-63746714D01*
X201350591Y-63886854D01*
X201473077Y-64009340D01*
X201613217Y-64111158D01*
X201767560Y-64189799D01*
X201932304Y-64243328D01*
X202103394Y-64270426D01*
X202103395Y-64270426D01*
X202276615Y-64270426D01*
X202276616Y-64270426D01*
X202447706Y-64243328D01*
X202612450Y-64189799D01*
X202766793Y-64111158D01*
X202906933Y-64009340D01*
X203029419Y-63886854D01*
X203131237Y-63746714D01*
X203209878Y-63592371D01*
X203263407Y-63427627D01*
X203290505Y-63256537D01*
X203290505Y-63083315D01*
X203263407Y-62912225D01*
X203209878Y-62747481D01*
X203131237Y-62593138D01*
X203029419Y-62452998D01*
X202906933Y-62330512D01*
X202766793Y-62228694D01*
X202612450Y-62150053D01*
X202447706Y-62096524D01*
X202447704Y-62096523D01*
X202447703Y-62096523D01*
X202316276Y-62075707D01*
X202276616Y-62069426D01*
X202103394Y-62069426D01*
X202063733Y-62075707D01*
X201932307Y-62096523D01*
X201767557Y-62150054D01*
X201613216Y-62228694D01*
X201533261Y-62286785D01*
X201473077Y-62330512D01*
X201473075Y-62330514D01*
X201473074Y-62330514D01*
X201350593Y-62452995D01*
X201350593Y-62452996D01*
X201350591Y-62452998D01*
X201306864Y-62513182D01*
X201248773Y-62593137D01*
X201170133Y-62747478D01*
X201116602Y-62912228D01*
X201089505Y-63083315D01*
X198210495Y-63083315D01*
X198183397Y-62912225D01*
X198129868Y-62747481D01*
X198051227Y-62593138D01*
X197949409Y-62452998D01*
X197826923Y-62330512D01*
X197686783Y-62228694D01*
X197532440Y-62150053D01*
X197367696Y-62096524D01*
X197367694Y-62096523D01*
X197367693Y-62096523D01*
X197236266Y-62075707D01*
X197196606Y-62069426D01*
X197023384Y-62069426D01*
X196983723Y-62075707D01*
X196852297Y-62096523D01*
X196687547Y-62150054D01*
X196533206Y-62228694D01*
X196453251Y-62286785D01*
X196393067Y-62330512D01*
X196393065Y-62330514D01*
X196393064Y-62330514D01*
X196270583Y-62452995D01*
X196270583Y-62452996D01*
X196270581Y-62452998D01*
X196226854Y-62513182D01*
X196168763Y-62593137D01*
X196090123Y-62747478D01*
X196036592Y-62912228D01*
X196009495Y-63083315D01*
X190230454Y-63083315D01*
X190214501Y-60543310D01*
X196009495Y-60543310D01*
X196009495Y-60716532D01*
X196036593Y-60887622D01*
X196090122Y-61052366D01*
X196168763Y-61206709D01*
X196270581Y-61346849D01*
X196393067Y-61469335D01*
X196533207Y-61571153D01*
X196687550Y-61649794D01*
X196852294Y-61703323D01*
X197023384Y-61730421D01*
X197023385Y-61730421D01*
X197196605Y-61730421D01*
X197196606Y-61730421D01*
X197367696Y-61703323D01*
X197532440Y-61649794D01*
X197686783Y-61571153D01*
X197826923Y-61469335D01*
X197949409Y-61346849D01*
X198051227Y-61206709D01*
X198129868Y-61052366D01*
X198183397Y-60887622D01*
X198210495Y-60716532D01*
X198210495Y-60543310D01*
X201089505Y-60543310D01*
X201089505Y-60716532D01*
X201116603Y-60887622D01*
X201170132Y-61052366D01*
X201248773Y-61206709D01*
X201350591Y-61346849D01*
X201473077Y-61469335D01*
X201613217Y-61571153D01*
X201767560Y-61649794D01*
X201932304Y-61703323D01*
X202103394Y-61730421D01*
X202103395Y-61730421D01*
X202276615Y-61730421D01*
X202276616Y-61730421D01*
X202447706Y-61703323D01*
X202612450Y-61649794D01*
X202766793Y-61571153D01*
X202906933Y-61469335D01*
X203029419Y-61346849D01*
X203131237Y-61206709D01*
X203209878Y-61052366D01*
X203263407Y-60887622D01*
X203290505Y-60716532D01*
X203290505Y-60543310D01*
X203263407Y-60372220D01*
X203209878Y-60207476D01*
X203131237Y-60053133D01*
X203029419Y-59912993D01*
X202906933Y-59790507D01*
X202766793Y-59688689D01*
X202612450Y-59610048D01*
X202447706Y-59556519D01*
X202447704Y-59556518D01*
X202447703Y-59556518D01*
X202316276Y-59535702D01*
X202276616Y-59529421D01*
X202103394Y-59529421D01*
X202063733Y-59535702D01*
X201932307Y-59556518D01*
X201767557Y-59610049D01*
X201613216Y-59688689D01*
X201533261Y-59746780D01*
X201473077Y-59790507D01*
X201473075Y-59790509D01*
X201473074Y-59790509D01*
X201350593Y-59912990D01*
X201350593Y-59912991D01*
X201350591Y-59912993D01*
X201306864Y-59973177D01*
X201248773Y-60053132D01*
X201170133Y-60207473D01*
X201116602Y-60372223D01*
X201089505Y-60543310D01*
X198210495Y-60543310D01*
X198183397Y-60372220D01*
X198129868Y-60207476D01*
X198051227Y-60053133D01*
X197949409Y-59912993D01*
X197826923Y-59790507D01*
X197686783Y-59688689D01*
X197532440Y-59610048D01*
X197367696Y-59556519D01*
X197367694Y-59556518D01*
X197367693Y-59556518D01*
X197236266Y-59535702D01*
X197196606Y-59529421D01*
X197023384Y-59529421D01*
X196983723Y-59535702D01*
X196852297Y-59556518D01*
X196687547Y-59610049D01*
X196533206Y-59688689D01*
X196453251Y-59746780D01*
X196393067Y-59790507D01*
X196393065Y-59790509D01*
X196393064Y-59790509D01*
X196270583Y-59912990D01*
X196270583Y-59912991D01*
X196270581Y-59912993D01*
X196226854Y-59973177D01*
X196168763Y-60053132D01*
X196090123Y-60207473D01*
X196036592Y-60372223D01*
X196009495Y-60543310D01*
X190214501Y-60543310D01*
X190200816Y-58364436D01*
X190220080Y-58297277D01*
X190272595Y-58251191D01*
X190324033Y-58239662D01*
X204476648Y-58150774D01*
X204543808Y-58170038D01*
G37*
%TD.AperFunction*%
%TD*%
%TA.AperFunction,Conductor*%
%TO.N,GNDA*%
G36*
X143643039Y-83819685D02*
G01*
X143688794Y-83872489D01*
X143700000Y-83924000D01*
X143700000Y-97176000D01*
X143680315Y-97243039D01*
X143627511Y-97288794D01*
X143576000Y-97300000D01*
X129824000Y-97300000D01*
X129756961Y-97280315D01*
X129711206Y-97227511D01*
X129700000Y-97176000D01*
X129700000Y-83924000D01*
X129719685Y-83856961D01*
X129772489Y-83811206D01*
X129824000Y-83800000D01*
X143576000Y-83800000D01*
X143643039Y-83819685D01*
G37*
%TD.AperFunction*%
%TD*%
%TA.AperFunction,Conductor*%
%TO.N,GNDA*%
G36*
X151943039Y-112019685D02*
G01*
X151988794Y-112072489D01*
X152000000Y-112124000D01*
X152000000Y-125376000D01*
X151980315Y-125443039D01*
X151927511Y-125488794D01*
X151876000Y-125500000D01*
X138124000Y-125500000D01*
X138056961Y-125480315D01*
X138011206Y-125427511D01*
X138000000Y-125376000D01*
X138000000Y-112124000D01*
X138019685Y-112056961D01*
X138072489Y-112011206D01*
X138124000Y-112000000D01*
X151876000Y-112000000D01*
X151943039Y-112019685D01*
G37*
%TD.AperFunction*%
%TD*%
%TA.AperFunction,Conductor*%
%TO.N,GNDA*%
G36*
X173752038Y-92794029D02*
G01*
X173819019Y-92813904D01*
X173864624Y-92866838D01*
X173875682Y-92917435D01*
X173924428Y-103105213D01*
X173905064Y-103172346D01*
X173852480Y-103218353D01*
X173799237Y-103229800D01*
X173352737Y-103225507D01*
X173285890Y-103205179D01*
X173266248Y-103189194D01*
X173199498Y-103122444D01*
X173199493Y-103122440D01*
X173052994Y-103016003D01*
X172992349Y-102985102D01*
X172941553Y-102937127D01*
X172924759Y-102869306D01*
X172947297Y-102803171D01*
X172973721Y-102775813D01*
X173017564Y-102742566D01*
X173108920Y-102622096D01*
X173164386Y-102481444D01*
X173175000Y-102393054D01*
X173175000Y-102350001D01*
X171125000Y-102350001D01*
X171125000Y-102393054D01*
X171135613Y-102481444D01*
X171191079Y-102622096D01*
X171282435Y-102742565D01*
X171402904Y-102833921D01*
X171448582Y-102851934D01*
X171452214Y-102854760D01*
X171456754Y-102855502D01*
X171479525Y-102876010D01*
X171503726Y-102894840D01*
X171505253Y-102899181D01*
X171508672Y-102902260D01*
X171516742Y-102931829D01*
X171526919Y-102960748D01*
X171525857Y-102965225D01*
X171527069Y-102969664D01*
X171517872Y-102998901D01*
X171510799Y-103028732D01*
X171507099Y-103033149D01*
X171506104Y-103036314D01*
X171493380Y-103049530D01*
X171482485Y-103062540D01*
X171479306Y-103065189D01*
X171400499Y-103122446D01*
X171349858Y-103173086D01*
X171345537Y-103176688D01*
X171318433Y-103188443D01*
X171292500Y-103202604D01*
X171283704Y-103203506D01*
X171281437Y-103204490D01*
X171278614Y-103204028D01*
X171264951Y-103205431D01*
X170970592Y-103202600D01*
X170903745Y-103182272D01*
X170858500Y-103129030D01*
X170849223Y-103059779D01*
X170850168Y-103054412D01*
X170851140Y-103049530D01*
X170851491Y-103047763D01*
X170851491Y-102906823D01*
X170823995Y-102768590D01*
X170770059Y-102638378D01*
X170691757Y-102521190D01*
X170592096Y-102421529D01*
X170592093Y-102421527D01*
X170587789Y-102417223D01*
X170589138Y-102415873D01*
X170554795Y-102365446D01*
X170550662Y-102348774D01*
X170458713Y-101824662D01*
X170455605Y-101806947D01*
X171125000Y-101806947D01*
X171125000Y-101850001D01*
X171900000Y-101850001D01*
X172400000Y-101850001D01*
X173175000Y-101850001D01*
X173175000Y-101806947D01*
X173164386Y-101718557D01*
X173108920Y-101577905D01*
X173017564Y-101457436D01*
X172897095Y-101366080D01*
X172756443Y-101310614D01*
X172668054Y-101300001D01*
X172400000Y-101300001D01*
X172400000Y-101850001D01*
X171900000Y-101850001D01*
X171900000Y-101300001D01*
X171631946Y-101300001D01*
X171543556Y-101310614D01*
X171402904Y-101366080D01*
X171282435Y-101457436D01*
X171191079Y-101577905D01*
X171135613Y-101718557D01*
X171125000Y-101806947D01*
X170455605Y-101806947D01*
X170201793Y-100360221D01*
X170199931Y-100339615D01*
X170190032Y-98844785D01*
X170949899Y-98844785D01*
X170949900Y-98844808D01*
X170952806Y-98869869D01*
X170952807Y-98869873D01*
X170998109Y-98972474D01*
X170998112Y-98972479D01*
X171077418Y-99051785D01*
X171077423Y-99051788D01*
X171180021Y-99097089D01*
X171205104Y-99099999D01*
X171999897Y-99099999D01*
X172499898Y-99099999D01*
X173294684Y-99099999D01*
X173294706Y-99099997D01*
X173319767Y-99097091D01*
X173319771Y-99097090D01*
X173422372Y-99051788D01*
X173422377Y-99051785D01*
X173501683Y-98972479D01*
X173501686Y-98972474D01*
X173546987Y-98869877D01*
X173546987Y-98869875D01*
X173549897Y-98844794D01*
X173549898Y-98844791D01*
X173549898Y-98050000D01*
X172499898Y-98050000D01*
X172499898Y-99099999D01*
X171999897Y-99099999D01*
X171999898Y-99099998D01*
X171999898Y-98050000D01*
X170949899Y-98050000D01*
X170949899Y-98844785D01*
X170190032Y-98844785D01*
X170184434Y-97999459D01*
X170176194Y-96755205D01*
X170949898Y-96755205D01*
X170949898Y-97550000D01*
X171999898Y-97550000D01*
X172499898Y-97550000D01*
X173549897Y-97550000D01*
X173549897Y-96755214D01*
X173549895Y-96755191D01*
X173546989Y-96730130D01*
X173546988Y-96730126D01*
X173501686Y-96627525D01*
X173501683Y-96627520D01*
X173422377Y-96548214D01*
X173422372Y-96548211D01*
X173319774Y-96502910D01*
X173294692Y-96500000D01*
X172499898Y-96500000D01*
X172499898Y-97550000D01*
X171999898Y-97550000D01*
X171999898Y-96500000D01*
X171205112Y-96500000D01*
X171205089Y-96500002D01*
X171180028Y-96502908D01*
X171180024Y-96502909D01*
X171077423Y-96548211D01*
X171077418Y-96548214D01*
X170998112Y-96627520D01*
X170998109Y-96627525D01*
X170952808Y-96730122D01*
X170952808Y-96730124D01*
X170949898Y-96755205D01*
X170176194Y-96755205D01*
X170176176Y-96752446D01*
X170169869Y-95800201D01*
X170169868Y-95800199D01*
X166074346Y-95800005D01*
X166007308Y-95780317D01*
X165961555Y-95727511D01*
X165950353Y-95675656D01*
X165954146Y-94343054D01*
X166600000Y-94343054D01*
X166610613Y-94431444D01*
X166666079Y-94572096D01*
X166757435Y-94692565D01*
X166877904Y-94783921D01*
X167018556Y-94839387D01*
X167106946Y-94850001D01*
X167550000Y-94850001D01*
X168050000Y-94850001D01*
X168493054Y-94850001D01*
X168581443Y-94839387D01*
X168722095Y-94783921D01*
X168842564Y-94692565D01*
X168933920Y-94572096D01*
X168989386Y-94431444D01*
X169000000Y-94343054D01*
X169600000Y-94343054D01*
X169610613Y-94431444D01*
X169666079Y-94572096D01*
X169757435Y-94692565D01*
X169877904Y-94783921D01*
X170018556Y-94839387D01*
X170106946Y-94850001D01*
X170550000Y-94850001D01*
X171050000Y-94850001D01*
X171493054Y-94850001D01*
X171581443Y-94839387D01*
X171722095Y-94783921D01*
X171842564Y-94692565D01*
X171933920Y-94572096D01*
X171989386Y-94431444D01*
X172000000Y-94343054D01*
X172000000Y-94225001D01*
X171050000Y-94225001D01*
X171050000Y-94850001D01*
X170550000Y-94850001D01*
X170550000Y-94225001D01*
X169600000Y-94225001D01*
X169600000Y-94343054D01*
X169000000Y-94343054D01*
X169000000Y-94225001D01*
X168050000Y-94225001D01*
X168050000Y-94850001D01*
X167550000Y-94850001D01*
X167550000Y-94225001D01*
X166600000Y-94225001D01*
X166600000Y-94343054D01*
X165954146Y-94343054D01*
X165956241Y-93606947D01*
X166600000Y-93606947D01*
X166600000Y-93725001D01*
X167550000Y-93725001D01*
X168050000Y-93725001D01*
X169000000Y-93725001D01*
X169000000Y-93606947D01*
X169600000Y-93606947D01*
X169600000Y-93725001D01*
X170550000Y-93725001D01*
X171050000Y-93725001D01*
X172000000Y-93725001D01*
X172000000Y-93606947D01*
X171989386Y-93518557D01*
X171933920Y-93377905D01*
X171842564Y-93257436D01*
X171722095Y-93166080D01*
X171581443Y-93110614D01*
X171493054Y-93100001D01*
X171050000Y-93100001D01*
X171050000Y-93725001D01*
X170550000Y-93725001D01*
X170550000Y-93100001D01*
X170106946Y-93100001D01*
X170018556Y-93110614D01*
X169877904Y-93166080D01*
X169757435Y-93257436D01*
X169666079Y-93377905D01*
X169610613Y-93518557D01*
X169600000Y-93606947D01*
X169000000Y-93606947D01*
X168989386Y-93518557D01*
X168933920Y-93377905D01*
X168842564Y-93257436D01*
X168722095Y-93166080D01*
X168581443Y-93110614D01*
X168493054Y-93100001D01*
X168050000Y-93100001D01*
X168050000Y-93725001D01*
X167550000Y-93725001D01*
X167550000Y-93100001D01*
X167106946Y-93100001D01*
X167018556Y-93110614D01*
X166877904Y-93166080D01*
X166757435Y-93257436D01*
X166666079Y-93377905D01*
X166610613Y-93518557D01*
X166600000Y-93606947D01*
X165956241Y-93606947D01*
X165958265Y-92895848D01*
X165978140Y-92828866D01*
X166031074Y-92783262D01*
X166082612Y-92772203D01*
X173752038Y-92794029D01*
G37*
%TD.AperFunction*%
%TD*%
%TA.AperFunction,Conductor*%
%TO.N,/+9V*%
G36*
X174808323Y-86073106D02*
G01*
X174843245Y-86078128D01*
X174858249Y-86082534D01*
X174873264Y-86092183D01*
X174890393Y-86097221D01*
X174916986Y-86120283D01*
X174917024Y-86120307D01*
X174917057Y-86120344D01*
X174918244Y-86121715D01*
X174945664Y-86176521D01*
X174947308Y-86184078D01*
X174950142Y-86210440D01*
X174950003Y-92358176D01*
X174944980Y-92393108D01*
X174940577Y-92408103D01*
X174930925Y-92423121D01*
X174925888Y-92440250D01*
X174902825Y-92466843D01*
X174902802Y-92466881D01*
X174902765Y-92466914D01*
X174901394Y-92468101D01*
X174846600Y-92495518D01*
X174839042Y-92497163D01*
X174812671Y-92500000D01*
X174116655Y-92500000D01*
X174057362Y-92482589D01*
X174056856Y-92483650D01*
X174050282Y-92480510D01*
X174049616Y-92480315D01*
X174048923Y-92479861D01*
X173934377Y-92425159D01*
X173934369Y-92425156D01*
X173867391Y-92405282D01*
X173753187Y-92388530D01*
X173753191Y-92388530D01*
X166083776Y-92366704D01*
X165997535Y-92375728D01*
X165963178Y-92383100D01*
X165945999Y-92386787D01*
X165887083Y-92405282D01*
X165874284Y-92409300D01*
X165762260Y-92478613D01*
X165761709Y-92477724D01*
X165700761Y-92499766D01*
X165693150Y-92500000D01*
X148944936Y-92500000D01*
X148944931Y-92499999D01*
X148944929Y-92500000D01*
X148909995Y-92494975D01*
X148894996Y-92490570D01*
X148836260Y-92452840D01*
X148835970Y-92452505D01*
X148835049Y-92451443D01*
X148807575Y-92396618D01*
X148805939Y-92389115D01*
X148803092Y-92362828D01*
X148801601Y-90887141D01*
X148796882Y-86214467D01*
X148801870Y-86179528D01*
X148806258Y-86164528D01*
X148843941Y-86105740D01*
X148845287Y-86104571D01*
X148900197Y-86077023D01*
X148907818Y-86075361D01*
X148934227Y-86072517D01*
X174808323Y-86073106D01*
G37*
%TD.AperFunction*%
%TD*%
%TA.AperFunction,Conductor*%
%TO.N,GNDA*%
G36*
X181943039Y-62519685D02*
G01*
X181988794Y-62572489D01*
X182000000Y-62624000D01*
X182000000Y-75876000D01*
X181980315Y-75943039D01*
X181927511Y-75988794D01*
X181876000Y-76000000D01*
X168124000Y-76000000D01*
X168056961Y-75980315D01*
X168011206Y-75927511D01*
X168000000Y-75876000D01*
X168000000Y-62624000D01*
X168019685Y-62556961D01*
X168072489Y-62511206D01*
X168124000Y-62500000D01*
X181876000Y-62500000D01*
X181943039Y-62519685D01*
G37*
%TD.AperFunction*%
%TD*%
%TA.AperFunction,Conductor*%
%TO.N,/+3V3*%
G36*
X177943039Y-116019685D02*
G01*
X177988794Y-116072489D01*
X178000000Y-116124000D01*
X178000000Y-137876000D01*
X177980315Y-137943039D01*
X177927511Y-137988794D01*
X177876000Y-138000000D01*
X173820003Y-138000000D01*
X173752964Y-137980315D01*
X173707209Y-137927511D01*
X173696003Y-137876000D01*
X173696003Y-137718482D01*
X173696002Y-137718475D01*
X173681150Y-137624696D01*
X173623554Y-137511658D01*
X173623550Y-137511654D01*
X173623549Y-137511652D01*
X173533851Y-137421954D01*
X173533848Y-137421952D01*
X173533846Y-137421950D01*
X173457021Y-137382805D01*
X173420805Y-137364352D01*
X173327028Y-137349500D01*
X171752988Y-137349500D01*
X171672025Y-137362323D01*
X171659202Y-137364354D01*
X171546164Y-137421950D01*
X171546163Y-137421951D01*
X171546158Y-137421954D01*
X171456460Y-137511652D01*
X171456457Y-137511657D01*
X171398858Y-137624698D01*
X171384006Y-137718475D01*
X171384006Y-137876000D01*
X171364321Y-137943039D01*
X171311517Y-137988794D01*
X171260006Y-138000000D01*
X168739993Y-138000000D01*
X168672954Y-137980315D01*
X168627199Y-137927511D01*
X168615993Y-137876000D01*
X168615993Y-137718482D01*
X168615992Y-137718475D01*
X168601140Y-137624696D01*
X168543544Y-137511658D01*
X168543540Y-137511654D01*
X168543539Y-137511652D01*
X168453841Y-137421954D01*
X168453838Y-137421952D01*
X168453836Y-137421950D01*
X168377011Y-137382805D01*
X168340795Y-137364352D01*
X168247018Y-137349500D01*
X166672978Y-137349500D01*
X166592015Y-137362323D01*
X166579192Y-137364354D01*
X166466154Y-137421950D01*
X166466153Y-137421951D01*
X166466148Y-137421954D01*
X166376450Y-137511652D01*
X166376447Y-137511657D01*
X166318848Y-137624698D01*
X166303996Y-137718475D01*
X166303996Y-137876000D01*
X166284311Y-137943039D01*
X166231507Y-137988794D01*
X166179996Y-138000000D01*
X162124000Y-138000000D01*
X162056961Y-137980315D01*
X162011206Y-137927511D01*
X162000000Y-137876000D01*
X162000000Y-116124000D01*
X162019685Y-116056961D01*
X162072489Y-116011206D01*
X162124000Y-116000000D01*
X177876000Y-116000000D01*
X177943039Y-116019685D01*
G37*
%TD.AperFunction*%
%TD*%
M02*
