M48
; DRILL file KiCad 10.0.3 date 2026-07-21T10:57:58
; FORMAT={-:-/ absolute / inch / decimal}
; #@! TF.CreationDate,2026-07-21T10:57:58+08:00
; #@! TF.GenerationSoftware,Kicad,Pcbnew,10.0.3
; #@! TF.FileFunction,Plated,1,4,PTH
FMAT,2
INCH
; #@! TA.AperFunction,Plated,PTH,ViaDrill
T1C0.0118
; #@! TA.AperFunction,Plated,PTH,ViaDrill
T2C0.0157
; #@! TA.AperFunction,Plated,PTH,ViaDrill
T3C0.0315
; #@! TA.AperFunction,Plated,PTH,ComponentDrill
T4C0.0433
; #@! TA.AperFunction,Plated,PTH,ComponentDrill
T5C0.0433
; #@! TA.AperFunction,Plated,PTH,ComponentDrill
T6C0.0669
; #@! TA.AperFunction,Plated,PTH,ComponentDrill
T7C0.1260
%
G90
G05
T1
X6.1535Y-4.2697
X6.1811Y-4.2697
X6.2106Y-4.2697
X6.3504Y-4.2913
X6.4173Y-4.6063
X6.4173Y-4.685
X6.4173Y-4.7638
X6.4173Y-4.8425
X6.4173Y-4.9213
X6.4173Y-5.0
X6.4173Y-5.0787
X6.4173Y-5.1575
X6.4173Y-5.2362
X6.4173Y-5.315
X6.4173Y-5.3937
X6.4409Y-4.3248
X6.4961Y-4.6063
X6.4961Y-4.685
X6.4961Y-4.7638
X6.4961Y-4.8425
X6.4961Y-4.9213
X6.4961Y-5.0
X6.4961Y-5.0787
X6.4961Y-5.1575
X6.4961Y-5.2362
X6.4961Y-5.315
X6.4961Y-5.3937
X6.5354Y-4.0551
X6.5374Y-4.0866
X6.5374Y-4.1181
X6.5374Y-4.1496
X6.5374Y-4.1811
X6.5374Y-4.2126
X6.5374Y-4.2441
X6.5374Y-4.2756
X6.5374Y-4.3071
X6.5413Y-3.5797
X6.5669Y-4.0551
X6.5689Y-4.0866
X6.5689Y-4.1181
X6.5689Y-4.1496
X6.5689Y-4.1811
X6.5689Y-4.2126
X6.5689Y-4.2441
X6.5689Y-4.2756
X6.5689Y-4.3071
X6.5748Y-4.6063
X6.5748Y-4.685
X6.5748Y-4.7638
X6.5748Y-4.8425
X6.5748Y-4.9213
X6.5748Y-5.0
X6.5748Y-5.0787
X6.5748Y-5.1575
X6.5748Y-5.2362
X6.5748Y-5.315
X6.5748Y-5.3937
X6.5785Y-3.7509
X6.5984Y-4.0551
X6.6004Y-4.0866
X6.6004Y-4.1181
X6.6004Y-4.1496
X6.6004Y-4.1811
X6.6004Y-4.2126
X6.6004Y-4.2441
X6.6004Y-4.2756
X6.6004Y-4.3071
X6.6067Y-3.7525
X6.6398Y-3.752
X6.6535Y-4.6063
X6.6535Y-4.685
X6.6535Y-4.7638
X6.6535Y-4.8425
X6.6535Y-4.9213
X6.6535Y-5.0
X6.6535Y-5.0787
X6.6535Y-5.1575
X6.6535Y-5.2362
X6.6535Y-5.315
X6.6535Y-5.3937
X6.669Y-3.7529
X6.6772Y-4.2362
X6.6929Y-4.2598
X6.7045Y-3.749
X6.7087Y-4.2362
X6.7224Y-3.9213
X6.7244Y-4.2677
X6.7244Y-4.2913
X6.7323Y-4.6063
X6.7323Y-4.685
X6.7323Y-4.7638
X6.7323Y-4.8425
X6.7323Y-4.9213
X6.7323Y-5.0
X6.7323Y-5.0787
X6.7323Y-5.1575
X6.7323Y-5.2362
X6.7323Y-5.315
X6.7323Y-5.3937
X6.736Y-3.7509
X6.748Y-4.252
X6.7559Y-3.9213
X6.7717Y-4.252
X6.7933Y-3.9193
X6.7953Y-4.252
X6.811Y-4.6063
X6.811Y-4.685
X6.811Y-4.7638
X6.811Y-4.8425
X6.811Y-4.9213
X6.811Y-5.0
X6.811Y-5.0787
X6.811Y-5.1575
X6.811Y-5.2362
X6.811Y-5.315
X6.811Y-5.3937
X6.8333Y-3.9231
X6.8898Y-4.6063
X6.8898Y-4.685
X6.8898Y-4.7638
X6.8898Y-4.8425
X6.8898Y-4.9213
X6.8898Y-5.0
X6.8898Y-5.0787
X6.8898Y-5.1575
X6.8898Y-5.2362
X6.8898Y-5.315
X6.8898Y-5.3937
X6.9685Y-4.6063
X6.9685Y-4.685
X6.9685Y-4.7638
X6.9685Y-4.8425
X6.9685Y-4.9213
X6.9685Y-5.0
X6.9685Y-5.0787
X6.9685Y-5.1575
X6.9685Y-5.2362
X6.9685Y-5.315
X6.9685Y-5.3937
T2
X4.7913Y-3.2795
X4.9882Y-3.2795
X5.1181Y-4.4291
X5.1457Y-3.3189
X5.1457Y-3.3976
X5.1457Y-3.4764
X5.1457Y-3.5551
X5.1457Y-3.6339
X5.1457Y-3.7126
X5.1457Y-3.7913
X5.2244Y-3.3189
X5.2244Y-3.3976
X5.2244Y-3.4764
X5.2244Y-3.5551
X5.2244Y-3.6339
X5.2244Y-3.7126
X5.2244Y-3.7913
X5.3031Y-3.3189
X5.3031Y-3.3976
X5.3031Y-3.4764
X5.3031Y-3.5551
X5.3031Y-3.6339
X5.3031Y-3.7126
X5.3031Y-3.7913
X5.315Y-4.4291
X5.3819Y-3.3189
X5.3819Y-3.3976
X5.3819Y-3.4764
X5.3819Y-3.5551
X5.3819Y-3.6339
X5.3819Y-3.7126
X5.3819Y-3.7913
X5.4606Y-3.3189
X5.4606Y-3.3976
X5.4606Y-3.4764
X5.4606Y-3.5551
X5.4606Y-3.6339
X5.4606Y-3.7126
X5.4606Y-3.7913
X5.4724Y-4.4488
X5.4724Y-4.5276
X5.4724Y-4.6063
X5.4724Y-4.685
X5.4724Y-4.7638
X5.4724Y-4.8425
X5.4724Y-4.9213
X5.5394Y-3.3189
X5.5394Y-3.3976
X5.5394Y-3.4764
X5.5394Y-3.5551
X5.5394Y-3.6339
X5.5394Y-3.7126
X5.5394Y-3.7913
X5.5512Y-4.4488
X5.5512Y-4.5276
X5.5512Y-4.6063
X5.5512Y-4.685
X5.5512Y-4.7638
X5.5512Y-4.8425
X5.5512Y-4.9213
X5.6181Y-3.3189
X5.6181Y-3.3976
X5.6181Y-3.4764
X5.6181Y-3.5551
X5.6181Y-3.6339
X5.6181Y-3.7126
X5.6181Y-3.7913
X5.6299Y-4.4488
X5.6299Y-4.5276
X5.6299Y-4.6063
X5.6299Y-4.685
X5.6299Y-4.7638
X5.6299Y-4.8425
X5.6299Y-4.9213
X5.6831Y-3.2707
X5.7087Y-4.4488
X5.7087Y-4.5276
X5.7087Y-4.6063
X5.7087Y-4.685
X5.7087Y-4.7638
X5.7087Y-4.8425
X5.7087Y-4.9213
X5.7638Y-3.9626
X5.7874Y-4.4488
X5.7874Y-4.5276
X5.7874Y-4.6063
X5.7874Y-4.685
X5.7874Y-4.7638
X5.7874Y-4.8425
X5.7874Y-4.9213
X5.8071Y-3.2972
X5.8071Y-4.126
X5.8661Y-4.4488
X5.8661Y-4.5276
X5.8661Y-4.6063
X5.8661Y-4.685
X5.8661Y-4.7638
X5.8661Y-4.8425
X5.8661Y-4.9213
X5.9449Y-4.4488
X5.9449Y-4.5276
X5.9449Y-4.6063
X5.9449Y-4.685
X5.9449Y-4.7638
X5.9449Y-4.8425
X5.9449Y-4.9213
X6.1024Y-5.2913
X6.2992Y-5.2579
X6.3543Y-2.4833
X6.4961Y-2.4606
X6.6535Y-2.4803
X6.6535Y-2.5591
X6.6535Y-2.6378
X6.6535Y-2.7165
X6.6535Y-2.7953
X6.6535Y-2.874
X6.6535Y-2.9528
X6.7323Y-2.4803
X6.7323Y-2.5591
X6.7323Y-2.6378
X6.7323Y-2.7165
X6.7323Y-2.7953
X6.7323Y-2.874
X6.7323Y-2.9528
X6.811Y-2.4803
X6.811Y-2.5591
X6.811Y-2.6378
X6.811Y-2.7165
X6.811Y-2.7953
X6.811Y-2.874
X6.811Y-2.9528
X6.8898Y-2.4803
X6.8898Y-2.5591
X6.8898Y-2.6378
X6.8898Y-2.7165
X6.8898Y-2.7953
X6.8898Y-2.874
X6.8898Y-2.9528
X6.9685Y-2.4803
X6.9685Y-2.5591
X6.9685Y-2.6378
X6.9685Y-2.7165
X6.9685Y-2.7953
X6.9685Y-2.874
X6.9685Y-2.9528
X7.0472Y-2.4803
X7.0472Y-2.5591
X7.0472Y-2.6378
X7.0472Y-2.7165
X7.0472Y-2.7953
X7.0472Y-2.874
X7.0472Y-2.9528
X7.0866Y-5.2953
X7.126Y-2.4803
X7.126Y-2.5591
X7.126Y-2.6378
X7.126Y-2.7165
X7.126Y-2.7953
X7.126Y-2.874
X7.126Y-2.9528
X7.2028Y-2.4651
X7.2835Y-5.2953
X7.3209Y-2.5098
T3
X4.9606Y-4.2913
X5.9449Y-5.1181
X6.0453Y-2.687
X6.3976Y-5.5118
T4
X3.6114Y-3.472
X3.6114Y-3.572
X3.6114Y-3.672
X3.6114Y-3.772
X3.6114Y-4.102
X3.6114Y-4.202
X3.6114Y-4.302
X3.6114Y-4.402
X3.7114Y-3.472
X3.7114Y-3.572
X3.7114Y-3.672
X3.7114Y-3.772
X3.7114Y-4.102
X3.7114Y-4.202
X3.7114Y-4.302
X3.7114Y-4.402
T5
X7.7602Y-2.387
X7.7602Y-2.487
X7.7602Y-2.587
X7.7602Y-2.687
X7.7602Y-2.787
X7.7602Y-2.887
X7.7602Y-2.987
X7.7602Y-3.087
X7.7602Y-3.187
X7.7602Y-3.287
X7.7602Y-3.387
X7.7602Y-3.487
X7.7602Y-3.587
X7.7602Y-3.687
X7.7602Y-3.787
X7.7602Y-3.887
X7.7602Y-3.987
X7.7602Y-4.087
X7.7602Y-4.187
X7.7602Y-4.287
X7.7602Y-4.387
X7.7602Y-4.487
X7.7602Y-4.587
X7.7602Y-4.687
X7.7602Y-4.787
X7.7602Y-4.887
X7.7602Y-4.987
X7.7602Y-5.087
X7.7602Y-5.187
X7.7602Y-5.287
X7.7602Y-5.387
X7.7602Y-5.487
X7.9602Y-2.387
X7.9602Y-2.487
X7.9602Y-2.587
X7.9602Y-2.687
X7.9602Y-2.787
X7.9602Y-2.887
X7.9602Y-2.987
X7.9602Y-3.087
X7.9602Y-3.187
X7.9602Y-3.287
X7.9602Y-3.387
X7.9602Y-3.487
X7.9602Y-3.587
X7.9602Y-3.687
X7.9602Y-3.787
X7.9602Y-3.887
X7.9602Y-3.987
X7.9602Y-4.087
X7.9602Y-4.187
X7.9602Y-4.287
X7.9602Y-4.387
X7.9602Y-4.487
X7.9602Y-4.587
X7.9602Y-4.687
X7.9602Y-4.787
X7.9602Y-4.887
X7.9602Y-4.987
X7.9602Y-5.087
X7.9602Y-5.187
X7.9602Y-5.287
X7.9602Y-5.387
X7.9602Y-5.487
T6
X1.8654Y-4.7819
X1.8654Y-4.9819
X1.8701Y-2.2622
X1.8701Y-2.4622
X1.8701Y-2.8921
X1.8701Y-3.0921
X1.8701Y-3.522
X1.8701Y-3.722
X1.8701Y-4.152
X1.8701Y-4.352
X1.8701Y-5.4118
X1.8701Y-5.6118
T7
X3.7205Y-2.3622
X3.7205Y-5.5118
X6.0827Y-2.3622
X6.0827Y-5.5118
M30
