ISO-10303-21;
HEADER;
FILE_DESCRIPTION (( 'STEP AP214' ),
    '1' );
FILE_NAME ('LED-TH_BD4.0-P2.50-H6.0-RD.STEP',
    '2026-05-27T07:32:27',
    ( '' ),
    ( '' ),
    'SwSTEP 2.0',
    'SolidWorks 2021',
    '' );
FILE_SCHEMA (( 'AUTOMOTIVE_DESIGN' ));
ENDSEC;

DATA;
#1 = FACE_OUTER_BOUND ( 'NONE', #791, .T. ) ;
#2 = MECHANICAL_DESIGN_GEOMETRIC_PRESENTATION_REPRESENTATION (  '', ( #614 ), #693 ) ;
#3 = VERTEX_POINT ( 'NONE', #511 ) ;
#4 =( NAMED_UNIT ( * ) SI_UNIT ( $, .STERADIAN. ) SOLID_ANGLE_UNIT ( ) );
#5 =( NAMED_UNIT ( * ) PLANE_ANGLE_UNIT ( ) SI_UNIT ( $, .RADIAN. ) );
#6 = EDGE_CURVE ( 'NONE', #358, #725, #772, .T. ) ;
#7 = PRESENTATION_STYLE_ASSIGNMENT (( #786 ) ) ;
#8 = FACE_OUTER_BOUND ( 'NONE', #608, .T. ) ;
#9 = VERTEX_POINT ( 'NONE', #22 ) ;
#10 = AXIS2_PLACEMENT_3D ( 'NONE', #121, #372, #809 ) ;
#11 = FILL_AREA_STYLE ('',( #641 ) ) ;
#12 = DIRECTION ( 'NONE',  ( 1.000000000000000000, 0.000000000000000000, -1.836970198721028701E-16 ) ) ;
#13 = VECTOR ( 'NONE', #27, 1000.000000000000000 ) ;
#14 = ORIENTED_EDGE ( 'NONE', *, *, #273, .T. ) ;
#15 = FILL_AREA_STYLE_COLOUR ( '', #810 ) ;
#16 = FILL_AREA_STYLE ('',( #252 ) ) ;
#17 = EDGE_CURVE ( 'NONE', #192, #529, #201, .T. ) ;
#18 = DIRECTION ( 'NONE',  ( -1.734723475976807094E-16, 0.000000000000000000, 1.000000000000000000 ) ) ;
#19 = SURFACE_STYLE_USAGE ( .BOTH. , #182 ) ;
#20 = EDGE_LOOP ( 'NONE', ( #208, #576, #34, #639 ) ) ;
#21 = PRODUCT_DEFINITION ( '未知', '', #740, #647 ) ;
#22 = CARTESIAN_POINT ( 'NONE',  ( 0.9999999999999991118, 0.2500000000000000000, -5.000000000000000000 ) ) ;
#23 = UNCERTAINTY_MEASURE_WITH_UNIT (LENGTH_MEASURE( 1.000000000000000082E-05 ), #630, 'distance_accuracy_value', 'NONE');
#24 = FACE_OUTER_BOUND ( 'NONE', #405, .T. ) ;
#25 = ORIENTED_EDGE ( 'NONE', *, *, #803, .F. ) ;
#26 = STYLED_ITEM ( 'NONE', ( #171 ), #474 ) ;
#27 = DIRECTION ( 'NONE',  ( -1.000000000000000000, 0.000000000000000000, 0.000000000000000000 ) ) ;
#28 = PRESENTATION_LAYER_ASSIGNMENT (  '', '', ( #68 ) ) ;
#29 = EDGE_CURVE ( 'NONE', #421, #192, #680, .T. ) ;
#30 = LINE ( 'NONE', #288, #665 ) ;
#31 = ORIENTED_EDGE ( 'NONE', *, *, #54, .F. ) ;
#32 = CARTESIAN_POINT ( 'NONE',  ( -1.500000000000000666, 0.2500000000000000000, 0.000000000000000000 ) ) ;
#33 = FILL_AREA_STYLE_COLOUR ( '', #308 ) ;
#34 = ORIENTED_EDGE ( 'NONE', *, *, #452, .F. ) ;
#35 = SURFACE_SIDE_STYLE ('',( #352 ) ) ;
#36 = ORIENTED_EDGE ( 'NONE', *, *, #635, .F. ) ;
#37 = PRESENTATION_LAYER_ASSIGNMENT (  '', '', ( #255 ) ) ;
#38 =( GEOMETRIC_REPRESENTATION_CONTEXT ( 3 ) GLOBAL_UNCERTAINTY_ASSIGNED_CONTEXT ( ( #268 ) ) GLOBAL_UNIT_ASSIGNED_CONTEXT ( ( #584, #438, #71 ) ) REPRESENTATION_CONTEXT ( 'NONE', 'WORKASPACE' ) );
#39 = CARTESIAN_POINT ( 'NONE',  ( 0.000000000000000000, 0.000000000000000000, 1.000000000000000000 ) ) ;
#40 = FILL_AREA_STYLE_COLOUR ( '', #626 ) ;
#41 = COLOUR_RGB ( '',1.000000000000000000, 1.000000000000000000, 1.000000000000000000 ) ;
#42 = CIRCLE ( 'NONE', #89, 1.500000000000000222 ) ;
#43 = PRESENTATION_STYLE_ASSIGNMENT (( #213 ) ) ;
#44 =( NAMED_UNIT ( * ) PLANE_ANGLE_UNIT ( ) SI_UNIT ( $, .RADIAN. ) );
#45 = EDGE_CURVE ( 'NONE', #9, #529, #365, .T. ) ;
#46 = SURFACE_SIDE_STYLE ('',( #99 ) ) ;
#47 = DIRECTION ( 'NONE',  ( -4.336808689942017736E-17, 0.000000000000000000, 1.000000000000000000 ) ) ;
#48 = DIRECTION ( 'NONE',  ( -1.734723475976807094E-16, 0.000000000000000000, 1.000000000000000000 ) ) ;
#49 = LINE ( 'NONE', #111, #200 ) ;
#50 = CARTESIAN_POINT ( 'NONE',  ( -0.9999999999999983347, 0.2500000000000000000, -9.184850993605187881E-17 ) ) ;
#51 = FACE_OUTER_BOUND ( 'NONE', #583, .T. ) ;
#52 = AXIS2_PLACEMENT_3D ( 'NONE', #353, #96, #101 ) ;
#53 = LINE ( 'NONE', #754, #610 ) ;
#54 = EDGE_CURVE ( 'NONE', #148, #776, #306, .T. ) ;
#55 = MECHANICAL_DESIGN_GEOMETRIC_PRESENTATION_REPRESENTATION (  '', ( #102 ), #571 ) ;
#56 =( GEOMETRIC_REPRESENTATION_CONTEXT ( 3 ) GLOBAL_UNCERTAINTY_ASSIGNED_CONTEXT ( ( #79 ) ) GLOBAL_UNIT_ASSIGNED_CONTEXT ( ( #815, #386, #648 ) ) REPRESENTATION_CONTEXT ( 'NONE', 'WORKASPACE' ) );
#57 = CARTESIAN_POINT ( 'NONE',  ( 0.000000000000000000, 0.000000000000000000, 3.699999999999999734 ) ) ;
#58 = EDGE_CURVE ( 'NONE', #698, #3, #621, .T. ) ;
#59 = SURFACE_SIDE_STYLE ('',( #233 ) ) ;
#60 = DIRECTION ( 'NONE',  ( -3.035766082959412415E-16, -0.000000000000000000, -1.000000000000000000 ) ) ;
#61 = ORIENTED_EDGE ( 'NONE', *, *, #6, .T. ) ;
#62 = DIRECTION ( 'NONE',  ( 4.336808689942017736E-17, 0.000000000000000000, -1.000000000000000000 ) ) ;
#63 = CARTESIAN_POINT ( 'NONE',  ( 0.000000000000000000, 0.000000000000000000, 0.000000000000000000 ) ) ;
#64 =( NAMED_UNIT ( * ) PLANE_ANGLE_UNIT ( ) SI_UNIT ( $, .RADIAN. ) );
#65 = VECTOR ( 'NONE', #312, 1000.000000000000000 ) ;
#66 = ORIENTED_EDGE ( 'NONE', *, *, #789, .F. ) ;
#67 = SURFACE_STYLE_FILL_AREA ( #652 ) ;
#68 = STYLED_ITEM ( 'NONE', ( #587 ), #162 ) ;
#69 = EDGE_LOOP ( 'NONE', ( #14, #75, #319, #422 ) ) ;
#70 = FILL_AREA_STYLE ('',( #448 ) ) ;
#71 =( NAMED_UNIT ( * ) SI_UNIT ( $, .STERADIAN. ) SOLID_ANGLE_UNIT ( ) );
#72 = FACE_OUTER_BOUND ( 'NONE', #277, .T. ) ;
#73 = EDGE_LOOP ( 'NONE', ( #674, #724, #332, #324 ) ) ;
#74 =( LENGTH_UNIT ( ) NAMED_UNIT ( * ) SI_UNIT ( .MILLI., .METRE. ) );
#75 = ORIENTED_EDGE ( 'NONE', *, *, #58, .T. ) ;
#76 = DIRECTION ( 'NONE',  ( -1.000000000000000000, 0.000000000000000000, 3.035766082959412908E-16 ) ) ;
#77 = EDGE_CURVE ( 'NONE', #416, #327, #744, .T. ) ;
#78 = PRESENTATION_LAYER_ASSIGNMENT (  '', '', ( #582 ) ) ;
#79 = UNCERTAINTY_MEASURE_WITH_UNIT (LENGTH_MEASURE( 1.000000000000000082E-05 ), #815, 'distance_accuracy_value', 'NONE');
#80 = CARTESIAN_POINT ( 'NONE',  ( -1.499999999999999778, 1.322875655532295358, 1.000000000000000000 ) ) ;
#81 = SURFACE_STYLE_USAGE ( .BOTH. , #209 ) ;
#82 = DIRECTION ( 'NONE',  ( 1.000000000000000000, 0.000000000000000000, 0.000000000000000000 ) ) ;
#83 = CARTESIAN_POINT ( 'NONE',  ( -1.500000000000000444, 0.2500000000000000000, -3.500000000000000000 ) ) ;
#84 = AXIS2_PLACEMENT_3D ( 'NONE', #633, #760, #460 ) ;
#85 = UNCERTAINTY_MEASURE_WITH_UNIT (LENGTH_MEASURE( 1.000000000000000082E-05 ), #750, 'distance_accuracy_value', 'NONE');
#86 = COLOUR_RGB ( '',0.8509803921568627194, 0.8509803921568627194, 0.8509803921568627194 ) ;
#87 = EDGE_LOOP ( 'NONE', ( #91, #205, #603 ) ) ;
#88 = ORIENTED_EDGE ( 'NONE', *, *, #203, .F. ) ;
#89 = AXIS2_PLACEMENT_3D ( 'NONE', #137, #320, #237 ) ;
#90 = CARTESIAN_POINT ( 'NONE',  ( -1.499999999999999778, -1.322875655532295358, 1.000000000000000000 ) ) ;
#91 = ORIENTED_EDGE ( 'NONE', *, *, #273, .F. ) ;
#92 = FILL_AREA_STYLE ('',( #723 ) ) ;
#93 = ORIENTED_EDGE ( 'NONE', *, *, #779, .F. ) ;
#94 = VERTEX_POINT ( 'NONE', #812 ) ;
#95 = LINE ( 'NONE', #612, #396 ) ;
#96 = DIRECTION ( 'NONE',  ( 1.000000000000000000, -0.000000000000000000, 1.734723475976807094E-16 ) ) ;
#97 = EDGE_CURVE ( 'NONE', #669, #594, #432, .T. ) ;
#98 = FILL_AREA_STYLE_COLOUR ( '', #412 ) ;
#99 = SURFACE_STYLE_FILL_AREA ( #679 ) ;
#100 = CARTESIAN_POINT ( 'NONE',  ( 0.9999999999999991118, 0.2500000000000000000, -5.000000000000000000 ) ) ;
#101 = DIRECTION ( 'NONE',  ( 1.734723475976807094E-16, 0.000000000000000000, -1.000000000000000000 ) ) ;
#102 = STYLED_ITEM ( 'NONE', ( #702 ), #149 ) ;
#103 = SURFACE_STYLE_FILL_AREA ( #214 ) ;
#104 = PRESENTATION_STYLE_ASSIGNMENT (( #295 ) ) ;
#105 = DIRECTION ( 'NONE',  ( -1.000000000000000000, 1.224646799147353207E-16, 0.000000000000000000 ) ) ;
#106 = PRESENTATION_STYLE_ASSIGNMENT (( #504 ) ) ;
#107 =( NAMED_UNIT ( * ) SI_UNIT ( $, .STERADIAN. ) SOLID_ANGLE_UNIT ( ) );
#108 = DIRECTION ( 'NONE',  ( 1.000000000000000000, 0.000000000000000000, 0.000000000000000000 ) ) ;
#109 = EDGE_CURVE ( 'NONE', #94, #594, #49, .T. ) ;
#110 =( LENGTH_UNIT ( ) NAMED_UNIT ( * ) SI_UNIT ( .MILLI., .METRE. ) );
#111 = CARTESIAN_POINT ( 'NONE',  ( -1.500000000000000444, 0.2500000000000000000, -3.500000000000000000 ) ) ;
#112 = SURFACE_STYLE_USAGE ( .BOTH. , #521 ) ;
#113 = LINE ( 'NONE', #766, #784 ) ;
#114 = MECHANICAL_DESIGN_GEOMETRIC_PRESENTATION_REPRESENTATION (  '', ( #625 ), #272 ) ;
#115 = DIRECTION ( 'NONE',  ( -3.035766082959412415E-16, -0.000000000000000000, -1.000000000000000000 ) ) ;
#116 = STYLED_ITEM ( 'NONE', ( #739 ), #228 ) ;
#117 = DIRECTION ( 'NONE',  ( -4.336808689942017736E-16, -0.000000000000000000, -1.000000000000000000 ) ) ;
#118 = PRESENTATION_LAYER_ASSIGNMENT (  '', '', ( #445 ) ) ;
#119 = EDGE_LOOP ( 'NONE', ( #376, #660, #478, #400 ) ) ;
#120 = LINE ( 'NONE', #495, #816 ) ;
#121 = CARTESIAN_POINT ( 'NONE',  ( 0.000000000000000000, 0.000000000000000000, 3.699999999999999734 ) ) ;
#122 = VERTEX_POINT ( 'NONE', #560 ) ;
#123 = FILL_AREA_STYLE_COLOUR ( '', #244 ) ;
#124 = EDGE_CURVE ( 'NONE', #128, #725, #753, .T. ) ;
#125 = PRESENTATION_LAYER_ASSIGNMENT (  '', '', ( #197 ) ) ;
#126 = ORIENTED_EDGE ( 'NONE', *, *, #29, .F. ) ;
#127 = DIRECTION ( 'NONE',  ( -0.000000000000000000, -0.000000000000000000, -1.000000000000000000 ) ) ;
#128 = VERTEX_POINT ( 'NONE', #441 ) ;
#129 = VECTOR ( 'NONE', #226, 1000.000000000000000 ) ;
#130 = MECHANICAL_DESIGN_GEOMETRIC_PRESENTATION_REPRESENTATION (  '', ( #445 ), #38 ) ;
#131 = ORIENTED_EDGE ( 'NONE', *, *, #45, .F. ) ;
#132 = CARTESIAN_POINT ( 'NONE',  ( -1.499999999999999778, 1.322875655532295358, 0.000000000000000000 ) ) ;
#133 = LINE ( 'NONE', #778, #616 ) ;
#134 = ADVANCED_FACE ( 'NONE', ( #588 ), #385, .F. ) ;
#135 = UNCERTAINTY_MEASURE_WITH_UNIT (LENGTH_MEASURE( 1.000000000000000082E-05 ), #686, 'distance_accuracy_value', 'NONE');
#136 = AXIS2_PLACEMENT_3D ( 'NONE', #57, #684, #105 ) ;
#137 = CARTESIAN_POINT ( 'NONE',  ( 0.000000000000000000, 0.000000000000000000, 3.699999999999999734 ) ) ;
#138 =( NAMED_UNIT ( * ) PLANE_ANGLE_UNIT ( ) SI_UNIT ( $, .RADIAN. ) );
#139 = CARTESIAN_POINT ( 'NONE',  ( 0.000000000000000000, 0.000000000000000000, 1.000000000000000000 ) ) ;
#140 = STYLED_ITEM ( 'NONE', ( #43 ), #224 ) ;
#141 = CARTESIAN_POINT ( 'NONE',  ( -1.499999999999999778, -7.279061023096542886E-17, 1.000000000000000000 ) ) ;
#142 = STYLED_ITEM ( 'NONE', ( #265 ), #241 ) ;
#143 = UNCERTAINTY_MEASURE_WITH_UNIT (LENGTH_MEASURE( 1.000000000000000082E-05 ), #74, 'distance_accuracy_value', 'NONE');
#144 = SURFACE_STYLE_USAGE ( .BOTH. , #663 ) ;
#145 = LINE ( 'NONE', #270, #628 ) ;
#146 =( NAMED_UNIT ( * ) PLANE_ANGLE_UNIT ( ) SI_UNIT ( $, .RADIAN. ) );
#147 = ORIENTED_EDGE ( 'NONE', *, *, #156, .T. ) ;
#148 = VERTEX_POINT ( 'NONE', #132 ) ;
#149 = ADVANCED_FACE ( 'NONE', ( #390 ), #572, .T. ) ;
#150 = FACE_OUTER_BOUND ( 'NONE', #488, .T. ) ;
#151 = CARTESIAN_POINT ( 'NONE',  ( -1.500000000000000444, -0.2500000000000000000, -5.000000000000000000 ) ) ;
#152 = ORIENTED_EDGE ( 'NONE', *, *, #124, .T. ) ;
#153 = CIRCLE ( 'NONE', #710, 2.000000000000000000 ) ;
#154 = DIRECTION ( 'NONE',  ( -0.000000000000000000, -1.000000000000000000, -0.000000000000000000 ) ) ;
#155 = SURFACE_STYLE_USAGE ( .BOTH. , #496 ) ;
#156 = EDGE_CURVE ( 'NONE', #776, #699, #145, .T. ) ;
#157 = CARTESIAN_POINT ( 'NONE',  ( 0.000000000000000000, 0.000000000000000000, 3.699999999999999734 ) ) ;
#158 = SURFACE_SIDE_STYLE ('',( #796 ) ) ;
#159 = PRESENTATION_STYLE_ASSIGNMENT (( #431 ) ) ;
#160 = SURFACE_STYLE_USAGE ( .BOTH. , #158 ) ;
#161 =( GEOMETRIC_REPRESENTATION_CONTEXT ( 3 ) GLOBAL_UNCERTAINTY_ASSIGNED_CONTEXT ( ( #722 ) ) GLOBAL_UNIT_ASSIGNED_CONTEXT ( ( #564, #187, #646 ) ) REPRESENTATION_CONTEXT ( 'NONE', 'WORKASPACE' ) );
#162 = ADVANCED_FACE ( 'NONE', ( #150 ), #475, .T. ) ;
#163 =( GEOMETRIC_REPRESENTATION_CONTEXT ( 3 ) GLOBAL_UNCERTAINTY_ASSIGNED_CONTEXT ( ( #461 ) ) GLOBAL_UNIT_ASSIGNED_CONTEXT ( ( #477, #146, #342 ) ) REPRESENTATION_CONTEXT ( 'NONE', 'WORKASPACE' ) );
#164 = CARTESIAN_POINT ( 'NONE',  ( 0.000000000000000000, 0.000000000000000000, 1.000000000000000000 ) ) ;
#165 = DIRECTION ( 'NONE',  ( 1.000000000000000000, 0.000000000000000000, 0.000000000000000000 ) ) ;
#166 = VECTOR ( 'NONE', #309, 1000.000000000000000 ) ;
#167 =( LENGTH_UNIT ( ) NAMED_UNIT ( * ) SI_UNIT ( .MILLI., .METRE. ) );
#168 = DIRECTION ( 'NONE',  ( 0.000000000000000000, -0.000000000000000000, 1.000000000000000000 ) ) ;
#169 = DIRECTION ( 'NONE',  ( -0.000000000000000000, -0.000000000000000000, -1.000000000000000000 ) ) ;
#170 = CARTESIAN_POINT ( 'NONE',  ( -1.499999999999999778, -7.279061023096542886E-17, 1.000000000000000000 ) ) ;
#171 = PRESENTATION_STYLE_ASSIGNMENT (( #755 ) ) ;
#172 = AXIS2_PLACEMENT_3D ( 'NONE', #543, #220, #487 ) ;
#173 = PRESENTATION_STYLE_ASSIGNMENT (( #112 ) ) ;
#174 = PRESENTATION_LAYER_ASSIGNMENT (  '', '', ( #345 ) ) ;
#175 =( NAMED_UNIT ( * ) PLANE_ANGLE_UNIT ( ) SI_UNIT ( $, .RADIAN. ) );
#176 = FACE_OUTER_BOUND ( 'NONE', #712, .T. ) ;
#177 = CARTESIAN_POINT ( 'NONE',  ( 1.499999999999999112, 0.2500000000000000000, -5.000000000000000000 ) ) ;
#178 = STYLED_ITEM ( 'NONE', ( #173 ), #757 ) ;
#179 = MECHANICAL_DESIGN_GEOMETRIC_PRESENTATION_REPRESENTATION (  '', ( #274 ), #408 ) ;
#180 =( GEOMETRIC_REPRESENTATION_CONTEXT ( 3 ) GLOBAL_UNCERTAINTY_ASSIGNED_CONTEXT ( ( #23 ) ) GLOBAL_UNIT_ASSIGNED_CONTEXT ( ( #630, #444, #690 ) ) REPRESENTATION_CONTEXT ( 'NONE', 'WORKASPACE' ) );
#181 = ORIENTED_EDGE ( 'NONE', *, *, #299, .F. ) ;
#182 = SURFACE_SIDE_STYLE ('',( #67 ) ) ;
#183 = LINE ( 'NONE', #716, #629 ) ;
#184 = STYLED_ITEM ( 'NONE', ( #104 ), #426 ) ;
#185 = VECTOR ( 'NONE', #339, 1000.000000000000000 ) ;
#186 = EDGE_CURVE ( 'NONE', #591, #122, #191, .T. ) ;
#187 =( NAMED_UNIT ( * ) PLANE_ANGLE_UNIT ( ) SI_UNIT ( $, .RADIAN. ) );
#188 = ORIENTED_EDGE ( 'NONE', *, *, #439, .F. ) ;
#189 = CARTESIAN_POINT ( 'NONE',  ( -1.500000000000000444, 0.2500000000000000000, -5.000000000000000000 ) ) ;
#190 = EDGE_CURVE ( 'NONE', #9, #533, #714, .T. ) ;
#191 = LINE ( 'NONE', #267, #559 ) ;
#192 = VERTEX_POINT ( 'NONE', #262 ) ;
#193 = UNCERTAINTY_MEASURE_WITH_UNIT (LENGTH_MEASURE( 1.000000000000000082E-05 ), #285, 'distance_accuracy_value', 'NONE');
#194 = CARTESIAN_POINT ( 'NONE',  ( 1.499999999999999112, 0.2500000000000000000, -5.000000000000000000 ) ) ;
#195 = ORIENTED_EDGE ( 'NONE', *, *, #620, .T. ) ;
#196 =( NAMED_UNIT ( * ) SI_UNIT ( $, .STERADIAN. ) SOLID_ANGLE_UNIT ( ) );
#197 = STYLED_ITEM ( 'NONE', ( #519 ), #568 ) ;
#198 =( NAMED_UNIT ( * ) SI_UNIT ( $, .STERADIAN. ) SOLID_ANGLE_UNIT ( ) );
#199 = STYLED_ITEM ( 'NONE', ( #106 ), #465 ) ;
#200 = VECTOR ( 'NONE', #683, 1000.000000000000000 ) ;
#201 = LINE ( 'NONE', #402, #13 ) ;
#202 = UNCERTAINTY_MEASURE_WITH_UNIT (LENGTH_MEASURE( 1.000000000000000082E-05 ), #467, 'distance_accuracy_value', 'NONE');
#203 = EDGE_CURVE ( 'NONE', #780, #94, #388, .T. ) ;
#204 = SURFACE_STYLE_USAGE ( .BOTH. , #550 ) ;
#205 = ORIENTED_EDGE ( 'NONE', *, *, #707, .T. ) ;
#206 = FACE_OUTER_BOUND ( 'NONE', #73, .T. ) ;
#207 = DIRECTION ( 'NONE',  ( 0.000000000000000000, 0.000000000000000000, -1.000000000000000000 ) ) ;
#208 = ORIENTED_EDGE ( 'NONE', *, *, #578, .F. ) ;
#209 = SURFACE_SIDE_STYLE ('',( #718 ) ) ;
#210 = DIRECTION ( 'NONE',  ( 1.000000000000000000, 0.000000000000000000, 0.000000000000000000 ) ) ;
#211 = DIRECTION ( 'NONE',  ( -1.000000000000000000, 0.000000000000000000, 0.000000000000000000 ) ) ;
#212 = MECHANICAL_DESIGN_GEOMETRIC_PRESENTATION_REPRESENTATION (  '', ( #580 ), #703 ) ;
#213 = SURFACE_STYLE_USAGE ( .BOTH. , #752 ) ;
#214 = FILL_AREA_STYLE ('',( #682 ) ) ;
#215 = AXIS2_PLACEMENT_3D ( 'NONE', #259, #523, #251 ) ;
#216 = ADVANCED_FACE ( 'NONE', ( #206 ), #427, .T. ) ;
#217 = COLOUR_RGB ( '',1.000000000000000000, 1.000000000000000000, 1.000000000000000000 ) ;
#218 = VECTOR ( 'NONE', #775, 1000.000000000000000 ) ;
#219 = FILL_AREA_STYLE ('',( #347 ) ) ;
#220 = DIRECTION ( 'NONE',  ( 0.000000000000000000, 1.000000000000000000, 0.000000000000000000 ) ) ;
#221 = VERTEX_POINT ( 'NONE', #605 ) ;
#222 = ORIENTED_EDGE ( 'NONE', *, *, #17, .F. ) ;
#223 = DIRECTION ( 'NONE',  ( 0.000000000000000000, -0.000000000000000000, 1.000000000000000000 ) ) ;
#224 = MANIFOLD_SOLID_BREP ( '凸台-拉伸1[2]', #708 ) ;
#225 = VECTOR ( 'NONE', #48, 1000.000000000000000 ) ;
#226 = DIRECTION ( 'NONE',  ( 4.852707348731029207E-17, -1.000000000000000000, 0.000000000000000000 ) ) ;
#227 = SURFACE_STYLE_USAGE ( .BOTH. , #808 ) ;
#228 = MANIFOLD_SOLID_BREP ( '圆角1', #600 ) ;
#229 = DIRECTION ( 'NONE',  ( -1.000000000000000000, 0.000000000000000000, 0.000000000000000000 ) ) ;
#230 = APPLICATION_PROTOCOL_DEFINITION ( 'draft international standard', 'automotive_design', 1998, #435 ) ;
#231 =( GEOMETRIC_REPRESENTATION_CONTEXT ( 3 ) GLOBAL_UNCERTAINTY_ASSIGNED_CONTEXT ( ( #258 ) ) GLOBAL_UNIT_ASSIGNED_CONTEXT ( ( #592, #526, #196 ) ) REPRESENTATION_CONTEXT ( 'NONE', 'WORKASPACE' ) );
#232 = DIRECTION ( 'NONE',  ( -0.000000000000000000, -1.000000000000000000, -0.000000000000000000 ) ) ;
#233 = SURFACE_STYLE_FILL_AREA ( #631 ) ;
#234 =( NAMED_UNIT ( * ) PLANE_ANGLE_UNIT ( ) SI_UNIT ( $, .RADIAN. ) );
#235 = CARTESIAN_POINT ( 'NONE',  ( 1.500000000000000222, 1.836970198721030181E-16, 5.200000000000000178 ) ) ;
#236 = DIRECTION ( 'NONE',  ( -0.000000000000000000, -0.000000000000000000, -1.000000000000000000 ) ) ;
#237 = DIRECTION ( 'NONE',  ( -1.000000000000000000, 0.000000000000000000, 0.000000000000000000 ) ) ;
#238 = CARTESIAN_POINT ( 'NONE',  ( -1.500000000000000222, 0.000000000000000000, 5.200000000000000178 ) ) ;
#239 =( NAMED_UNIT ( * ) PLANE_ANGLE_UNIT ( ) SI_UNIT ( $, .RADIAN. ) );
#240 =( GEOMETRIC_REPRESENTATION_CONTEXT ( 3 ) GLOBAL_UNCERTAINTY_ASSIGNED_CONTEXT ( ( #468 ) ) GLOBAL_UNIT_ASSIGNED_CONTEXT ( ( #167, #64, #509 ) ) REPRESENTATION_CONTEXT ( 'NONE', 'WORKASPACE' ) );
#241 = ADVANCED_FACE ( 'NONE', ( #51 ), #423, .F. ) ;
#242 = VERTEX_POINT ( 'NONE', #177 ) ;
#243 =( GEOMETRIC_REPRESENTATION_CONTEXT ( 3 ) GLOBAL_UNCERTAINTY_ASSIGNED_CONTEXT ( ( #391 ) ) GLOBAL_UNIT_ASSIGNED_CONTEXT ( ( #110, #502, #440 ) ) REPRESENTATION_CONTEXT ( 'NONE', 'WORKASPACE' ) );
#244 = COLOUR_RGB ( '',0.8509803921568627194, 0.8509803921568627194, 0.8509803921568627194 ) ;
#245 = CARTESIAN_POINT ( 'NONE',  ( 1.499999999999999112, 0.2500000000000000000, -5.000000000000000000 ) ) ;
#246 = VECTOR ( 'NONE', #397, 1000.000000000000000 ) ;
#247 = ORIENTED_EDGE ( 'NONE', *, *, #97, .T. ) ;
#248 = SURFACE_SIDE_STYLE ('',( #382 ) ) ;
#249 = FACE_OUTER_BOUND ( 'NONE', #87, .T. ) ;
#250 = ORIENTED_EDGE ( 'NONE', *, *, #452, .T. ) ;
#251 = DIRECTION ( 'NONE',  ( -1.000000000000000000, 0.000000000000000000, 6.123233995736770966E-17 ) ) ;
#252 = FILL_AREA_STYLE_COLOUR ( '', #493 ) ;
#253 = PRESENTATION_LAYER_ASSIGNMENT (  '', '', ( #625 ) ) ;
#254 = SURFACE_STYLE_FILL_AREA ( #307 ) ;
#255 = STYLED_ITEM ( 'NONE', ( #490 ), #661 ) ;
#256 = ORIENTED_EDGE ( 'NONE', *, *, #596, .F. ) ;
#257 =( NAMED_UNIT ( * ) SI_UNIT ( $, .STERADIAN. ) SOLID_ANGLE_UNIT ( ) );
#258 = UNCERTAINTY_MEASURE_WITH_UNIT (LENGTH_MEASURE( 1.000000000000000082E-05 ), #592, 'distance_accuracy_value', 'NONE');
#259 = CARTESIAN_POINT ( 'NONE',  ( 1.500000000000000666, 0.2500000000000000000, -3.673940397442061347E-16 ) ) ;
#260 = MECHANICAL_DESIGN_GEOMETRIC_PRESENTATION_REPRESENTATION (  '', ( #68 ), #231 ) ;
#261 = AXIS2_PLACEMENT_3D ( 'NONE', #157, #726, #207 ) ;
#262 = CARTESIAN_POINT ( 'NONE',  ( 1.499999999999999112, -0.2500000000000000000, -5.000000000000000000 ) ) ;
#263 = ORIENTED_EDGE ( 'NONE', *, *, #696, .F. ) ;
#264 = CARTESIAN_POINT ( 'NONE',  ( 0.000000000000000000, 0.2500000000000000000, 0.000000000000000000 ) ) ;
#265 = PRESENTATION_STYLE_ASSIGNMENT (( #518 ) ) ;
#266 = SURFACE_STYLE_FILL_AREA ( #16 ) ;
#267 = CARTESIAN_POINT ( 'NONE',  ( -1.499999999999999778, -1.322875655532295358, 1.000000000000000000 ) ) ;
#268 = UNCERTAINTY_MEASURE_WITH_UNIT (LENGTH_MEASURE( 1.000000000000000082E-05 ), #584, 'distance_accuracy_value', 'NONE');
#269 = SURFACE_SIDE_STYLE ('',( #541 ) ) ;
#270 = CARTESIAN_POINT ( 'NONE',  ( -1.500000000000000666, 0.2500000000000000000, 0.000000000000000000 ) ) ;
#271 = LINE ( 'NONE', #283, #449 ) ;
#272 =( GEOMETRIC_REPRESENTATION_CONTEXT ( 3 ) GLOBAL_UNCERTAINTY_ASSIGNED_CONTEXT ( ( #135 ) ) GLOBAL_UNIT_ASSIGNED_CONTEXT ( ( #686, #44, #492 ) ) REPRESENTATION_CONTEXT ( 'NONE', 'WORKASPACE' ) );
#273 = EDGE_CURVE ( 'NONE', #128, #698, #42, .T. ) ;
#274 = STYLED_ITEM ( 'NONE', ( #800 ), #642 ) ;
#275 =( LENGTH_UNIT ( ) NAMED_UNIT ( * ) SI_UNIT ( .MILLI., .METRE. ) );
#276 = SURFACE_STYLE_FILL_AREA ( #11 ) ;
#277 = EDGE_LOOP ( 'NONE', ( #222, #126, #656, #25 ) ) ;
#278 = DIRECTION ( 'NONE',  ( 0.000000000000000000, 0.000000000000000000, 1.000000000000000000 ) ) ;
#279 = PRESENTATION_LAYER_ASSIGNMENT (  '', '', ( #614 ) ) ;
#280 = UNCERTAINTY_MEASURE_WITH_UNIT (LENGTH_MEASURE( 1.000000000000000082E-05 ), #419, 'distance_accuracy_value', 'NONE');
#281 = DIRECTION ( 'NONE',  ( 1.000000000000000000, 0.000000000000000000, 0.000000000000000000 ) ) ;
#282 = ORIENTED_EDGE ( 'NONE', *, *, #311, .T. ) ;
#283 = CARTESIAN_POINT ( 'NONE',  ( 1.499999999999999112, 0.2500000000000000000, -5.000000000000000000 ) ) ;
#284 = ADVANCED_FACE ( 'NONE', ( #579 ), #644, .F. ) ;
#285 =( LENGTH_UNIT ( ) NAMED_UNIT ( * ) SI_UNIT ( .MILLI., .METRE. ) );
#286 = APPLICATION_PROTOCOL_DEFINITION ( 'draft international standard', 'automotive_design', 1998, #503 ) ;
#287 =( NAMED_UNIT ( * ) SI_UNIT ( $, .STERADIAN. ) SOLID_ANGLE_UNIT ( ) );
#288 = CARTESIAN_POINT ( 'NONE',  ( -1.000000000000000444, 0.2500000000000000000, -3.500000000000000000 ) ) ;
#289 = COLOUR_RGB ( '',1.000000000000000000, 1.000000000000000000, 1.000000000000000000 ) ;
#290 = VERTEX_POINT ( 'NONE', #769 ) ;
#291 = CARTESIAN_POINT ( 'NONE',  ( 0.000000000000000000, 0.000000000000000000, 1.000000000000000000 ) ) ;
#292 = MECHANICAL_DESIGN_GEOMETRIC_PRESENTATION_REPRESENTATION (  '', ( #345 ), #655 ) ;
#293 = SURFACE_SIDE_STYLE ('',( #601 ) ) ;
#294 = DIRECTION ( 'NONE',  ( -0.000000000000000000, -0.000000000000000000, -1.000000000000000000 ) ) ;
#295 = SURFACE_STYLE_USAGE ( .BOTH. , #46 ) ;
#296 = CARTESIAN_POINT ( 'NONE',  ( -1.499999999999999778, -7.279061023096542886E-17, 0.000000000000000000 ) ) ;
#297 = FILL_AREA_STYLE_COLOUR ( '', #86 ) ;
#298 = SURFACE_SIDE_STYLE ('',( #799 ) ) ;
#299 = EDGE_CURVE ( 'NONE', #699, #327, #183, .T. ) ;
#300 = MECHANICAL_DESIGN_GEOMETRIC_PRESENTATION_REPRESENTATION (  '', ( #178 ), #161 ) ;
#301 =( NAMED_UNIT ( * ) PLANE_ANGLE_UNIT ( ) SI_UNIT ( $, .RADIAN. ) );
#302 = DIRECTION ( 'NONE',  ( -1.000000000000000000, -0.000000000000000000, -0.000000000000000000 ) ) ;
#303 = FILL_AREA_STYLE_COLOUR ( '', #595 ) ;
#304 = CIRCLE ( 'NONE', #323, 1.500000000000000222 ) ;
#305 =( NAMED_UNIT ( * ) SI_UNIT ( $, .STERADIAN. ) SOLID_ANGLE_UNIT ( ) );
#306 = LINE ( 'NONE', #296, #129 ) ;
#307 = FILL_AREA_STYLE ('',( #689 ) ) ;
#308 = COLOUR_RGB ( '',1.000000000000000000, 1.000000000000000000, 1.000000000000000000 ) ;
#309 = DIRECTION ( 'NONE',  ( -0.000000000000000000, -0.000000000000000000, -1.000000000000000000 ) ) ;
#310 = SURFACE_STYLE_FILL_AREA ( #555 ) ;
#311 = EDGE_CURVE ( 'NONE', #94, #776, #524, .T. ) ;
#312 = DIRECTION ( 'NONE',  ( -4.336808689942017736E-16, -0.000000000000000000, -1.000000000000000000 ) ) ;
#313 = ORIENTED_EDGE ( 'NONE', *, *, #58, .F. ) ;
#314 = ORIENTED_EDGE ( 'NONE', *, *, #747, .F. ) ;
#315 =( LENGTH_UNIT ( ) NAMED_UNIT ( * ) SI_UNIT ( .MILLI., .METRE. ) );
#316 = AXIS2_PLACEMENT_3D ( 'NONE', #562, #506, #62 ) ;
#317 = PRESENTATION_LAYER_ASSIGNMENT (  '', '', ( #199 ) ) ;
#318 = EDGE_CURVE ( 'NONE', #242, #9, #133, .T. ) ;
#319 = ORIENTED_EDGE ( 'NONE', *, *, #814, .T. ) ;
#320 = DIRECTION ( 'NONE',  ( -0.000000000000000000, -0.000000000000000000, -1.000000000000000000 ) ) ;
#321 = ORIENTED_EDGE ( 'NONE', *, *, #54, .T. ) ;
#322 = PRESENTATION_STYLE_ASSIGNMENT (( #19 ) ) ;
#323 = AXIS2_PLACEMENT_3D ( 'NONE', #607, #602, #472 ) ;
#324 = ORIENTED_EDGE ( 'NONE', *, *, #186, .T. ) ;
#325 = FILL_AREA_STYLE ('',( #505 ) ) ;
#326 = CARTESIAN_POINT ( 'NONE',  ( 1.500000000000000666, -0.2500000000000000000, -3.673940397442061347E-16 ) ) ;
#327 = VERTEX_POINT ( 'NONE', #383 ) ;
#328 = VECTOR ( 'NONE', #18, 1000.000000000000000 ) ;
#329 = VECTOR ( 'NONE', #476, 1000.000000000000000 ) ;
#330 = FILL_AREA_STYLE_COLOUR ( '', #217 ) ;
#331 = CARTESIAN_POINT ( 'NONE',  ( -1.499999999999999778, -7.279061023096542886E-17, 0.000000000000000000 ) ) ;
#332 = ORIENTED_EDGE ( 'NONE', *, *, #380, .F. ) ;
#333 = CARTESIAN_POINT ( 'NONE',  ( -0.9999999999999997780, 0.2500000000000000000, -3.500000000000000000 ) ) ;
#334 = ADVANCED_BREP_SHAPE_REPRESENTATION ( 'LED-TH_BD4.0-P2.50-H6.0-RD', ( #228, #224, #530 ), #767 ) ;
#335 = UNCERTAINTY_MEASURE_WITH_UNIT (LENGTH_MEASURE( 1.000000000000000082E-05 ), #805, 'distance_accuracy_value', 'NONE');
#336 = CARTESIAN_POINT ( 'NONE',  ( -1.000000000000000444, 0.2500000000000000000, -5.000000000000000000 ) ) ;
#337 = SURFACE_SIDE_STYLE ('',( #276 ) ) ;
#338 = ORIENTED_EDGE ( 'NONE', *, *, #399, .T. ) ;
#339 = DIRECTION ( 'NONE',  ( -1.000000000000000000, -0.000000000000000000, -0.000000000000000000 ) ) ;
#340 = VECTOR ( 'NONE', #47, 1000.000000000000000 ) ;
#341 = SPHERICAL_SURFACE ( 'NONE', #547, 1.500000000000000000 ) ;
#342 =( NAMED_UNIT ( * ) SI_UNIT ( $, .STERADIAN. ) SOLID_ANGLE_UNIT ( ) );
#343 = ORIENTED_EDGE ( 'NONE', *, *, #318, .T. ) ;
#344 = ORIENTED_EDGE ( 'NONE', *, *, #6, .F. ) ;
#345 = STYLED_ITEM ( 'NONE', ( #599 ), #407 ) ;
#346 = EDGE_CURVE ( 'NONE', #358, #148, #713, .T. ) ;
#347 = FILL_AREA_STYLE_COLOUR ( '', #733 ) ;
#348 = CARTESIAN_POINT ( 'NONE',  ( 0.000000000000000000, 0.000000000000000000, 3.699999999999999734 ) ) ;
#349 = ORIENTED_EDGE ( 'NONE', *, *, #707, .F. ) ;
#350 = EDGE_LOOP ( 'NONE', ( #282, #147, #373, #768 ) ) ;
#351 =( NAMED_UNIT ( * ) SI_UNIT ( $, .STERADIAN. ) SOLID_ANGLE_UNIT ( ) );
#352 = SURFACE_STYLE_FILL_AREA ( #92 ) ;
#353 = CARTESIAN_POINT ( 'NONE',  ( 0.9999999999999991118, 0.2500000000000000000, -5.000000000000000000 ) ) ;
#354 = ORIENTED_EDGE ( 'NONE', *, *, #186, .F. ) ;
#355 = CARTESIAN_POINT ( 'NONE',  ( 0.000000000000000000, 0.000000000000000000, 3.699999999999999734 ) ) ;
#356 =( NAMED_UNIT ( * ) PLANE_ANGLE_UNIT ( ) SI_UNIT ( $, .RADIAN. ) );
#357 = MECHANICAL_DESIGN_GEOMETRIC_PRESENTATION_REPRESENTATION (  '', ( #26 ), #240 ) ;
#358 = VERTEX_POINT ( 'NONE', #80 ) ;
#359 = FILL_AREA_STYLE ('',( #98 ) ) ;
#360 = MECHANICAL_DESIGN_GEOMETRIC_PRESENTATION_REPRESENTATION (  '', ( #199 ), #470 ) ;
#361 = COLOUR_RGB ( '',1.000000000000000000, 1.000000000000000000, 1.000000000000000000 ) ;
#362 = FILL_AREA_STYLE_COLOUR ( '', #41 ) ;
#363 = PRESENTATION_STYLE_ASSIGNMENT (( #434 ) ) ;
#364 = EDGE_CURVE ( 'NONE', #416, #122, #369, .T. ) ;
#365 = LINE ( 'NONE', #100, #748 ) ;
#366 = PRESENTATION_STYLE_ASSIGNMENT (( #227 ) ) ;
#367 = SURFACE_SIDE_STYLE ('',( #573 ) ) ;
#368 = PLANE ( 'NONE',  #84 ) ;
#369 = LINE ( 'NONE', #331, #329 ) ;
#370 = ADVANCED_FACE ( 'NONE', ( #795 ), #341, .T. ) ;
#371 = ORIENTED_EDGE ( 'NONE', *, *, #364, .T. ) ;
#372 = DIRECTION ( 'NONE',  ( 0.000000000000000000, 1.000000000000000000, 0.000000000000000000 ) ) ;
#373 = ORIENTED_EDGE ( 'NONE', *, *, #687, .T. ) ;
#374 = DIRECTION ( 'NONE',  ( -0.000000000000000000, -1.000000000000000000, -0.000000000000000000 ) ) ;
#375 = VECTOR ( 'NONE', #585, 1000.000000000000000 ) ;
#376 = ORIENTED_EDGE ( 'NONE', *, *, #803, .T. ) ;
#377 = COLOUR_RGB ( '',0.8509803921568627194, 0.8509803921568627194, 0.8509803921568627194 ) ;
#378 =( NAMED_UNIT ( * ) SI_UNIT ( $, .STERADIAN. ) SOLID_ANGLE_UNIT ( ) );
#379 = VECTOR ( 'NONE', #169, 1000.000000000000000 ) ;
#380 = EDGE_CURVE ( 'NONE', #591, #358, #153, .T. ) ;
#381 = EDGE_LOOP ( 'NONE', ( #343, #738, #788, #764 ) ) ;
#382 = SURFACE_STYLE_FILL_AREA ( #70 ) ;
#383 = CARTESIAN_POINT ( 'NONE',  ( -0.9999999999999983347, -0.2500000000000000000, -9.184850993605187881E-17 ) ) ;
#384 = DIRECTION ( 'NONE',  ( -0.000000000000000000, 0.000000000000000000, 1.000000000000000000 ) ) ;
#385 = PLANE ( 'NONE',  #640 ) ;
#386 =( NAMED_UNIT ( * ) PLANE_ANGLE_UNIT ( ) SI_UNIT ( $, .RADIAN. ) );
#387 = VECTOR ( 'NONE', #537, 1000.000000000000000 ) ;
#388 = LINE ( 'NONE', #83, #185 ) ;
#389 = AXIS2_PLACEMENT_3D ( 'NONE', #535, #420, #223 ) ;
#390 = FACE_OUTER_BOUND ( 'NONE', #350, .T. ) ;
#391 = UNCERTAINTY_MEASURE_WITH_UNIT (LENGTH_MEASURE( 1.000000000000000082E-05 ), #110, 'distance_accuracy_value', 'NONE');
#392 = EDGE_CURVE ( 'NONE', #290, #421, #95, .T. ) ;
#393 = CARTESIAN_POINT ( 'NONE',  ( -1.499999999999999778, 1.322875655532295358, 1.000000000000000000 ) ) ;
#394 = COLOUR_RGB ( '',1.000000000000000000, 1.000000000000000000, 1.000000000000000000 ) ;
#395 = PRODUCT_DEFINITION_SHAPE ( 'NONE', 'NONE',  #21 ) ;
#396 = VECTOR ( 'NONE', #729, 1000.000000000000000 ) ;
#397 = DIRECTION ( 'NONE',  ( 4.852707348731029207E-17, -1.000000000000000000, 0.000000000000000000 ) ) ;
#398 = SURFACE_STYLE_FILL_AREA ( #409 ) ;
#399 = EDGE_CURVE ( 'NONE', #698, #522, #510, .T. ) ;
#400 = ORIENTED_EDGE ( 'NONE', *, *, #45, .T. ) ;
#401 = DIRECTION ( 'NONE',  ( 1.000000000000000000, 0.000000000000000000, 0.000000000000000000 ) ) ;
#402 = CARTESIAN_POINT ( 'NONE',  ( 1.499999999999999112, -0.2500000000000000000, -5.000000000000000000 ) ) ;
#403 = UNCERTAINTY_MEASURE_WITH_UNIT (LENGTH_MEASURE( 1.000000000000000082E-05 ), #480, 'distance_accuracy_value', 'NONE');
#404 = PLANE ( 'NONE',  #172 ) ;
#405 = EDGE_LOOP ( 'NONE', ( #250, #256, #417, #517 ) ) ;
#406 = ORIENTED_EDGE ( 'NONE', *, *, #109, .F. ) ;
#407 = ADVANCED_FACE ( 'NONE', ( #24 ), #542, .F. ) ;
#408 =( GEOMETRIC_REPRESENTATION_CONTEXT ( 3 ) GLOBAL_UNCERTAINTY_ASSIGNED_CONTEXT ( ( #658 ) ) GLOBAL_UNIT_ASSIGNED_CONTEXT ( ( #415, #356, #549 ) ) REPRESENTATION_CONTEXT ( 'NONE', 'WORKASPACE' ) );
#409 = FILL_AREA_STYLE ('',( #33 ) ) ;
#410 = CARTESIAN_POINT ( 'NONE',  ( -1.500000000000000444, -0.2500000000000000000, -3.500000000000000000 ) ) ;
#411 = AXIS2_PLACEMENT_3D ( 'NONE', #763, #236, #623 ) ;
#412 = COLOUR_RGB ( '',0.8509803921568627194, 0.8509803921568627194, 0.8509803921568627194 ) ;
#413 = ADVANCED_FACE ( 'NONE', ( #736 ), #414, .F. ) ;
#414 = PLANE ( 'NONE',  #316 ) ;
#415 =( LENGTH_UNIT ( ) NAMED_UNIT ( * ) SI_UNIT ( .MILLI., .METRE. ) );
#416 = VERTEX_POINT ( 'NONE', #759 ) ;
#417 = ORIENTED_EDGE ( 'NONE', *, *, #687, .F. ) ;
#418 =( NAMED_UNIT ( * ) PLANE_ANGLE_UNIT ( ) SI_UNIT ( $, .RADIAN. ) );
#419 =( LENGTH_UNIT ( ) NAMED_UNIT ( * ) SI_UNIT ( .MILLI., .METRE. ) );
#420 = DIRECTION ( 'NONE',  ( 0.000000000000000000, 1.000000000000000000, 0.000000000000000000 ) ) ;
#421 = VERTEX_POINT ( 'NONE', #617 ) ;
#422 = ORIENTED_EDGE ( 'NONE', *, *, #124, .F. ) ;
#423 = PLANE ( 'NONE',  #670 ) ;
#424 = AXIS2_PLACEMENT_3D ( 'NONE', #164, #806, #210 ) ;
#425 = CIRCLE ( 'NONE', #807, 1.500000000000000222 ) ;
#426 = ADVANCED_FACE ( 'NONE', ( #548 ), #627, .T. ) ;
#427 = CYLINDRICAL_SURFACE ( 'NONE', #512, 2.000000000000000000 ) ;
#428 = PRESENTATION_LAYER_ASSIGNMENT (  '', '', ( #184 ) ) ;
#429 = COLOUR_RGB ( '',1.000000000000000000, 1.000000000000000000, 1.000000000000000000 ) ;
#430 = PRESENTATION_LAYER_ASSIGNMENT (  '', '', ( #140 ) ) ;
#431 = SURFACE_STYLE_USAGE ( .BOTH. , #35 ) ;
#432 = LINE ( 'NONE', #688, #456 ) ;
#433 = CARTESIAN_POINT ( 'NONE',  ( 1.500000000000000222, 1.836970198721030181E-16, 3.699999999999999734 ) ) ;
#434 = SURFACE_STYLE_USAGE ( .BOTH. , #751 ) ;
#435 = APPLICATION_CONTEXT ( 'automotive_design' ) ;
#436 = DIRECTION ( 'NONE',  ( 1.000000000000000000, 0.000000000000000000, -1.836970198721028701E-16 ) ) ;
#437 = CARTESIAN_POINT ( 'NONE',  ( 0.000000000000000000, 0.000000000000000000, 0.000000000000000000 ) ) ;
#438 =( NAMED_UNIT ( * ) PLANE_ANGLE_UNIT ( ) SI_UNIT ( $, .RADIAN. ) );
#439 = EDGE_CURVE ( 'NONE', #242, #192, #442, .T. ) ;
#440 =( NAMED_UNIT ( * ) SI_UNIT ( $, .STERADIAN. ) SOLID_ANGLE_UNIT ( ) );
#441 = CARTESIAN_POINT ( 'NONE',  ( -1.500000000000000222, 0.000000000000000000, 3.699999999999999734 ) ) ;
#442 = LINE ( 'NONE', #245, #771 ) ;
#443 = MECHANICAL_DESIGN_GEOMETRIC_PRESENTATION_REPRESENTATION (  '', ( #668 ), #653 ) ;
#444 =( NAMED_UNIT ( * ) PLANE_ANGLE_UNIT ( ) SI_UNIT ( $, .RADIAN. ) );
#445 = STYLED_ITEM ( 'NONE', ( #450 ), #284 ) ;
#446 = EDGE_LOOP ( 'NONE', ( #574, #371, #354, #93, #344, #459, #321, #604, #765 ) ) ;
#447 = ORIENTED_EDGE ( 'NONE', *, *, #635, .T. ) ;
#448 = FILL_AREA_STYLE_COLOUR ( '', #377 ) ;
#449 = VECTOR ( 'NONE', #60, 1000.000000000000000 ) ;
#450 = PRESENTATION_STYLE_ASSIGNMENT (( #527 ) ) ;
#451 = CARTESIAN_POINT ( 'NONE',  ( 0.000000000000000000, 0.000000000000000000, 5.200000000000000178 ) ) ;
#452 = EDGE_CURVE ( 'NONE', #327, #669, #113, .T. ) ;
#453 = STYLED_ITEM ( 'NONE', ( #366 ), #728 ) ;
#454 = EDGE_LOOP ( 'NONE', ( #701, #188, #66, #565 ) ) ;
#455 = SURFACE_STYLE_USAGE ( .BOTH. , #248 ) ;
#456 = VECTOR ( 'NONE', #302, 1000.000000000000000 ) ;
#457 = DIRECTION ( 'NONE',  ( -0.000000000000000000, -1.000000000000000000, -0.000000000000000000 ) ) ;
#458 =( GEOMETRIC_REPRESENTATION_CONTEXT ( 3 ) GLOBAL_UNCERTAINTY_ASSIGNED_CONTEXT ( ( #85 ) ) GLOBAL_UNIT_ASSIGNED_CONTEXT ( ( #750, #418, #107 ) ) REPRESENTATION_CONTEXT ( 'NONE', 'WORKASPACE' ) );
#459 = ORIENTED_EDGE ( 'NONE', *, *, #346, .T. ) ;
#460 = DIRECTION ( 'NONE',  ( 0.000000000000000000, 0.000000000000000000, 1.000000000000000000 ) ) ;
#461 = UNCERTAINTY_MEASURE_WITH_UNIT (LENGTH_MEASURE( 1.000000000000000082E-05 ), #477, 'distance_accuracy_value', 'NONE');
#462 = DIRECTION ( 'NONE',  ( -1.000000000000000000, 0.000000000000000000, 0.000000000000000000 ) ) ;
#463 = DIRECTION ( 'NONE',  ( -1.000000000000000000, 0.000000000000000000, 0.000000000000000000 ) ) ;
#464 = PRODUCT ( 'LED-TH_BD4.0-P2.50-H6.0-RD', 'LED-TH_BD4.0-P2.50-H6.0-RD', '', ( #619 ) ) ;
#465 = ADVANCED_FACE ( 'NONE', ( #176 ), #500, .F. ) ;
#466 = ORIENTED_EDGE ( 'NONE', *, *, #364, .F. ) ;
#467 =( LENGTH_UNIT ( ) NAMED_UNIT ( * ) SI_UNIT ( .MILLI., .METRE. ) );
#468 = UNCERTAINTY_MEASURE_WITH_UNIT (LENGTH_MEASURE( 1.000000000000000082E-05 ), #167, 'distance_accuracy_value', 'NONE');
#469 = SURFACE_STYLE_USAGE ( .BOTH. , #293 ) ;
#470 =( GEOMETRIC_REPRESENTATION_CONTEXT ( 3 ) GLOBAL_UNCERTAINTY_ASSIGNED_CONTEXT ( ( #589 ) ) GLOBAL_UNIT_ASSIGNED_CONTEXT ( ( #685, #239, #305 ) ) REPRESENTATION_CONTEXT ( 'NONE', 'WORKASPACE' ) );
#471 = DIRECTION ( 'NONE',  ( 4.336808689942017736E-16, 0.000000000000000000, 1.000000000000000000 ) ) ;
#472 = DIRECTION ( 'NONE',  ( 1.000000000000000000, 0.000000000000000000, 0.000000000000000000 ) ) ;
#473 = ORIENTED_EDGE ( 'NONE', *, *, #380, .T. ) ;
#474 = ADVANCED_FACE ( 'NONE', ( #249 ), #516, .T. ) ;
#475 = PLANE ( 'NONE',  #498 ) ;
#476 = DIRECTION ( 'NONE',  ( 4.852707348731029207E-17, -1.000000000000000000, 0.000000000000000000 ) ) ;
#477 =( LENGTH_UNIT ( ) NAMED_UNIT ( * ) SI_UNIT ( .MILLI., .METRE. ) );
#478 = ORIENTED_EDGE ( 'NONE', *, *, #190, .F. ) ;
#479 = COLOUR_RGB ( '',1.000000000000000000, 1.000000000000000000, 1.000000000000000000 ) ;
#480 =( LENGTH_UNIT ( ) NAMED_UNIT ( * ) SI_UNIT ( .MILLI., .METRE. ) );
#481 = DIRECTION ( 'NONE',  ( -1.000000000000000000, 0.000000000000000000, 4.336808689942017736E-16 ) ) ;
#482 = LINE ( 'NONE', #151, #340 ) ;
#483 = MECHANICAL_DESIGN_GEOMETRIC_PRESENTATION_REPRESENTATION (  '', ( #116 ), #458 ) ;
#484 = ORIENTED_EDGE ( 'NONE', *, *, #620, .F. ) ;
#485 = AXIS2_PLACEMENT_3D ( 'NONE', #264, #611, #278 ) ;
#486 = FILL_AREA_STYLE ('',( #801 ) ) ;
#487 = DIRECTION ( 'NONE',  ( 0.000000000000000000, -0.000000000000000000, 1.000000000000000000 ) ) ;
#488 = EDGE_LOOP ( 'NONE', ( #61, #664, #36, #570, #473 ) ) ;
#489 = FILL_AREA_STYLE_COLOUR ( '', #783 ) ;
#490 = PRESENTATION_STYLE_ASSIGNMENT (( #204 ) ) ;
#491 =( NAMED_UNIT ( * ) SI_UNIT ( $, .STERADIAN. ) SOLID_ANGLE_UNIT ( ) );
#492 =( NAMED_UNIT ( * ) SI_UNIT ( $, .STERADIAN. ) SOLID_ANGLE_UNIT ( ) );
#493 = COLOUR_RGB ( '',0.8509803921568627194, 0.8509803921568627194, 0.8509803921568627194 ) ;
#494 = CARTESIAN_POINT ( 'NONE',  ( -1.500000000000000666, -0.2500000000000000000, 0.000000000000000000 ) ) ;
#495 = CARTESIAN_POINT ( 'NONE',  ( 1.500000000000000666, 0.2500000000000000000, -3.673940397442061347E-16 ) ) ;
#496 = SURFACE_SIDE_STYLE ('',( #551 ) ) ;
#497 = CARTESIAN_POINT ( 'NONE',  ( 0.9999999999999991118, -0.2500000000000000000, -5.000000000000000000 ) ) ;
#498 = AXIS2_PLACEMENT_3D ( 'NONE', #139, #782, #401 ) ;
#499 =( GEOMETRIC_REPRESENTATION_CONTEXT ( 3 ) GLOBAL_UNCERTAINTY_ASSIGNED_CONTEXT ( ( #193 ) ) GLOBAL_UNIT_ASSIGNED_CONTEXT ( ( #285, #234, #741 ) ) REPRESENTATION_CONTEXT ( 'NONE', 'WORKASPACE' ) );
#500 = PLANE ( 'NONE',  #569 ) ;
#501 = FILL_AREA_STYLE ('',( #734 ) ) ;
#502 =( NAMED_UNIT ( * ) PLANE_ANGLE_UNIT ( ) SI_UNIT ( $, .RADIAN. ) );
#503 = APPLICATION_CONTEXT ( 'automotive_design' ) ;
#504 = SURFACE_STYLE_USAGE ( .BOTH. , #367 ) ;
#505 = FILL_AREA_STYLE_COLOUR ( '', #794 ) ;
#506 = DIRECTION ( 'NONE',  ( 1.000000000000000000, -0.000000000000000000, 4.336808689942017736E-17 ) ) ;
#507 = DIRECTION ( 'NONE',  ( 1.000000000000000000, -0.000000000000000000, -6.123233995736770966E-17 ) ) ;
#508 = AXIS2_PLACEMENT_3D ( 'NONE', #63, #384, #165 ) ;
#509 =( NAMED_UNIT ( * ) SI_UNIT ( $, .STERADIAN. ) SOLID_ANGLE_UNIT ( ) );
#510 = CIRCLE ( 'NONE', #261, 1.500000000000000000 ) ;
#511 = CARTESIAN_POINT ( 'NONE',  ( 1.500000000000000222, 1.836970198721030181E-16, 1.000000000000000000 ) ) ;
#512 = AXIS2_PLACEMENT_3D ( 'NONE', #291, #675, #229 ) ;
#513 = COLOUR_RGB ( '',0.8509803921568627194, 0.8509803921568627194, 0.8509803921568627194 ) ;
#514 = CYLINDRICAL_SURFACE ( 'NONE', #792, 1.500000000000000222 ) ;
#515 = ORIENTED_EDGE ( 'NONE', *, *, #720, .T. ) ;
#516 = SPHERICAL_SURFACE ( 'NONE', #10, 1.500000000000000000 ) ;
#517 = ORIENTED_EDGE ( 'NONE', *, *, #299, .T. ) ;
#518 = SURFACE_STYLE_USAGE ( .BOTH. , #269 ) ;
#519 = PRESENTATION_STYLE_ASSIGNMENT (( #770 ) ) ;
#520 = MECHANICAL_DESIGN_GEOMETRIC_PRESENTATION_REPRESENTATION (  '', ( #255 ), #163 ) ;
#521 = SURFACE_SIDE_STYLE ('',( #254 ) ) ;
#522 = VERTEX_POINT ( 'NONE', #697 ) ;
#523 = DIRECTION ( 'NONE',  ( -6.123233995736770966E-17, 0.000000000000000000, -1.000000000000000000 ) ) ;
#524 = LINE ( 'NONE', #189, #218 ) ;
#525 = SURFACE_SIDE_STYLE ('',( #266 ) ) ;
#526 =( NAMED_UNIT ( * ) PLANE_ANGLE_UNIT ( ) SI_UNIT ( $, .RADIAN. ) );
#527 = SURFACE_STYLE_USAGE ( .BOTH. , #590 ) ;
#528 = PLANE ( 'NONE',  #389 ) ;
#529 = VERTEX_POINT ( 'NONE', #634 ) ;
#530 = AXIS2_PLACEMENT_3D ( 'NONE', #552, #802, #108 ) ;
#531 = CIRCLE ( 'NONE', #136, 1.500000000000000000 ) ;
#532 = MECHANICAL_DESIGN_GEOMETRIC_PRESENTATION_REPRESENTATION (  '', ( #184 ), #598 ) ;
#533 = VERTEX_POINT ( 'NONE', #567 ) ;
#534 = PRESENTATION_STYLE_ASSIGNMENT (( #144 ) ) ;
#535 = CARTESIAN_POINT ( 'NONE',  ( 0.000000000000000000, -0.2500000000000000000, 0.000000000000000000 ) ) ;
#536 = EDGE_LOOP ( 'NONE', ( #349, #484, #338 ) ) ;
#537 = DIRECTION ( 'NONE',  ( 4.852707348731029207E-17, -1.000000000000000000, 0.000000000000000000 ) ) ;
#538 =( NAMED_UNIT ( * ) PLANE_ANGLE_UNIT ( ) SI_UNIT ( $, .RADIAN. ) );
#539 = FACE_OUTER_BOUND ( 'NONE', #119, .T. ) ;
#540 = ORIENTED_EDGE ( 'NONE', *, *, #556, .T. ) ;
#541 = SURFACE_STYLE_FILL_AREA ( #359 ) ;
#542 = PLANE ( 'NONE',  #762 ) ;
#543 = CARTESIAN_POINT ( 'NONE',  ( 0.000000000000000000, 0.2500000000000000000, 0.000000000000000000 ) ) ;
#544 = ORIENTED_EDGE ( 'NONE', *, *, #392, .F. ) ;
#545 = MECHANICAL_DESIGN_GEOMETRIC_PRESENTATION_REPRESENTATION (  '', ( #721 ), #243 ) ;
#546 = ADVANCED_FACE ( 'NONE', ( #1 ), #514, .T. ) ;
#547 = AXIS2_PLACEMENT_3D ( 'NONE', #355, #659, #82 ) ;
#548 = FACE_OUTER_BOUND ( 'NONE', #69, .T. ) ;
#549 =( NAMED_UNIT ( * ) SI_UNIT ( $, .STERADIAN. ) SOLID_ANGLE_UNIT ( ) );
#550 = SURFACE_SIDE_STYLE ('',( #618 ) ) ;
#551 = SURFACE_STYLE_FILL_AREA ( #501 ) ;
#552 = CARTESIAN_POINT ( 'NONE',  ( 0.000000000000000000, 0.000000000000000000, 0.000000000000000000 ) ) ;
#553 = CIRCLE ( 'NONE', #424, 1.500000000000000222 ) ;
#554 = CARTESIAN_POINT ( 'NONE',  ( 1.499999999999999112, -0.2500000000000000000, -5.000000000000000000 ) ) ;
#555 = FILL_AREA_STYLE ('',( #303 ) ) ;
#556 = EDGE_CURVE ( 'NONE', #221, #421, #575, .T. ) ;
#557 = MECHANICAL_DESIGN_GEOMETRIC_PRESENTATION_REPRESENTATION (  '', ( #453 ), #180 ) ;
#558 = CARTESIAN_POINT ( 'NONE',  ( -1.500000000000000444, 0.2500000000000000000, -3.500000000000000000 ) ) ;
#559 = VECTOR ( 'NONE', #662, 1000.000000000000000 ) ;
#560 = CARTESIAN_POINT ( 'NONE',  ( -1.499999999999999778, -1.322875655532295358, 0.000000000000000000 ) ) ;
#561 = DIRECTION ( 'NONE',  ( 0.000000000000000000, 0.000000000000000000, 1.000000000000000000 ) ) ;
#562 = CARTESIAN_POINT ( 'NONE',  ( -1.500000000000000444, 0.2500000000000000000, -5.000000000000000000 ) ) ;
#563 = DIRECTION ( 'NONE',  ( -0.000000000000000000, -1.000000000000000000, -0.000000000000000000 ) ) ;
#564 =( LENGTH_UNIT ( ) NAMED_UNIT ( * ) SI_UNIT ( .MILLI., .METRE. ) );
#565 = ORIENTED_EDGE ( 'NONE', *, *, #392, .T. ) ;
#566 = PLANE ( 'NONE',  #666 ) ;
#567 = CARTESIAN_POINT ( 'NONE',  ( 0.9999999999999983347, 0.2500000000000000000, -3.367778697655221012E-16 ) ) ;
#568 = ADVANCED_FACE ( 'NONE', ( #72 ), #528, .F. ) ;
#569 = AXIS2_PLACEMENT_3D ( 'NONE', #558, #561, #638 ) ;
#570 = ORIENTED_EDGE ( 'NONE', *, *, #779, .T. ) ;
#571 =( GEOMETRIC_REPRESENTATION_CONTEXT ( 3 ) GLOBAL_UNCERTAINTY_ASSIGNED_CONTEXT ( ( #143 ) ) GLOBAL_UNIT_ASSIGNED_CONTEXT ( ( #74, #5, #257 ) ) REPRESENTATION_CONTEXT ( 'NONE', 'WORKASPACE' ) );
#572 = PLANE ( 'NONE',  #485 ) ;
#573 = SURFACE_STYLE_FILL_AREA ( #691 ) ;
#574 = ORIENTED_EDGE ( 'NONE', *, *, #578, .T. ) ;
#575 = LINE ( 'NONE', #326, #375 ) ;
#576 = ORIENTED_EDGE ( 'NONE', *, *, #97, .F. ) ;
#577 = UNCERTAINTY_MEASURE_WITH_UNIT (LENGTH_MEASURE( 1.000000000000000082E-05 ), #743, 'distance_accuracy_value', 'NONE');
#578 = EDGE_CURVE ( 'NONE', #594, #416, #482, .T. ) ;
#579 = FACE_OUTER_BOUND ( 'NONE', #632, .T. ) ;
#580 = STYLED_ITEM ( 'NONE', ( #7 ), #546 ) ;
#581 = CARTESIAN_POINT ( 'NONE',  ( 0.9999999999999991118, 0.2500000000000000000, -5.000000000000000000 ) ) ;
#582 = STYLED_ITEM ( 'NONE', ( #534 ), #370 ) ;
#583 = EDGE_LOOP ( 'NONE', ( #636, #131, #732, #709 ) ) ;
#584 =( LENGTH_UNIT ( ) NAMED_UNIT ( * ) SI_UNIT ( .MILLI., .METRE. ) );
#585 = DIRECTION ( 'NONE',  ( 1.000000000000000000, -0.000000000000000000, -6.123233995736770966E-17 ) ) ;
#586 = MECHANICAL_DESIGN_GEOMETRIC_PRESENTATION_REPRESENTATION (  '', ( #140 ), #499 ) ;
#587 = PRESENTATION_STYLE_ASSIGNMENT (( #81 ) ) ;
#588 = FACE_OUTER_BOUND ( 'NONE', #454, .T. ) ;
#589 = UNCERTAINTY_MEASURE_WITH_UNIT (LENGTH_MEASURE( 1.000000000000000082E-05 ), #685, 'distance_accuracy_value', 'NONE');
#590 = SURFACE_SIDE_STYLE ('',( #756 ) ) ;
#591 = VERTEX_POINT ( 'NONE', #90 ) ;
#592 =( LENGTH_UNIT ( ) NAMED_UNIT ( * ) SI_UNIT ( .MILLI., .METRE. ) );
#593 = CARTESIAN_POINT ( 'NONE',  ( -1.499999999999999778, -7.279061023096542886E-17, 1.000000000000000000 ) ) ;
#594 = VERTEX_POINT ( 'NONE', #410 ) ;
#595 = COLOUR_RGB ( '',1.000000000000000000, 1.000000000000000000, 1.000000000000000000 ) ;
#596 = EDGE_CURVE ( 'NONE', #780, #669, #30, .T. ) ;
#597 = UNCERTAINTY_MEASURE_WITH_UNIT (LENGTH_MEASURE( 1.000000000000000082E-05 ), #275, 'distance_accuracy_value', 'NONE');
#598 =( GEOMETRIC_REPRESENTATION_CONTEXT ( 3 ) GLOBAL_UNCERTAINTY_ASSIGNED_CONTEXT ( ( #577 ) ) GLOBAL_UNIT_ASSIGNED_CONTEXT ( ( #743, #301, #706 ) ) REPRESENTATION_CONTEXT ( 'NONE', 'WORKASPACE' ) );
#599 = PRESENTATION_STYLE_ASSIGNMENT (( #469 ) ) ;
#600 = CLOSED_SHELL ( 'NONE', ( #474, #426, #413, #407, #465, #149, #757, #728, #216, #162, #546, #370 ) ) ;
#601 = SURFACE_STYLE_FILL_AREA ( #219 ) ;
#602 = DIRECTION ( 'NONE',  ( -0.000000000000000000, 0.000000000000000000, 1.000000000000000000 ) ) ;
#603 = ORIENTED_EDGE ( 'NONE', *, *, #399, .F. ) ;
#604 = ORIENTED_EDGE ( 'NONE', *, *, #311, .F. ) ;
#605 = CARTESIAN_POINT ( 'NONE',  ( 0.9999999999999983347, -0.2500000000000000000, -3.367778697655221012E-16 ) ) ;
#606 = DIRECTION ( 'NONE',  ( -0.000000000000000000, 0.000000000000000000, 1.000000000000000000 ) ) ;
#607 = CARTESIAN_POINT ( 'NONE',  ( 0.000000000000000000, 0.000000000000000000, 1.000000000000000000 ) ) ;
#608 = EDGE_LOOP ( 'NONE', ( #181, #731, #31, #263, #466, #787 ) ) ;
#609 = PRESENTATION_STYLE_ASSIGNMENT (( #671 ) ) ;
#610 = VECTOR ( 'NONE', #232, 1000.000000000000000 ) ;
#611 = DIRECTION ( 'NONE',  ( -0.000000000000000000, 1.000000000000000000, 0.000000000000000000 ) ) ;
#612 = CARTESIAN_POINT ( 'NONE',  ( 1.500000000000000666, 0.2500000000000000000, -3.673940397442061347E-16 ) ) ;
#613 = FACE_OUTER_BOUND ( 'NONE', #381, .T. ) ;
#614 = STYLED_ITEM ( 'NONE', ( #322 ), #134 ) ;
#615 = SHAPE_DEFINITION_REPRESENTATION ( #395, #334 ) ;
#616 = VECTOR ( 'NONE', #462, 1000.000000000000000 ) ;
#617 = CARTESIAN_POINT ( 'NONE',  ( 1.500000000000000666, -0.2500000000000000000, -3.673940397442061347E-16 ) ) ;
#618 = SURFACE_STYLE_FILL_AREA ( #673 ) ;
#619 = PRODUCT_CONTEXT ( 'NONE', #435, 'mechanical' ) ;
#620 = EDGE_CURVE ( 'NONE', #698, #128, #425, .T. ) ;
#621 = LINE ( 'NONE', #235, #166 ) ;
#622 = CARTESIAN_POINT ( 'NONE',  ( -1.000000000000000444, 0.2500000000000000000, -5.000000000000000000 ) ) ;
#623 = DIRECTION ( 'NONE',  ( -1.000000000000000000, 0.000000000000000000, 0.000000000000000000 ) ) ;
#624 =( NAMED_UNIT ( * ) PLANE_ANGLE_UNIT ( ) SI_UNIT ( $, .RADIAN. ) );
#625 = STYLED_ITEM ( 'NONE', ( #363 ), #334 ) ;
#626 = COLOUR_RGB ( '',0.8509803921568627194, 0.8509803921568627194, 0.8509803921568627194 ) ;
#627 = CYLINDRICAL_SURFACE ( 'NONE', #411, 1.500000000000000222 ) ;
#628 = VECTOR ( 'NONE', #12, 1000.000000000000000 ) ;
#629 = VECTOR ( 'NONE', #457, 1000.000000000000000 ) ;
#630 =( LENGTH_UNIT ( ) NAMED_UNIT ( * ) SI_UNIT ( .MILLI., .METRE. ) );
#631 = FILL_AREA_STYLE ('',( #813 ) ) ;
#632 = EDGE_LOOP ( 'NONE', ( #540, #544, #314, #515 ) ) ;
#633 = CARTESIAN_POINT ( 'NONE',  ( 0.000000000000000000, -0.2500000000000000000, 0.000000000000000000 ) ) ;
#634 = CARTESIAN_POINT ( 'NONE',  ( 0.9999999999999991118, -0.2500000000000000000, -5.000000000000000000 ) ) ;
#635 = EDGE_CURVE ( 'NONE', #725, #3, #304, .T. ) ;
#636 = ORIENTED_EDGE ( 'NONE', *, *, #17, .T. ) ;
#637 = PRESENTATION_LAYER_ASSIGNMENT (  '', '', ( #274 ) ) ;
#638 = DIRECTION ( 'NONE',  ( 1.000000000000000000, 0.000000000000000000, -0.000000000000000000 ) ) ;
#639 = ORIENTED_EDGE ( 'NONE', *, *, #77, .F. ) ;
#640 = AXIS2_PLACEMENT_3D ( 'NONE', #777, #76, #643 ) ;
#641 = FILL_AREA_STYLE_COLOUR ( '', #289 ) ;
#642 = ADVANCED_FACE ( 'NONE', ( #539 ), #676, .F. ) ;
#643 = DIRECTION ( 'NONE',  ( 3.035766082959412908E-16, 0.000000000000000000, 1.000000000000000000 ) ) ;
#644 = PLANE ( 'NONE',  #215 ) ;
#645 =( LENGTH_UNIT ( ) NAMED_UNIT ( * ) SI_UNIT ( .MILLI., .METRE. ) );
#646 =( NAMED_UNIT ( * ) SI_UNIT ( $, .STERADIAN. ) SOLID_ANGLE_UNIT ( ) );
#647 = PRODUCT_DEFINITION_CONTEXT ( 'detailed design', #503, 'design' ) ;
#648 =( NAMED_UNIT ( * ) SI_UNIT ( $, .STERADIAN. ) SOLID_ANGLE_UNIT ( ) );
#649 =( NAMED_UNIT ( * ) PLANE_ANGLE_UNIT ( ) SI_UNIT ( $, .RADIAN. ) );
#650 = CIRCLE ( 'NONE', #508, 2.000000000000000000 ) ;
#651 =( GEOMETRIC_REPRESENTATION_CONTEXT ( 3 ) GLOBAL_UNCERTAINTY_ASSIGNED_CONTEXT ( ( #597 ) ) GLOBAL_UNIT_ASSIGNED_CONTEXT ( ( #275, #667, #287 ) ) REPRESENTATION_CONTEXT ( 'NONE', 'WORKASPACE' ) );
#652 = FILL_AREA_STYLE ('',( #15 ) ) ;
#653 =( GEOMETRIC_REPRESENTATION_CONTEXT ( 3 ) GLOBAL_UNCERTAINTY_ASSIGNED_CONTEXT ( ( #335 ) ) GLOBAL_UNIT_ASSIGNED_CONTEXT ( ( #805, #678, #491 ) ) REPRESENTATION_CONTEXT ( 'NONE', 'WORKASPACE' ) );
#654 = DIRECTION ( 'NONE',  ( -0.000000000000000000, -0.000000000000000000, -1.000000000000000000 ) ) ;
#655 =( GEOMETRIC_REPRESENTATION_CONTEXT ( 3 ) GLOBAL_UNCERTAINTY_ASSIGNED_CONTEXT ( ( #280 ) ) GLOBAL_UNIT_ASSIGNED_CONTEXT ( ( #419, #538, #785 ) ) REPRESENTATION_CONTEXT ( 'NONE', 'WORKASPACE' ) );
#656 = ORIENTED_EDGE ( 'NONE', *, *, #556, .F. ) ;
#657 = LINE ( 'NONE', #593, #387 ) ;
#658 = UNCERTAINTY_MEASURE_WITH_UNIT (LENGTH_MEASURE( 1.000000000000000082E-05 ), #415, 'distance_accuracy_value', 'NONE');
#659 = DIRECTION ( 'NONE',  ( 0.000000000000000000, 1.000000000000000000, 0.000000000000000000 ) ) ;
#660 = ORIENTED_EDGE ( 'NONE', *, *, #720, .F. ) ;
#661 = ADVANCED_FACE ( 'NONE', ( #613 ), #404, .T. ) ;
#662 = DIRECTION ( 'NONE',  ( -0.000000000000000000, -0.000000000000000000, -1.000000000000000000 ) ) ;
#663 = SURFACE_SIDE_STYLE ('',( #398 ) ) ;
#664 = ORIENTED_EDGE ( 'NONE', *, *, #814, .F. ) ;
#665 = VECTOR ( 'NONE', #154, 1000.000000000000000 ) ;
#666 = AXIS2_PLACEMENT_3D ( 'NONE', #437, #804, #695 ) ;
#667 =( NAMED_UNIT ( * ) PLANE_ANGLE_UNIT ( ) SI_UNIT ( $, .RADIAN. ) );
#668 = STYLED_ITEM ( 'NONE', ( #609 ), #216 ) ;
#669 = VERTEX_POINT ( 'NONE', #737 ) ;
#670 = AXIS2_PLACEMENT_3D ( 'NONE', #194, #168, #704 ) ;
#671 = SURFACE_STYLE_USAGE ( .BOTH. , #298 ) ;
#672 = LINE ( 'NONE', #497, #225 ) ;
#673 = FILL_AREA_STYLE ('',( #40 ) ) ;
#674 = ORIENTED_EDGE ( 'NONE', *, *, #696, .T. ) ;
#675 = DIRECTION ( 'NONE',  ( -0.000000000000000000, -0.000000000000000000, -1.000000000000000000 ) ) ;
#676 = PLANE ( 'NONE',  #52 ) ;
#677 = ORIENTED_EDGE ( 'NONE', *, *, #596, .T. ) ;
#678 =( NAMED_UNIT ( * ) PLANE_ANGLE_UNIT ( ) SI_UNIT ( $, .RADIAN. ) );
#679 = FILL_AREA_STYLE ('',( #489 ) ) ;
#680 = LINE ( 'NONE', #554, #749 ) ;
#681 = PRESENTATION_LAYER_ASSIGNMENT (  '', '', ( #102 ) ) ;
#682 = FILL_AREA_STYLE_COLOUR ( '', #479 ) ;
#683 = DIRECTION ( 'NONE',  ( -0.000000000000000000, -1.000000000000000000, -0.000000000000000000 ) ) ;
#684 = DIRECTION ( 'NONE',  ( 1.224646799147353207E-16, 1.000000000000000000, -0.000000000000000000 ) ) ;
#685 =( LENGTH_UNIT ( ) NAMED_UNIT ( * ) SI_UNIT ( .MILLI., .METRE. ) );
#686 =( LENGTH_UNIT ( ) NAMED_UNIT ( * ) SI_UNIT ( .MILLI., .METRE. ) );
#687 = EDGE_CURVE ( 'NONE', #699, #780, #711, .T. ) ;
#688 = CARTESIAN_POINT ( 'NONE',  ( -1.500000000000000444, -0.2500000000000000000, -3.500000000000000000 ) ) ;
#689 = FILL_AREA_STYLE_COLOUR ( '', #700 ) ;
#690 =( NAMED_UNIT ( * ) SI_UNIT ( $, .STERADIAN. ) SOLID_ANGLE_UNIT ( ) );
#691 = FILL_AREA_STYLE ('',( #123 ) ) ;
#692 = MECHANICAL_DESIGN_GEOMETRIC_PRESENTATION_REPRESENTATION (  '', ( #582 ), #651 ) ;
#693 =( GEOMETRIC_REPRESENTATION_CONTEXT ( 3 ) GLOBAL_UNCERTAINTY_ASSIGNED_CONTEXT ( ( #715 ) ) GLOBAL_UNIT_ASSIGNED_CONTEXT ( ( #315, #175, #4 ) ) REPRESENTATION_CONTEXT ( 'NONE', 'WORKASPACE' ) );
#694 = VECTOR ( 'NONE', #654, 1000.000000000000000 ) ;
#695 = DIRECTION ( 'NONE',  ( 1.000000000000000000, 0.000000000000000000, -0.000000000000000000 ) ) ;
#696 = EDGE_CURVE ( 'NONE', #122, #148, #650, .T. ) ;
#697 = CARTESIAN_POINT ( 'NONE',  ( 9.184850993605149670E-17, 0.000000000000000000, 5.200000000000000178 ) ) ;
#698 = VERTEX_POINT ( 'NONE', #433 ) ;
#699 = VERTEX_POINT ( 'NONE', #50 ) ;
#700 = COLOUR_RGB ( '',0.8509803921568627194, 0.8509803921568627194, 0.8509803921568627194 ) ;
#701 = ORIENTED_EDGE ( 'NONE', *, *, #29, .T. ) ;
#702 = PRESENTATION_STYLE_ASSIGNMENT (( #455 ) ) ;
#703 =( GEOMETRIC_REPRESENTATION_CONTEXT ( 3 ) GLOBAL_UNCERTAINTY_ASSIGNED_CONTEXT ( ( #774 ) ) GLOBAL_UNIT_ASSIGNED_CONTEXT ( ( #645, #649, #378 ) ) REPRESENTATION_CONTEXT ( 'NONE', 'WORKASPACE' ) );
#704 = DIRECTION ( 'NONE',  ( 1.000000000000000000, 0.000000000000000000, -0.000000000000000000 ) ) ;
#705 = PRESENTATION_LAYER_ASSIGNMENT (  '', '', ( #453 ) ) ;
#706 =( NAMED_UNIT ( * ) SI_UNIT ( $, .STERADIAN. ) SOLID_ANGLE_UNIT ( ) );
#707 = EDGE_CURVE ( 'NONE', #128, #522, #531, .T. ) ;
#708 = CLOSED_SHELL ( 'NONE', ( #241, #642, #284, #134, #661, #568 ) ) ;
#709 = ORIENTED_EDGE ( 'NONE', *, *, #439, .T. ) ;
#710 = AXIS2_PLACEMENT_3D ( 'NONE', #39, #606, #281 ) ;
#711 = LINE ( 'NONE', #622, #65 ) ;
#712 = EDGE_LOOP ( 'NONE', ( #247, #406, #88, #677 ) ) ;
#713 = LINE ( 'NONE', #393, #694 ) ;
#714 = LINE ( 'NONE', #581, #328 ) ;
#715 = UNCERTAINTY_MEASURE_WITH_UNIT (LENGTH_MEASURE( 1.000000000000000082E-05 ), #315, 'distance_accuracy_value', 'NONE');
#716 = CARTESIAN_POINT ( 'NONE',  ( -0.9999999999999983347, 0.2500000000000000000, -9.184850993605187881E-17 ) ) ;
#717 = PRESENTATION_LAYER_ASSIGNMENT (  '', '', ( #26 ) ) ;
#718 = SURFACE_STYLE_FILL_AREA ( #727 ) ;
#719 = VECTOR ( 'NONE', #436, 1000.000000000000000 ) ;
#720 = EDGE_CURVE ( 'NONE', #533, #221, #53, .T. ) ;
#721 = STYLED_ITEM ( 'NONE', ( #159 ), #413 ) ;
#722 = UNCERTAINTY_MEASURE_WITH_UNIT (LENGTH_MEASURE( 1.000000000000000082E-05 ), #564, 'distance_accuracy_value', 'NONE');
#723 = FILL_AREA_STYLE_COLOUR ( '', #513 ) ;
#724 = ORIENTED_EDGE ( 'NONE', *, *, #346, .F. ) ;
#725 = VERTEX_POINT ( 'NONE', #170 ) ;
#726 = DIRECTION ( 'NONE',  ( 0.000000000000000000, -1.000000000000000000, 0.000000000000000000 ) ) ;
#727 = FILL_AREA_STYLE ('',( #330 ) ) ;
#728 = ADVANCED_FACE ( 'NONE', ( #8 ), #566, .F. ) ;
#729 = DIRECTION ( 'NONE',  ( -0.000000000000000000, -1.000000000000000000, -0.000000000000000000 ) ) ;
#730 = FILL_AREA_STYLE ('',( #297 ) ) ;
#731 = ORIENTED_EDGE ( 'NONE', *, *, #156, .F. ) ;
#732 = ORIENTED_EDGE ( 'NONE', *, *, #318, .F. ) ;
#733 = COLOUR_RGB ( '',0.8509803921568627194, 0.8509803921568627194, 0.8509803921568627194 ) ;
#734 = FILL_AREA_STYLE_COLOUR ( '', #361 ) ;
#735 = PRODUCT_RELATED_PRODUCT_CATEGORY ( 'part', '', ( #464 ) ) ;
#736 = FACE_OUTER_BOUND ( 'NONE', #446, .T. ) ;
#737 = CARTESIAN_POINT ( 'NONE',  ( -0.9999999999999997780, -0.2500000000000000000, -3.500000000000000000 ) ) ;
#738 = ORIENTED_EDGE ( 'NONE', *, *, #190, .T. ) ;
#739 = PRESENTATION_STYLE_ASSIGNMENT (( #155 ) ) ;
#740 = PRODUCT_DEFINITION_FORMATION_WITH_SPECIFIED_SOURCE ( '任何', '', #464, .NOT_KNOWN. ) ;
#741 =( NAMED_UNIT ( * ) SI_UNIT ( $, .STERADIAN. ) SOLID_ANGLE_UNIT ( ) );
#742 = MECHANICAL_DESIGN_GEOMETRIC_PRESENTATION_REPRESENTATION (  '', ( #197 ), #758 ) ;
#743 =( LENGTH_UNIT ( ) NAMED_UNIT ( * ) SI_UNIT ( .MILLI., .METRE. ) );
#744 = LINE ( 'NONE', #494, #719 ) ;
#745 = FACE_OUTER_BOUND ( 'NONE', #20, .T. ) ;
#746 = PRESENTATION_LAYER_ASSIGNMENT (  '', '', ( #721 ) ) ;
#747 = EDGE_CURVE ( 'NONE', #533, #290, #120, .T. ) ;
#748 = VECTOR ( 'NONE', #563, 1000.000000000000000 ) ;
#749 = VECTOR ( 'NONE', #115, 1000.000000000000000 ) ;
#750 =( LENGTH_UNIT ( ) NAMED_UNIT ( * ) SI_UNIT ( .MILLI., .METRE. ) );
#751 = SURFACE_SIDE_STYLE ('',( #103 ) ) ;
#752 = SURFACE_SIDE_STYLE ('',( #811 ) ) ;
#753 = LINE ( 'NONE', #238, #379 ) ;
#754 = CARTESIAN_POINT ( 'NONE',  ( 0.9999999999999983347, 0.2500000000000000000, -3.367778697655221012E-16 ) ) ;
#755 = SURFACE_STYLE_USAGE ( .BOTH. , #59 ) ;
#756 = SURFACE_STYLE_FILL_AREA ( #325 ) ;
#757 = ADVANCED_FACE ( 'NONE', ( #745 ), #368, .F. ) ;
#758 =( GEOMETRIC_REPRESENTATION_CONTEXT ( 3 ) GLOBAL_UNCERTAINTY_ASSIGNED_CONTEXT ( ( #202 ) ) GLOBAL_UNIT_ASSIGNED_CONTEXT ( ( #467, #138, #198 ) ) REPRESENTATION_CONTEXT ( 'NONE', 'WORKASPACE' ) );
#759 = CARTESIAN_POINT ( 'NONE',  ( -1.500000000000000666, -0.2500000000000000000, 0.000000000000000000 ) ) ;
#760 = DIRECTION ( 'NONE',  ( -0.000000000000000000, 1.000000000000000000, 0.000000000000000000 ) ) ;
#761 = PRESENTATION_LAYER_ASSIGNMENT (  '', '', ( #142 ) ) ;
#762 = AXIS2_PLACEMENT_3D ( 'NONE', #336, #481, #471 ) ;
#763 = CARTESIAN_POINT ( 'NONE',  ( 0.000000000000000000, 0.000000000000000000, 5.200000000000000178 ) ) ;
#764 = ORIENTED_EDGE ( 'NONE', *, *, #789, .T. ) ;
#765 = ORIENTED_EDGE ( 'NONE', *, *, #109, .T. ) ;
#766 = CARTESIAN_POINT ( 'NONE',  ( -1.000000000000000444, -0.2500000000000000000, -5.000000000000000000 ) ) ;
#767 =( GEOMETRIC_REPRESENTATION_CONTEXT ( 3 ) GLOBAL_UNCERTAINTY_ASSIGNED_CONTEXT ( ( #403 ) ) GLOBAL_UNIT_ASSIGNED_CONTEXT ( ( #480, #624, #351 ) ) REPRESENTATION_CONTEXT ( 'NONE', 'WORKASPACE' ) );
#768 = ORIENTED_EDGE ( 'NONE', *, *, #203, .T. ) ;
#769 = CARTESIAN_POINT ( 'NONE',  ( 1.500000000000000666, 0.2500000000000000000, -3.673940397442061347E-16 ) ) ;
#770 = SURFACE_STYLE_USAGE ( .BOTH. , #525 ) ;
#771 = VECTOR ( 'NONE', #374, 1000.000000000000000 ) ;
#772 = LINE ( 'NONE', #141, #246 ) ;
#773 = MECHANICAL_DESIGN_GEOMETRIC_PRESENTATION_REPRESENTATION (  '', ( #142 ), #56 ) ;
#774 = UNCERTAINTY_MEASURE_WITH_UNIT (LENGTH_MEASURE( 1.000000000000000082E-05 ), #645, 'distance_accuracy_value', 'NONE');
#775 = DIRECTION ( 'NONE',  ( -4.336808689942017736E-17, 0.000000000000000000, 1.000000000000000000 ) ) ;
#776 = VERTEX_POINT ( 'NONE', #32 ) ;
#777 = CARTESIAN_POINT ( 'NONE',  ( 1.499999999999999112, 0.2500000000000000000, -5.000000000000000000 ) ) ;
#778 = CARTESIAN_POINT ( 'NONE',  ( 1.499999999999999112, 0.2500000000000000000, -5.000000000000000000 ) ) ;
#779 = EDGE_CURVE ( 'NONE', #725, #591, #657, .T. ) ;
#780 = VERTEX_POINT ( 'NONE', #333 ) ;
#781 = PRESENTATION_LAYER_ASSIGNMENT (  '', '', ( #580 ) ) ;
#782 = DIRECTION ( 'NONE',  ( -0.000000000000000000, 0.000000000000000000, 1.000000000000000000 ) ) ;
#783 = COLOUR_RGB ( '',1.000000000000000000, 1.000000000000000000, 1.000000000000000000 ) ;
#784 = VECTOR ( 'NONE', #117, 1000.000000000000000 ) ;
#785 =( NAMED_UNIT ( * ) SI_UNIT ( $, .STERADIAN. ) SOLID_ANGLE_UNIT ( ) );
#786 = SURFACE_STYLE_USAGE ( .BOTH. , #337 ) ;
#787 = ORIENTED_EDGE ( 'NONE', *, *, #77, .T. ) ;
#788 = ORIENTED_EDGE ( 'NONE', *, *, #747, .T. ) ;
#789 = EDGE_CURVE ( 'NONE', #290, #242, #271, .T. ) ;
#790 = PRESENTATION_LAYER_ASSIGNMENT (  '', '', ( #178 ) ) ;
#791 = EDGE_LOOP ( 'NONE', ( #313, #195, #152, #447 ) ) ;
#792 = AXIS2_PLACEMENT_3D ( 'NONE', #451, #127, #463 ) ;
#793 = FILL_AREA_STYLE ('',( #362 ) ) ;
#794 = COLOUR_RGB ( '',0.8509803921568627194, 0.8509803921568627194, 0.8509803921568627194 ) ;
#795 = FACE_OUTER_BOUND ( 'NONE', #536, .T. ) ;
#796 = SURFACE_STYLE_FILL_AREA ( #730 ) ;
#797 = PRESENTATION_LAYER_ASSIGNMENT (  '', '', ( #668 ) ) ;
#798 = PRESENTATION_LAYER_ASSIGNMENT (  '', '', ( #116 ) ) ;
#799 = SURFACE_STYLE_FILL_AREA ( #486 ) ;
#800 = PRESENTATION_STYLE_ASSIGNMENT (( #160 ) ) ;
#801 = FILL_AREA_STYLE_COLOUR ( '', #394 ) ;
#802 = DIRECTION ( 'NONE',  ( 0.000000000000000000, 0.000000000000000000, 1.000000000000000000 ) ) ;
#803 = EDGE_CURVE ( 'NONE', #529, #221, #672, .T. ) ;
#804 = DIRECTION ( 'NONE',  ( 0.000000000000000000, 0.000000000000000000, 1.000000000000000000 ) ) ;
#805 =( LENGTH_UNIT ( ) NAMED_UNIT ( * ) SI_UNIT ( .MILLI., .METRE. ) );
#806 = DIRECTION ( 'NONE',  ( -0.000000000000000000, 0.000000000000000000, 1.000000000000000000 ) ) ;
#807 = AXIS2_PLACEMENT_3D ( 'NONE', #348, #294, #211 ) ;
#808 = SURFACE_SIDE_STYLE ('',( #310 ) ) ;
#809 = DIRECTION ( 'NONE',  ( 1.000000000000000000, 0.000000000000000000, 0.000000000000000000 ) ) ;
#810 = COLOUR_RGB ( '',0.8509803921568627194, 0.8509803921568627194, 0.8509803921568627194 ) ;
#811 = SURFACE_STYLE_FILL_AREA ( #793 ) ;
#812 = CARTESIAN_POINT ( 'NONE',  ( -1.500000000000000444, 0.2500000000000000000, -3.500000000000000000 ) ) ;
#813 = FILL_AREA_STYLE_COLOUR ( '', #429 ) ;
#814 = EDGE_CURVE ( 'NONE', #3, #725, #553, .T. ) ;
#815 =( LENGTH_UNIT ( ) NAMED_UNIT ( * ) SI_UNIT ( .MILLI., .METRE. ) );
#816 = VECTOR ( 'NONE', #507, 1000.000000000000000 ) ;
ENDSEC;
END-ISO-10303-21;
